<?xml version='1.0' encoding='utf-8'?>
<svg xmlns="http://www.w3.org/2000/svg" width="20" zoomAndPan="magnify" viewBox="0 0 810 809.999993" height="20" preserveAspectRatio="xMidYMid meet" version="1.0"><defs><clipPath id="7c6a9023c7"><path d="M 1 96 L 810 96 L 810 683.878906 L 1 683.878906 Z M 1 96 " clip-rule="nonzero" /></clipPath></defs><g clip-path="url(#7c6a9023c7)"><path fill="#c3ccdf" d="M 350.925781 96.128906 C 349.886719 96.125 348.855469 96.207031 347.832031 96.375 C 346.804688 96.546875 345.804688 96.800781 344.820312 97.140625 C 343.839844 97.480469 342.894531 97.898438 341.984375 98.398438 C 341.074219 98.898438 340.214844 99.472656 339.402344 100.117188 C 338.589844 100.765625 337.835938 101.476562 337.144531 102.25 C 336.453125 103.023438 335.828125 103.847656 335.277344 104.726562 C 334.722656 105.605469 334.25 106.527344 333.855469 107.484375 C 333.457031 108.445312 333.144531 109.429688 332.914062 110.445312 L 254.925781 453.648438 L 202.765625 310.261719 C 202.460938 309.421875 202.09375 308.609375 201.671875 307.824219 C 201.246094 307.039062 200.769531 306.289062 200.234375 305.574219 C 199.703125 304.855469 199.121094 304.183594 198.488281 303.554688 C 197.859375 302.921875 197.183594 302.339844 196.46875 301.808594 C 195.75 301.273438 195 300.796875 194.214844 300.375 C 193.429688 299.949219 192.617188 299.585938 191.777344 299.28125 C 190.9375 298.976562 190.082031 298.734375 189.207031 298.554688 C 188.332031 298.375 187.453125 298.257812 186.558594 298.207031 C 185.667969 298.15625 184.777344 298.171875 183.890625 298.25 C 183 298.328125 182.121094 298.46875 181.253906 298.675781 C 180.386719 298.882812 179.535156 299.152344 178.707031 299.480469 C 177.878906 299.8125 177.078125 300.199219 176.304688 300.648438 C 175.53125 301.09375 174.796875 301.59375 174.097656 302.148438 C 173.398438 302.703125 172.742188 303.304688 172.128906 303.957031 C 171.519531 304.605469 170.957031 305.296875 170.445312 306.027344 C 169.933594 306.761719 169.480469 307.523438 169.078125 308.324219 L 119.070312 408.375 L 20.203125 408.375 C 19.597656 408.367188 18.992188 408.386719 18.386719 408.441406 C 17.78125 408.492188 17.179688 408.574219 16.582031 408.683594 C 15.988281 408.792969 15.398438 408.933594 14.8125 409.105469 C 14.230469 409.273438 13.660156 409.472656 13.09375 409.699219 C 12.53125 409.925781 11.980469 410.179688 11.441406 410.457031 C 10.90625 410.738281 10.382812 411.046875 9.875 411.378906 C 9.367188 411.710938 8.875 412.070312 8.402344 412.449219 C 7.933594 412.832031 7.480469 413.234375 7.046875 413.660156 C 6.613281 414.089844 6.203125 414.535156 5.816406 415 C 5.429688 415.46875 5.066406 415.953125 4.726562 416.457031 C 4.386719 416.960938 4.070312 417.476562 3.78125 418.011719 C 3.492188 418.546875 3.234375 419.09375 3 419.652344 C 2.765625 420.214844 2.558594 420.785156 2.378906 421.363281 C 2.203125 421.945312 2.054688 422.53125 1.933594 423.128906 C 1.816406 423.722656 1.726562 424.320312 1.664062 424.925781 C 1.605469 425.53125 1.574219 426.136719 1.574219 426.742188 C 1.574219 427.351562 1.605469 427.957031 1.664062 428.558594 C 1.726562 429.164062 1.816406 429.761719 1.933594 430.359375 C 2.054688 430.953125 2.203125 431.542969 2.378906 432.121094 C 2.558594 432.703125 2.765625 433.273438 3 433.832031 C 3.234375 434.390625 3.492188 434.9375 3.78125 435.472656 C 4.070312 436.007812 4.386719 436.527344 4.726562 437.027344 C 5.066406 437.53125 5.429688 438.015625 5.816406 438.484375 C 6.203125 438.949219 6.613281 439.398438 7.046875 439.824219 C 7.480469 440.25 7.933594 440.652344 8.402344 441.035156 C 8.875 441.414062 9.367188 441.773438 9.875 442.105469 C 10.382812 442.4375 10.90625 442.746094 11.441406 443.027344 C 11.980469 443.308594 12.53125 443.5625 13.09375 443.789062 C 13.660156 444.011719 14.230469 444.210938 14.8125 444.382812 C 15.398438 444.550781 15.988281 444.691406 16.582031 444.800781 C 17.179688 444.914062 17.78125 444.992188 18.386719 445.046875 C 18.992188 445.097656 19.597656 445.117188 20.203125 445.109375 L 130.40625 445.109375 C 131.257812 445.109375 132.101562 445.050781 132.941406 444.933594 C 133.78125 444.816406 134.609375 444.644531 135.425781 444.410156 C 136.242188 444.179688 137.039062 443.890625 137.816406 443.550781 C 138.59375 443.207031 139.34375 442.8125 140.066406 442.367188 C 140.789062 441.921875 141.476562 441.425781 142.128906 440.886719 C 142.78125 440.34375 143.394531 439.761719 143.96875 439.132812 C 144.539062 438.507812 145.066406 437.84375 145.546875 437.144531 C 146.027344 436.445312 146.457031 435.714844 146.839844 434.957031 L 182.855469 362.960938 L 241.722656 524.855469 C 242.0625 525.78125 242.472656 526.671875 242.953125 527.53125 C 243.4375 528.386719 243.984375 529.203125 244.59375 529.972656 C 245.207031 530.742188 245.878906 531.460938 246.605469 532.121094 C 247.332031 532.785156 248.109375 533.386719 248.933594 533.921875 C 249.757812 534.460938 250.617188 534.929688 251.519531 535.328125 C 252.417969 535.726562 253.34375 536.054688 254.292969 536.304688 C 255.246094 536.554688 256.210938 536.726562 257.191406 536.824219 C 258.171875 536.917969 259.152344 536.933594 260.132812 536.871094 C 261.113281 536.808594 262.085938 536.671875 263.046875 536.453125 C 264.003906 536.234375 264.941406 535.941406 265.851562 535.574219 C 266.765625 535.203125 267.644531 534.765625 268.484375 534.253906 C 269.328125 533.746094 270.121094 533.171875 270.871094 532.535156 C 271.621094 531.898438 272.316406 531.203125 272.953125 530.453125 C 273.59375 529.707031 274.167969 528.910156 274.675781 528.070312 C 275.1875 527.226562 275.628906 526.351562 275.996094 525.441406 C 276.367188 524.527344 276.660156 523.59375 276.878906 522.632812 L 348.054688 209.527344 L 424.535156 668.53125 C 424.707031 669.539062 424.957031 670.527344 425.292969 671.496094 C 425.628906 672.460938 426.042969 673.394531 426.53125 674.292969 C 427.023438 675.191406 427.585938 676.042969 428.21875 676.84375 C 428.851562 677.648438 429.546875 678.394531 430.300781 679.082031 C 431.058594 679.769531 431.871094 680.390625 432.730469 680.945312 C 433.59375 681.496094 434.492188 681.972656 435.433594 682.375 C 436.375 682.777344 437.34375 683.097656 438.335938 683.339844 C 439.332031 683.578125 440.339844 683.734375 441.359375 683.808594 C 442.378906 683.878906 443.398438 683.867188 444.417969 683.769531 C 445.4375 683.667969 446.441406 683.488281 447.429688 683.222656 C 448.417969 682.957031 449.375 682.609375 450.304688 682.183594 C 451.234375 681.757812 452.125 681.253906 452.96875 680.679688 C 453.816406 680.105469 454.609375 679.464844 455.347656 678.757812 C 456.089844 678.050781 456.765625 677.285156 457.375 676.464844 C 457.988281 675.648438 458.527344 674.78125 458.996094 673.871094 C 459.460938 672.960938 459.851562 672.019531 460.160156 671.042969 L 554.078125 373.613281 L 609.070312 524.855469 C 609.367188 525.667969 609.71875 526.453125 610.125 527.214844 C 610.53125 527.976562 610.988281 528.703125 611.5 529.402344 C 612.007812 530.097656 612.5625 530.753906 613.164062 531.371094 C 613.765625 531.992188 614.410156 532.5625 615.09375 533.089844 C 615.773438 533.617188 616.492188 534.097656 617.242188 534.523438 C 617.992188 534.949219 618.765625 535.320312 619.570312 535.640625 C 620.371094 535.957031 621.191406 536.214844 622.03125 536.417969 C 622.871094 536.621094 623.71875 536.761719 624.578125 536.84375 C 625.4375 536.925781 626.296875 536.949219 627.160156 536.910156 C 628.019531 536.871094 628.875 536.769531 629.722656 536.609375 C 630.570312 536.449219 631.402344 536.234375 632.222656 535.957031 C 633.039062 535.679688 633.832031 535.347656 634.601562 534.957031 C 635.371094 534.570312 636.113281 534.128906 636.820312 533.636719 C 637.527344 533.140625 638.199219 532.601562 638.832031 532.015625 C 639.460938 531.425781 640.050781 530.800781 640.59375 530.128906 C 641.136719 529.457031 641.632812 528.753906 642.074219 528.015625 L 691.832031 445.109375 L 791.632812 445.109375 C 792.238281 445.117188 792.84375 445.097656 793.449219 445.046875 C 794.054688 444.992188 794.65625 444.914062 795.253906 444.800781 C 795.851562 444.691406 796.441406 444.550781 797.023438 444.382812 C 797.605469 444.210938 798.179688 444.011719 798.742188 443.789062 C 799.304688 443.5625 799.855469 443.308594 800.394531 443.027344 C 800.933594 442.746094 801.453125 442.4375 801.960938 442.105469 C 802.46875 441.773438 802.960938 441.414062 803.433594 441.035156 C 803.90625 440.652344 804.355469 440.25 804.789062 439.824219 C 805.222656 439.398438 805.632812 438.949219 806.019531 438.484375 C 806.40625 438.015625 806.773438 437.53125 807.113281 437.027344 C 807.453125 436.527344 807.765625 436.007812 808.054688 435.472656 C 808.34375 434.9375 808.605469 434.390625 808.839844 433.832031 C 809.074219 433.273438 809.277344 432.703125 809.457031 432.121094 C 809.632812 431.542969 809.78125 430.953125 809.902344 430.359375 C 810.023438 429.761719 810.113281 429.164062 810.171875 428.558594 C 810.230469 427.957031 810.261719 427.351562 810.261719 426.742188 C 810.261719 426.136719 810.230469 425.53125 810.171875 424.925781 C 810.113281 424.320312 810.023438 423.722656 809.902344 423.128906 C 809.78125 422.53125 809.632812 421.945312 809.457031 421.363281 C 809.277344 420.785156 809.074219 420.214844 808.839844 419.652344 C 808.605469 419.09375 808.34375 418.546875 808.054688 418.011719 C 807.765625 417.476562 807.453125 416.960938 807.113281 416.457031 C 806.773438 415.953125 806.40625 415.46875 806.019531 415 C 805.632812 414.535156 805.222656 414.089844 804.789062 413.660156 C 804.355469 413.234375 803.90625 412.832031 803.433594 412.449219 C 802.960938 412.070312 802.46875 411.710938 801.960938 411.378906 C 801.453125 411.046875 800.933594 410.738281 800.394531 410.457031 C 799.855469 410.179688 799.304688 409.925781 798.742188 409.699219 C 798.179688 409.472656 797.605469 409.273438 797.023438 409.105469 C 796.441406 408.933594 795.851562 408.792969 795.253906 408.683594 C 794.65625 408.574219 794.054688 408.492188 793.449219 408.441406 C 792.84375 408.386719 792.238281 408.367188 791.632812 408.375 L 681.429688 408.375 C 679.84375 408.375 678.28125 408.578125 676.75 408.984375 C 675.214844 409.390625 673.757812 409.984375 672.378906 410.765625 C 670.996094 411.550781 669.738281 412.496094 668.605469 413.601562 C 667.46875 414.710938 666.496094 415.945312 665.679688 417.308594 L 630.417969 476.070312 L 570.113281 310.261719 C 569.785156 309.367188 569.390625 308.503906 568.929688 307.667969 C 568.46875 306.835938 567.945312 306.042969 567.359375 305.292969 C 566.777344 304.539062 566.136719 303.835938 565.441406 303.183594 C 564.75 302.53125 564.007812 301.9375 563.222656 301.398438 C 562.433594 300.863281 561.613281 300.390625 560.75 299.980469 C 559.890625 299.570312 559.003906 299.230469 558.09375 298.960938 C 557.179688 298.6875 556.25 298.488281 555.304688 298.363281 C 554.363281 298.234375 553.414062 298.183594 552.460938 298.203125 C 551.511719 298.222656 550.566406 298.316406 549.628906 298.484375 C 548.691406 298.652344 547.769531 298.890625 546.871094 299.203125 C 545.96875 299.511719 545.097656 299.890625 544.257812 300.339844 C 543.414062 300.785156 542.613281 301.292969 541.851562 301.863281 C 541.089844 302.433594 540.375 303.0625 539.710938 303.742188 C 539.042969 304.425781 538.4375 305.152344 537.886719 305.929688 C 537.332031 306.707031 536.84375 307.519531 536.421875 308.375 C 535.996094 309.226562 535.640625 310.105469 535.351562 311.015625 L 448.175781 587.027344 L 368.933594 111.484375 C 368.757812 110.425781 368.488281 109.386719 368.132812 108.375 C 367.773438 107.363281 367.328125 106.390625 366.800781 105.453125 C 366.273438 104.519531 365.664062 103.636719 364.980469 102.808594 C 364.296875 101.980469 363.546875 101.21875 362.730469 100.519531 C 361.914062 99.824219 361.042969 99.203125 360.113281 98.660156 C 359.1875 98.117188 358.222656 97.65625 357.214844 97.28125 C 356.207031 96.90625 355.175781 96.625 354.121094 96.429688 C 353.0625 96.238281 352 96.136719 350.925781 96.128906 Z M 350.925781 96.128906 " fill-opacity="1" fill-rule="nonzero" /></g></svg>