<svg xmlns="http://www.w3.org/2000/svg" xmlns:xlink="http://www.w3.org/1999/xlink" width="20"
    zoomAndPan="magnify" viewBox="0 0 810 809.999993" height="20"
    preserveAspectRatio="xMidYMid meet" version="1.0">
    <defs>
        <clipPath id="3bdc241e16">
            <path
                d="M 353 155.09375 L 795 155.09375 L 795 627.519531 L 353 627.519531 Z M 353 155.09375 "
                clip-rule="nonzero" />
        </clipPath>
        <clipPath id="76e10e6f7a">
            <path d="M 248 185 L 474 185 L 474 682 L 248 682 Z M 248 185 " clip-rule="nonzero" />
        </clipPath>
        <clipPath id="370c95cfec">
            <path
                d="M 248.285156 211.929688 L 340.800781 185.808594 L 473.375 655.351562 L 380.863281 681.472656 Z M 248.285156 211.929688 "
                clip-rule="nonzero" />
        </clipPath>
        <clipPath id="a93a77c90b">
            <path
                d="M 18 264.761719 L 466 264.761719 L 466 627.832031 L 18 627.832031 Z M 18 264.761719 "
                clip-rule="nonzero" />
        </clipPath>
        <clipPath id="f62678b242">
            <path d="M 248 95 L 553 95 L 553 715 L 248 715 Z M 248 95 " clip-rule="nonzero" />
        </clipPath>
        <clipPath id="8beb6e5281">
            <path
                d="M 248.285156 135.230469 L 389.265625 95.425781 L 552.84375 674.765625 L 411.863281 714.574219 Z M 248.285156 135.230469 "
                clip-rule="nonzero" />
        </clipPath>
        <clipPath id="144ebeebcd">
            <path d="M 300 116 L 501 116 L 501 710 L 300 710 Z M 300 116 " clip-rule="nonzero" />
        </clipPath>
        <clipPath id="668f19b9fb">
            <path
                d="M 295.046875 123.617188 L 339.097656 111.179688 L 505.980469 702.226562 L 461.929688 714.664062 Z M 295.046875 123.617188 "
                clip-rule="nonzero" />
        </clipPath>
        <clipPath id="56b15d7734">
            <path
                d="M 317.070312 117.398438 C 322.914062 115.75 329.171875 116.488281 334.46875 119.453125 C 339.765625 122.414062 343.664062 127.363281 345.316406 133.203125 L 499.734375 680.109375 C 501.386719 685.949219 500.644531 692.207031 497.683594 697.503906 C 494.71875 702.800781 489.769531 706.703125 483.929688 708.351562 C 478.089844 710.003906 471.832031 709.265625 466.535156 706.300781 C 461.238281 703.335938 457.335938 698.386719 455.6875 692.546875 L 301.265625 145.640625 C 299.617188 139.800781 300.355469 133.542969 303.320312 128.246094 C 306.285156 122.949219 311.230469 119.046875 317.070312 117.398438 Z M 317.070312 117.398438 "
                clip-rule="nonzero" />
        </clipPath>
    </defs>
    <g clip-path="url(#3bdc241e16)">
        <path fill="#c3ccdf"
            d="M 376.964844 155.09375 C 363.921875 155.109375 353.332031 165.699219 353.316406 178.738281 L 353.316406 603.910156 C 353.332031 616.953125 363.921875 627.542969 376.964844 627.558594 L 770.644531 627.558594 C 783.6875 627.542969 794.277344 616.953125 794.292969 603.910156 L 794.292969 276.496094 C 794.308594 270.226562 791.816406 264.191406 787.371094 259.769531 L 689.613281 162.015625 C 685.195312 157.570312 679.15625 155.074219 672.886719 155.09375 Z M 401.648438 202.210938 L 463.589844 202.210938 L 463.589844 312.601562 L 668.273438 312.601562 L 668.273438 202.210938 L 669.660156 202.210938 L 746.539062 279.726562 L 746.539062 585.628906 L 401.648438 585.628906 Z M 507.824219 202.210938 L 621.730469 202.210938 L 621.730469 270.09375 L 507.824219 270.09375 Z M 569.882812 359.835938 C 489.199219 359.835938 448.820312 457.359375 505.863281 514.402344 C 562.910156 571.445312 660.429688 531.066406 660.429688 450.382812 C 660.375 400.394531 619.875 359.890625 569.882812 359.835938 Z M 569.824219 406.78125 C 593.921875 406.808594 613.457031 426.34375 613.484375 450.441406 C 613.484375 489.335938 566.46875 508.792969 538.96875 481.296875 C 511.472656 453.796875 530.933594 406.78125 569.824219 406.78125 Z M 569.824219 406.78125 "
            fill-opacity="1" fill-rule="nonzero" />
    </g>
    <g clip-path="url(#76e10e6f7a)">
        <g clip-path="url(#370c95cfec)">
            <path fill="#1b1e23"
                d="M 248.285156 211.929688 L 340.800781 185.808594 L 473.347656 655.246094 L 380.832031 681.367188 Z M 248.285156 211.929688 "
                fill-opacity="1" fill-rule="nonzero" />
        </g>
    </g>
    <g clip-path="url(#a93a77c90b)">
        <path fill="#c3ccdf"
            d="M 461.160156 397.457031 C 456.914062 391.984375 450.371094 388.789062 443.445312 388.8125 L 381.457031 388.8125 L 381.457031 339.707031 C 381.445312 327.757812 371.761719 318.070312 359.816406 318.058594 L 232.1875 318.058594 L 215.546875 278.085938 C 212.199219 270.007812 204.3125 264.746094 195.570312 264.761719 L 40.203125 264.761719 C 28.253906 264.777344 18.574219 274.460938 18.5625 286.414062 L 18.5625 627.832031 L 412.5 627.832031 L 465.246094 416.746094 C 466.949219 410.03125 465.4375 402.90625 461.160156 397.457031 Z M 60.050781 586.871094 L 60.050781 310.117188 L 181.789062 310.117188 L 203.980469 363.410156 L 333.933594 363.410156 L 333.933594 388.808594 L 132.414062 388.808594 C 122.09375 388.796875 113.097656 395.824219 110.605469 405.839844 L 62.628906 586.871094 C 62.628906 586.871094 64.441406 587.421875 60.050781 586.871094 Z M 377.03125 586.871094 L 107.785156 586.871094 L 149.785156 429.222656 L 414.640625 429.222656 Z M 377.03125 586.871094 "
            fill-opacity="1" fill-rule="nonzero" />
    </g>
    <g clip-path="url(#f62678b242)">
        <g clip-path="url(#8beb6e5281)">
            <path fill="#1b1e23"
                d="M 248.285156 135.230469 L 389.265625 95.425781 L 552.839844 674.761719 L 411.863281 714.566406 Z M 248.285156 135.230469 "
                fill-opacity="1" fill-rule="nonzero" />
        </g>
    </g>
    <g clip-path="url(#144ebeebcd)">
        <g clip-path="url(#668f19b9fb)">
            <g clip-path="url(#56b15d7734)">
                <path fill="#c3ccdf"
                    d="M 295.046875 123.617188 L 339.097656 111.179688 L 505.933594 702.054688 L 461.882812 714.492188 Z M 295.046875 123.617188 "
                    fill-opacity="1" fill-rule="nonzero" />
            </g>
        </g>
    </g>
</svg>