<svg xmlns="http://www.w3.org/2000/svg" xmlns:xlink="http://www.w3.org/1999/xlink" width="20" zoomAndPan="magnify" viewBox="0 0 810 809.999993" height="20" preserveAspectRatio="xMidYMid meet" version="1.0"><defs><clipPath id="3437137ce5"><path d="M 85 18 L 685 18 L 685 797 L 85 797 Z M 85 18 " clip-rule="nonzero"/></clipPath><clipPath id="5754166889"><path d="M 247.78125 -74.441406 L 744.351562 35.070312 L 554.886719 894.175781 L 58.320312 784.664062 Z M 247.78125 -74.441406 " clip-rule="nonzero"/></clipPath><clipPath id="d4f4310efa"><path d="M 247.78125 -74.441406 L 744.351562 35.070312 L 554.886719 894.175781 L 58.320312 784.664062 Z M 247.78125 -74.441406 " clip-rule="nonzero"/></clipPath></defs><g clip-path="url(#3437137ce5)"><g clip-path="url(#5754166889)"><g clip-path="url(#d4f4310efa)"><path fill="#c3ccdf" d="M 110.476562 795.8125 C 107.042969 795.039062 103.824219 793.730469 100.824219 791.890625 C 97.820312 790.050781 95.195312 787.773438 92.945312 785.066406 C 92.328125 784.351562 91.742188 783.613281 91.1875 782.851562 C 90.636719 782.085938 90.121094 781.296875 89.636719 780.484375 C 89.15625 779.675781 88.714844 778.84375 88.308594 777.992188 C 87.902344 777.140625 87.535156 776.273438 87.207031 775.386719 C 86.878906 774.503906 86.589844 773.605469 86.34375 772.695312 C 86.09375 771.785156 85.890625 770.867188 85.726562 769.9375 C 85.5625 769.007812 85.441406 768.074219 85.359375 767.132812 C 85.28125 766.191406 85.242188 765.25 85.25 764.308594 C 85.253906 763.363281 85.300781 762.421875 85.390625 761.484375 C 85.480469 760.542969 85.613281 759.613281 85.789062 758.683594 C 85.960938 757.757812 86.179688 756.839844 86.433594 755.933594 C 86.691406 755.023438 86.988281 754.128906 87.328125 753.25 C 87.664062 752.367188 88.042969 751.503906 88.457031 750.65625 C 88.875 749.8125 89.328125 748.984375 89.816406 748.179688 C 90.308594 747.371094 90.832031 746.589844 91.394531 745.832031 C 91.953125 745.074219 92.546875 744.339844 93.175781 743.636719 L 93.382812 743.410156 L 352.320312 454.738281 L 174.761719 415.578125 C 173.242188 415.242188 171.753906 414.792969 170.300781 414.238281 C 168.84375 413.683594 167.4375 413.023438 166.078125 412.261719 C 164.722656 411.5 163.425781 410.640625 162.191406 409.691406 C 160.960938 408.738281 159.804688 407.703125 158.722656 406.582031 C 157.640625 405.460938 156.648438 404.265625 155.742188 403 C 154.835938 401.730469 154.027344 400.40625 153.3125 399.019531 C 152.601562 397.636719 151.996094 396.203125 151.492188 394.730469 C 150.988281 393.257812 150.597656 391.753906 150.316406 390.222656 C 150.03125 388.691406 149.863281 387.144531 149.804688 385.589844 C 149.75 384.03125 149.808594 382.480469 149.980469 380.933594 C 150.148438 379.382812 150.433594 377.855469 150.828125 376.351562 C 151.222656 374.84375 151.726562 373.375 152.335938 371.941406 C 152.945312 370.507812 153.65625 369.125 154.46875 367.796875 C 155.28125 366.46875 156.1875 365.207031 157.183594 364.007812 C 158.179688 362.8125 159.257812 361.695312 160.421875 360.65625 C 161.582031 359.621094 162.8125 358.671875 164.113281 357.8125 L 634.347656 24.339844 L 635.011719 23.882812 C 635.789062 23.386719 636.585938 22.925781 637.402344 22.5 C 638.21875 22.074219 639.050781 21.6875 639.898438 21.332031 C 640.75 20.980469 641.613281 20.664062 642.492188 20.382812 C 643.367188 20.105469 644.253906 19.863281 645.152344 19.660156 C 646.050781 19.460938 646.957031 19.296875 647.867188 19.171875 C 648.78125 19.050781 649.695312 18.964844 650.617188 18.921875 C 651.535156 18.875 652.457031 18.871094 653.375 18.90625 C 654.296875 18.941406 655.210938 19.015625 656.125 19.132812 C 657.039062 19.246094 657.945312 19.398438 658.84375 19.59375 C 659.746094 19.785156 660.636719 20.015625 661.515625 20.289062 C 662.394531 20.558594 663.261719 20.863281 664.117188 21.210938 C 664.96875 21.554688 665.804688 21.9375 666.625 22.355469 C 667.445312 22.769531 668.246094 23.222656 669.027344 23.710938 C 669.808594 24.195312 670.570312 24.71875 671.304688 25.269531 C 672.039062 25.820312 672.75 26.40625 673.4375 27.019531 C 674.125 27.632812 674.78125 28.277344 675.410156 28.945312 C 676.042969 29.617188 676.640625 30.316406 677.210938 31.039062 C 677.78125 31.761719 678.320312 32.507812 678.824219 33.277344 C 679.328125 34.046875 679.800781 34.835938 680.238281 35.644531 C 680.675781 36.457031 681.074219 37.285156 681.441406 38.128906 C 681.804688 38.972656 682.132812 39.832031 682.425781 40.707031 C 682.714844 41.578125 682.96875 42.464844 683.183594 43.359375 C 683.398438 44.253906 683.570312 45.15625 683.707031 46.066406 C 683.84375 46.976562 683.941406 47.890625 683.996094 48.8125 C 684.054688 49.730469 684.070312 50.648438 684.050781 51.570312 C 684.027344 52.488281 683.964844 53.40625 683.863281 54.320312 C 683.761719 55.238281 683.621094 56.144531 683.4375 57.046875 C 683.257812 57.949219 683.039062 58.84375 682.78125 59.726562 C 682.523438 60.609375 682.226562 61.480469 681.894531 62.339844 C 681.558594 63.199219 681.191406 64.039062 680.785156 64.867188 C 680.378906 65.691406 679.9375 66.5 679.460938 67.285156 C 678.984375 68.074219 678.476562 68.839844 677.933594 69.585938 L 677.605469 70.019531 L 462.671875 345.199219 L 618.90625 379.65625 C 621.046875 380.128906 623.144531 380.757812 625.191406 381.535156 C 627.238281 382.316406 629.21875 383.242188 631.132812 384.3125 C 633.046875 385.382812 634.871094 386.589844 636.609375 387.925781 C 638.34375 389.265625 639.976562 390.722656 641.5 392.296875 C 643.023438 393.875 644.421875 395.550781 645.699219 397.335938 C 646.976562 399.117188 648.117188 400.980469 649.125 402.929688 C 650.128906 404.878906 650.984375 406.890625 651.695312 408.960938 C 652.40625 411.035156 652.960938 413.152344 653.363281 415.308594 C 653.761719 417.460938 654.003906 419.636719 654.085938 421.824219 C 654.167969 424.015625 654.089844 426.203125 653.851562 428.378906 C 653.617188 430.558594 653.222656 432.710938 652.667969 434.832031 C 652.117188 436.953125 651.414062 439.023438 650.558594 441.042969 C 649.703125 443.0625 648.703125 445.007812 647.5625 446.878906 C 646.425781 448.75 645.152344 450.53125 643.753906 452.214844 C 642.351562 453.902344 640.835938 455.480469 639.207031 456.941406 C 637.574219 458.40625 635.84375 459.746094 634.015625 460.957031 L 134.394531 791.300781 L 133.828125 791.664062 C 132.105469 792.742188 130.296875 793.644531 128.402344 794.375 C 126.503906 795.105469 124.554688 795.648438 122.554688 796.003906 C 120.554688 796.359375 118.539062 796.519531 116.507812 796.488281 C 114.476562 796.457031 112.464844 796.230469 110.476562 795.8125 Z M 116.679688 763.710938 Z M 183.984375 383.929688 L 361.019531 422.972656 C 361.691406 423.121094 362.355469 423.289062 363.015625 423.480469 C 363.675781 423.671875 364.328125 423.886719 364.972656 424.117188 C 365.617188 424.351562 366.257812 424.605469 366.886719 424.878906 C 367.515625 425.152344 368.132812 425.449219 368.746094 425.761719 C 369.355469 426.078125 369.953125 426.410156 370.542969 426.765625 C 371.132812 427.117188 371.707031 427.488281 372.273438 427.878906 C 372.839844 428.269531 373.390625 428.679688 373.929688 429.105469 C 374.464844 429.53125 374.992188 429.972656 375.5 430.433594 C 376.011719 430.890625 376.503906 431.367188 376.984375 431.859375 C 377.460938 432.351562 377.925781 432.859375 378.371094 433.378906 C 378.816406 433.902344 379.246094 434.4375 379.660156 434.988281 C 380.070312 435.535156 380.464844 436.097656 380.839844 436.671875 C 381.214844 437.246094 381.570312 437.832031 381.910156 438.429688 C 382.246094 439.027344 382.566406 439.636719 382.863281 440.253906 C 383.164062 440.875 383.441406 441.5 383.699219 442.136719 C 383.957031 442.773438 384.195312 443.417969 384.410156 444.070312 C 384.625 444.71875 384.820312 445.378906 384.996094 446.042969 C 385.167969 446.707031 385.320312 447.375 385.453125 448.050781 C 385.582031 448.722656 385.691406 449.402344 385.777344 450.082031 C 385.867188 450.761719 385.929688 451.445312 385.972656 452.132812 C 386.015625 452.816406 386.039062 453.503906 386.035156 454.1875 C 386.035156 454.875 386.011719 455.5625 385.964844 456.246094 C 385.917969 456.929688 385.851562 457.613281 385.761719 458.292969 C 385.671875 458.976562 385.558594 459.652344 385.425781 460.324219 C 385.292969 461 385.136719 461.667969 384.960938 462.332031 C 384.785156 462.996094 384.585938 463.652344 384.367188 464.300781 C 384.148438 464.953125 383.910156 465.59375 383.648438 466.230469 C 383.386719 466.867188 383.109375 467.492188 382.804688 468.109375 C 382.503906 468.726562 382.183594 469.332031 381.84375 469.929688 C 381.503906 470.527344 381.144531 471.109375 380.769531 471.683594 C 380.390625 472.257812 379.992188 472.816406 379.578125 473.363281 C 379.164062 473.914062 378.734375 474.445312 378.285156 474.964844 L 378.078125 475.191406 L 123.070312 759.488281 L 615.851562 433.558594 C 616.839844 432.90625 617.710938 432.125 618.472656 431.214844 C 619.230469 430.304688 619.839844 429.304688 620.304688 428.214844 C 620.769531 427.125 621.066406 425.992188 621.195312 424.8125 C 621.324219 423.636719 621.28125 422.464844 621.0625 421.300781 C 620.847656 420.132812 620.46875 419.027344 619.921875 417.972656 C 619.378906 416.921875 618.695312 415.96875 617.871094 415.117188 C 617.046875 414.265625 616.117188 413.550781 615.082031 412.976562 C 614.046875 412.398438 612.953125 411.984375 611.796875 411.730469 L 454.089844 376.949219 C 453.445312 376.808594 452.808594 376.648438 452.171875 376.464844 C 451.539062 376.285156 450.910156 376.082031 450.289062 375.863281 C 449.667969 375.640625 449.054688 375.402344 448.449219 375.144531 C 447.839844 374.882812 447.242188 374.605469 446.652344 374.3125 C 446.0625 374.015625 445.484375 373.703125 444.914062 373.371094 C 444.34375 373.039062 443.785156 372.6875 443.238281 372.324219 C 442.6875 371.957031 442.152344 371.574219 441.628906 371.171875 C 441.101562 370.773438 440.589844 370.359375 440.09375 369.925781 C 439.59375 369.496094 439.109375 369.050781 438.636719 368.585938 C 438.164062 368.125 437.710938 367.648438 437.265625 367.160156 C 436.824219 366.671875 436.398438 366.167969 435.988281 365.652344 C 435.578125 365.136719 435.183594 364.605469 434.808594 364.066406 C 434.429688 363.523438 434.070312 362.972656 433.726562 362.410156 C 433.382812 361.847656 433.054688 361.273438 432.746094 360.691406 C 432.441406 360.105469 432.152344 359.515625 431.878906 358.914062 C 431.609375 358.3125 431.355469 357.703125 431.121094 357.085938 C 430.890625 356.46875 430.675781 355.847656 430.480469 355.214844 C 430.285156 354.585938 430.109375 353.949219 429.953125 353.308594 C 429.800781 352.667969 429.664062 352.023438 429.550781 351.375 C 429.433594 350.726562 429.339844 350.074219 429.265625 349.417969 C 429.1875 348.761719 429.132812 348.105469 429.101562 347.445312 C 429.066406 346.789062 429.050781 346.128906 429.058594 345.46875 C 429.066406 344.808594 429.09375 344.152344 429.140625 343.492188 C 429.1875 342.835938 429.257812 342.179688 429.34375 341.527344 C 429.433594 340.871094 429.542969 340.222656 429.671875 339.574219 C 429.800781 338.929688 429.949219 338.285156 430.117188 337.648438 C 430.285156 337.011719 430.472656 336.378906 430.679688 335.753906 C 430.886719 335.125 431.113281 334.507812 431.359375 333.894531 C 431.605469 333.285156 431.871094 332.679688 432.15625 332.085938 C 432.4375 331.488281 432.738281 330.902344 433.058594 330.324219 C 433.378906 329.75 433.714844 329.183594 434.070312 328.625 C 434.425781 328.070312 434.796875 327.527344 435.1875 326.992188 L 435.515625 326.558594 L 647.355469 55.414062 Z M 664.671875 59.894531 Z M 664.671875 59.894531 " fill-opacity="1" fill-rule="nonzero"/></g></g></g></svg>