<?xml version="1.0" encoding="UTF-8" standalone="no"?>
<svg
   width="1080"
   zoomAndPan="magnify"
   viewBox="0 0 810 809.999993"
   height="1080"
   preserveAspectRatio="xMidYMid meet"
   version="1.0"
   id="svg282"
   sodipodi:docname="electrode_arrangement_eight.svg"
   inkscape:version="1.1 (c68e22c387, 2021-05-23)"
   xmlns:inkscape="http://www.inkscape.org/namespaces/inkscape"
   xmlns:sodipodi="http://sodipodi.sourceforge.net/DTD/sodipodi-0.dtd"
   xmlns="http://www.w3.org/2000/svg"
   xmlns:svg="http://www.w3.org/2000/svg">
  <sodipodi:namedview
     id="namedview284"
     pagecolor="#ffffff"
     bordercolor="#666666"
     borderopacity="1.0"
     inkscape:pageshadow="2"
     inkscape:pageopacity="0.0"
     inkscape:pagecheckerboard="0"
     showgrid="false"
     inkscape:zoom="0.28578899"
     inkscape:cx="-195.94877"
     inkscape:cy="495.12054"
     inkscape:window-width="1680"
     inkscape:window-height="979"
     inkscape:window-x="2552"
     inkscape:window-y="-8"
     inkscape:window-maximized="1"
     inkscape:current-layer="svg282" />
  <defs
     id="defs52">
    <g
       id="g2" />
    <clipPath
       id="6ae076032e">
      <path
         d="M 439.199219 444.273438 L 490.746094 444.273438 L 490.746094 495.816406 L 439.199219 495.816406 Z M 439.199219 444.273438 "
         clip-rule="nonzero"
         id="path4" />
    </clipPath>
    <clipPath
       id="a6e8463440">
      <path
         d="M 464.972656 444.273438 C 450.738281 444.273438 439.199219 455.8125 439.199219 470.046875 C 439.199219 484.277344 450.738281 495.816406 464.972656 495.816406 C 479.207031 495.816406 490.746094 484.277344 490.746094 470.046875 C 490.746094 455.8125 479.207031 444.273438 464.972656 444.273438 Z M 464.972656 444.273438 "
         clip-rule="nonzero"
         id="path7" />
    </clipPath>
    <clipPath
       id="d4b1e77484">
      <path
         d="M 319.199219 444.273438 L 370.746094 444.273438 L 370.746094 495.816406 L 319.199219 495.816406 Z M 319.199219 444.273438 "
         clip-rule="nonzero"
         id="path10" />
    </clipPath>
    <clipPath
       id="28fcf9cff5">
      <path
         d="M 344.972656 444.273438 C 330.738281 444.273438 319.199219 455.8125 319.199219 470.046875 C 319.199219 484.277344 330.738281 495.816406 344.972656 495.816406 C 359.207031 495.816406 370.746094 484.277344 370.746094 470.046875 C 370.746094 455.8125 359.207031 444.273438 344.972656 444.273438 Z M 344.972656 444.273438 "
         clip-rule="nonzero"
         id="path13" />
    </clipPath>
    <clipPath
       id="f1418b2d51">
      <path
         d="M 319.199219 591.546875 L 370.746094 591.546875 L 370.746094 643.089844 L 319.199219 643.089844 Z M 319.199219 591.546875 "
         clip-rule="nonzero"
         id="path16" />
    </clipPath>
    <clipPath
       id="1da7f5cef7">
      <path
         d="M 344.972656 591.546875 C 330.738281 591.546875 319.199219 603.085938 319.199219 617.316406 C 319.199219 631.550781 330.738281 643.089844 344.972656 643.089844 C 359.207031 643.089844 370.746094 631.550781 370.746094 617.316406 C 370.746094 603.085938 359.207031 591.546875 344.972656 591.546875 Z M 344.972656 591.546875 "
         clip-rule="nonzero"
         id="path19" />
    </clipPath>
    <clipPath
       id="5cf90b9318">
      <path
         d="M 319.199219 517.910156 L 370.746094 517.910156 L 370.746094 569.453125 L 319.199219 569.453125 Z M 319.199219 517.910156 "
         clip-rule="nonzero"
         id="path22" />
    </clipPath>
    <clipPath
       id="57c6aacacf">
      <path
         d="M 344.972656 517.910156 C 330.738281 517.910156 319.199219 529.449219 319.199219 543.683594 C 319.199219 557.914062 330.738281 569.453125 344.972656 569.453125 C 359.207031 569.453125 370.746094 557.914062 370.746094 543.683594 C 370.746094 529.449219 359.207031 517.910156 344.972656 517.910156 Z M 344.972656 517.910156 "
         clip-rule="nonzero"
         id="path25" />
    </clipPath>
    <clipPath
       id="97070265ff">
      <path
         d="M 439.199219 517.910156 L 490.746094 517.910156 L 490.746094 569.453125 L 439.199219 569.453125 Z M 439.199219 517.910156 "
         clip-rule="nonzero"
         id="path28" />
    </clipPath>
    <clipPath
       id="f7ced0bf2b">
      <path
         d="M 464.972656 517.910156 C 450.738281 517.910156 439.199219 529.449219 439.199219 543.683594 C 439.199219 557.914062 450.738281 569.453125 464.972656 569.453125 C 479.207031 569.453125 490.746094 557.914062 490.746094 543.683594 C 490.746094 529.449219 479.207031 517.910156 464.972656 517.910156 Z M 464.972656 517.910156 "
         clip-rule="nonzero"
         id="path31" />
    </clipPath>
    <clipPath
       id="5c8ca9d28c">
      <path
         d="M 439.199219 591.546875 L 490.746094 591.546875 L 490.746094 643.089844 L 439.199219 643.089844 Z M 439.199219 591.546875 "
         clip-rule="nonzero"
         id="path34" />
    </clipPath>
    <clipPath
       id="e1ef2c1c9b">
      <path
         d="M 464.972656 591.546875 C 450.738281 591.546875 439.199219 603.085938 439.199219 617.316406 C 439.199219 631.550781 450.738281 643.089844 464.972656 643.089844 C 479.207031 643.089844 490.746094 631.550781 490.746094 617.316406 C 490.746094 603.085938 479.207031 591.546875 464.972656 591.546875 Z M 464.972656 591.546875 "
         clip-rule="nonzero"
         id="path37" />
    </clipPath>
    <clipPath
       id="f7cf522bfa">
      <path
         d="M 319.199219 664.839844 L 370.746094 664.839844 L 370.746094 716.386719 L 319.199219 716.386719 Z M 319.199219 664.839844 "
         clip-rule="nonzero"
         id="path40" />
    </clipPath>
    <clipPath
       id="0eb430b844">
      <path
         d="M 344.972656 664.839844 C 330.738281 664.839844 319.199219 676.378906 319.199219 690.613281 C 319.199219 704.847656 330.738281 716.386719 344.972656 716.386719 C 359.207031 716.386719 370.746094 704.847656 370.746094 690.613281 C 370.746094 676.378906 359.207031 664.839844 344.972656 664.839844 Z M 344.972656 664.839844 "
         clip-rule="nonzero"
         id="path43" />
    </clipPath>
    <clipPath
       id="2e6eadebb5">
      <path
         d="M 439.199219 664.839844 L 490.746094 664.839844 L 490.746094 716.386719 L 439.199219 716.386719 Z M 439.199219 664.839844 "
         clip-rule="nonzero"
         id="path46" />
    </clipPath>
    <clipPath
       id="7abc69a30c">
      <path
         d="M 464.972656 664.839844 C 450.738281 664.839844 439.199219 676.378906 439.199219 690.613281 C 439.199219 704.847656 450.738281 716.386719 464.972656 716.386719 C 479.207031 716.386719 490.746094 704.847656 490.746094 690.613281 C 490.746094 676.378906 479.207031 664.839844 464.972656 664.839844 Z M 464.972656 664.839844 "
         clip-rule="nonzero"
         id="path49" />
    </clipPath>
  </defs>
  <path
     d="m 404.99999,494.19531 -9.96483,5.0039 -1.96875,10.961 7.60937,8.14062 4.32421,0.7773 9.96485,-5.0039 1.96875,-10.96092 -7.60937,-8.1406 z"
     style="fill:#c3ccdf;fill-opacity:1;fill-rule:nonzero;stroke-width:0.75"
     id="path68748" />
  <path
     fill="#c3ccdf"
     d="m 316.56641,-0.171875 c -0.81641,0.015625 -1.6211,0.1054688 -2.42188,0.277344 -0.79687,0.171875 -1.57031,0.417969 -2.32031,0.742187 -0.7461,0.324219 -1.45703,0.71875 -2.12891,1.183594 -0.67187,0.460938 -1.29297,0.984375 -1.85937,1.570312 -0.57031,0.585938 -1.07813,1.222657 -1.51953,1.90625 -0.44532,0.6875 -0.81641,1.40625 -1.11719,2.164063 -0.30078,0.761719 -0.52735,1.539063 -0.67578,2.34375 -0.14844,0.800781 -0.21485,1.609375 -0.20313,2.425781 v 11.300782 c 0,22.570312 -10.08203,36.492187 -26.73437,48.191406 -16.64844,11.699218 -39.98047,19.609375 -62.33203,25.394531 -14.29688,3.699215 -28.15235,6.589845 -39.87891,9.527345 -0.0586,0.008 -0.11328,0.0156 -0.17187,0.0234 -23.14454,6.16797 -46.11329,15.67968 -64.42188,30.74218 -18.308594,15.0586 -31.769531,36.41797 -33.609375,63.25391 l -4.859375,71.13281 -0.07422,0.875 -6.292969,91.85938 c -0.0078,0.0898 -0.01953,0.17969 -0.02344,0.26562 l -9.1875,198.01172 c -0.0078,0.0312 -0.01563,0.0625 -0.02344,0.0977 -0.695313,17.85156 2.015624,35.67187 7.945312,52.53906 0.160156,0.45703 0.347656,0.90234 0.558594,1.33594 L 155.5703,801.75781 c 0.4961,1.01172 1.11719,1.9375 1.86719,2.77735 0.74609,0.84375 1.59375,1.57031 2.53906,2.18359 0.94532,0.61328 1.95703,1.08594 3.03125,1.42578 1.07422,0.33594 2.17578,0.52344 3.30078,0.5625 l 0.2461,0.0234 c 0.44531,0.0742 0.89844,0.125 1.35156,0.15234 0.45313,0.0234 0.90625,0.0234 1.35937,0 0.45313,-0.0234 0.90235,-0.0742 1.35157,-0.14843 0.44531,-0.0742 0.89062,-0.17188 1.32422,-0.29297 0.4375,-0.1211 0.86718,-0.26954 1.28906,-0.4375 0.42187,-0.16797 0.83203,-0.35938 1.23047,-0.57422 0.40234,-0.21485 0.78906,-0.44922 1.16406,-0.70703 0.375,-0.25391 0.73438,-0.53125 1.07813,-0.82813 0.34374,-0.29297 0.67187,-0.60937 0.98046,-0.9414 0.3125,-0.33204 0.60157,-0.67579 0.875,-1.04297 0.26953,-0.36328 0.52344,-0.73828 0.75391,-1.12891 0.23047,-0.39063 0.4375,-0.79297 0.625,-1.20703 0.1875,-0.41406 0.35156,-0.83594 0.48828,-1.26953 0.14063,-0.42969 0.25781,-0.86719 0.35156,-1.3125 0.0937,-0.44532 0.16016,-0.89453 0.20313,-1.34375 0.043,-0.45313 0.0625,-0.90625 0.0547,-1.35938 0,-63.71094 47.80468,-137.23047 47.80468,-137.23047 0.19922,-0.30078 0.38282,-0.60937 0.5586,-0.92187 37.30469,-68.01172 25.98047,-103.25781 16.08593,-148.21875 -23.9414,-108.80859 -31.44531,-127.16406 -42.84374,-159.70703 -0.39844,-1.19141 -0.96094,-2.29297 -1.69141,-3.3125 -0.73438,-1.01953 -1.59766,-1.90625 -2.59766,-2.66016 -1,-0.75781 -2.08984,-1.35156 -3.26562,-1.77734 -1.17969,-0.42969 -2.39453,-0.67188 -3.64844,-0.73047 -0.51172,-0.0274 -1.02344,-0.0195 -1.53125,0.0156 -0.51172,0.0391 -1.01953,0.10938 -1.51953,0.20703 -0.50391,0.10157 -0.99609,0.23047 -1.48438,0.39454 -0.48437,0.16015 -0.95703,0.35156 -1.42187,0.57031 -0.46094,0.21875 -0.91016,0.46484 -1.33984,0.74219 -0.4336,0.27343 -0.84766,0.57421 -1.24219,0.90234 -0.39453,0.32422 -0.76563,0.67188 -1.11719,1.04687 -0.35156,0.3711 -0.67969,0.76172 -0.98438,1.17579 -0.30468,0.41015 -0.57812,0.83984 -0.82812,1.28906 -0.25391,0.44531 -0.47266,0.90625 -0.66797,1.37891 -0.1914,0.47656 -0.35547,0.95703 -0.49219,1.45312 -0.13281,0.49219 -0.23437,0.99609 -0.30859,1.5 -0.0703,0.50781 -0.10937,1.01953 -0.12109,1.53125 -0.008,0.51172 0.0156,1.01953 0.0703,1.53125 0.0508,0.50781 0.13672,1.01172 0.25391,1.51172 0.11718,0.49609 0.26171,0.98828 0.4375,1.46875 5.10546,14.57031 9.375,26.60156 14.46093,43.8164 l -35.84375,149.6211 c -0.0937,0.41015 -0.16797,0.82422 -0.21875,1.24219 -1.07031,7.97656 -0.4375,16.10546 1.89453,23.83984 0.17579,0.58984 0.39454,1.16406 0.65625,1.72266 l 38.61329,81.92187 c -11.24219,19.33985 -29.53126,54.91016 -38.00782,94.97266 L 88.109375,607.17578 C 83.269531,593.32813 81.027344,578.75 81.59375,564.11328 v -0.0273 l 9.1875,-197.78906 6.269531,-91.71485 4.957029,-72.00391 c 1.35547,-19.78515 10.27344,-33.97656 24.57032,-45.73437 14.2539,-11.72656 34.03906,-20.29297 54.84765,-25.85938 l 0.0977,-0.0234 c 0.0234,-0.008 0.0469,-0.0156 0.0742,-0.0234 10.69531,-2.67187 24.4414,-5.57812 39.05078,-9.33203 0.0977,-0.0234 0.19531,-0.0469 0.29297,-0.0742 0.19922,-0.0508 0.33203,-0.0703 0.53515,-0.12109 0.0937,-0.0234 0.19141,-0.0469 0.28906,-0.0742 0.38672,-0.10156 0.76954,-0.22266 1.14454,-0.36328 23.10156,-6.03907 48.3164,-14.14844 68.99218,-28.675785 21.08203,-14.816406 37.30079,-37.808594 37.30079,-68.554687 V 12.441406 c 0.0117,-0.832031 -0.0586,-1.65625 -0.21485,-2.472656 -0.15234,-0.820312 -0.38672,-1.613281 -0.69922,-2.386719 -0.3164,-0.769531 -0.70312,-1.5 -1.16406,-2.195312 -0.46096,-0.695313 -0.9844,-1.335938 -1.57424,-1.921875 C 324.96094,2.875 324.32031,2.351562 323.625,1.894531 c -0.69141,-0.460937 -1.42578,-0.847656 -2.19922,-1.15625 -0.76953,-0.3125 -1.5664,-0.546875 -2.38281,-0.6992185 -0.82031,-0.1523435 -1.64453,-0.2226565 -2.47656,-0.2109375 z m 175.33593,0 c -0.8164,0.015625 -1.62109,0.1054688 -2.42187,0.277344 -0.79688,0.171875 -1.57031,0.417969 -2.32031,0.742187 -0.7461,0.324219 -1.45703,0.71875 -2.12891,1.183594 -0.67187,0.460938 -1.29297,0.984375 -1.86328,1.570312 -0.56641,0.585938 -1.07422,1.222657 -1.51563,1.90625 -0.44531,0.6875 -0.8164,1.40625 -1.11718,2.164063 -0.30078,0.761719 -0.52735,1.539063 -0.67578,2.34375 -0.14844,0.800781 -0.21485,1.609375 -0.20313,2.425781 v 11.300782 c 0,30.746093 16.21484,53.738281 37.30078,68.554687 20.82813,14.636715 46.28125,22.816405 69.52735,28.871095 0.28906,0.0898 0.57812,0.17187 0.87499,0.24219 0.39844,0.11718 0.80469,0.21484 1.21485,0.29297 14.43359,3.69531 28.07422,6.58984 38.66406,9.23437 h 0.0234 c 20.86719,5.5625 40.70312,14.14844 54.99609,25.90625 14.29297,11.75781 23.23438,25.94922 24.59375,45.73437 l 4.88282,71.12891 0.0469,0.875 6.29687,91.73828 9.1836,197.86328 c 0.5625,14.59766 -1.67188,29.13282 -6.48828,42.94141 l -71.78516,146.80469 c -8.625,-39.39453 -26.60156,-74.23828 -37.69141,-93.31641 l 38.61329,-81.92187 c 0.26171,-0.5586 0.48046,-1.13282 0.65625,-1.72266 2.33203,-7.73438 2.96484,-15.86328 1.89453,-23.83984 -0.0508,-0.41797 -0.125,-0.83204 -0.21875,-1.24219 l -35.84375,-149.6211 c 5.08594,-17.21484 9.35547,-29.24609 14.46093,-43.8164 0.16797,-0.46485 0.3086,-0.9375 0.42579,-1.41797 0.11328,-0.47656 0.19531,-0.96484 0.2539,-1.45313 0.0547,-0.49218 0.082,-0.98046 0.0781,-1.47656 -0.004,-0.49219 -0.0352,-0.98437 -0.0937,-1.47265 -0.0625,-0.48829 -0.15235,-0.97266 -0.27344,-1.45313 -0.11719,-0.48047 -0.26172,-0.94922 -0.4375,-1.41016 -0.17578,-0.46093 -0.375,-0.91015 -0.60547,-1.34765 -0.22656,-0.4375 -0.48047,-0.85938 -0.75781,-1.26953 -0.27734,-0.40625 -0.58203,-0.79688 -0.90625,-1.16797 -0.32422,-0.3711 -0.66797,-0.72266 -1.03516,-1.05078 -0.36719,-0.33203 -0.75,-0.63672 -1.15234,-0.92188 -0.40234,-0.28515 -0.82422,-0.54687 -1.25781,-0.78125 -0.4336,-0.23437 -0.87891,-0.4414 -1.33594,-0.625 -0.46094,-0.17969 -0.92578,-0.33594 -1.40625,-0.46094 -0.47656,-0.1289 -0.95703,-0.22265 -1.44531,-0.29296 -0.48828,-0.0703 -0.98047,-0.10938 -1.47266,-0.11719 -0.66016,-0.0156 -1.31641,0.0195 -1.96875,0.10937 -0.65625,0.0899 -1.29688,0.23047 -1.92969,0.42188 -0.6289,0.1914 -1.24218,0.43359 -1.83593,0.72266 -0.59375,0.28906 -1.16016,0.62109 -1.69922,0.99999 -0.53907,0.37891 -1.04688,0.80079 -1.51954,1.25782 -0.47265,0.46093 -0.90624,0.95312 -1.30078,1.48437 -0.39453,0.52735 -0.74609,1.08594 -1.05078,1.66797 -0.30469,0.58594 -0.5625,1.19141 -0.77344,1.81641 -11.39843,32.54297 -18.90234,50.89844 -42.84375,159.70703 -9.89453,44.96094 -21.21874,80.20703 16.08594,148.21875 0.17578,0.3125 0.35938,0.62109 0.5586,0.92187 0,0 47.80468,73.51953 47.80468,137.23047 -0.0117,0.70703 0.0391,1.40625 0.14844,2.10547 0.10938,0.69531 0.27735,1.37891 0.50391,2.04688 0.22656,0.66797 0.5039,1.3164 0.83984,1.93359 0.33594,0.62109 0.72266,1.21094 1.16016,1.76562 0.43359,0.55469 0.91406,1.07032 1.4375,1.54297 0.52344,0.47657 1.08203,0.90235 1.67578,1.27735 0.59765,0.3789 1.22265,0.70703 1.87109,0.97656 0.65235,0.27344 1.32032,0.48828 2.00781,0.64844 0.17188,0.043 0.33985,0.0859 0.51172,0.12109 0.69532,0.16406 1.39844,0.26563 2.11329,0.3086 0.71093,0.043 1.42187,0.0234 2.13281,-0.0586 0.70703,-0.0781 1.40625,-0.21875 2.08984,-0.41797 0.6875,-0.20312 1.35156,-0.46093 1.99219,-0.77343 0.64062,-0.31641 1.25,-0.6836 1.82812,-1.10157 0.57813,-0.41797 1.11328,-0.88281 1.61328,-1.39843 0.4961,-0.51172 0.94532,-1.06251 1.35157,-1.64844 0.40234,-0.58985 0.75,-1.21094 1.04687,-1.85938 l 90.35157,-184.74218 c 0.21484,-0.4336 0.39843,-0.87891 0.55859,-1.33594 5.93359,-16.86719 8.62109,-34.6836 7.92578,-52.53906 v -0.0977 l -9.1875,-198.00781 -0.0234,-0.26953 -6.26953,-91.37501 c -0.004,-0.16796 -0.0156,-0.33984 -0.0273,-0.50781 L 731.66016,200.875 c -1.83985,-26.83594 -15.30078,-48.19531 -33.60938,-63.25391 -18.30469,-15.0625 -41.25,-24.57421 -64.39844,-30.74218 -0.0625,-0.008 -0.1289,-0.0156 -0.19531,-0.0234 -11.72656,-2.9375 -25.55859,-5.82813 -39.85156,-9.527345 C 571.25391,91.542969 547.89844,83.632812 531.24609,71.933594 514.59766,60.234375 504.53906,46.3125 504.53906,23.742188 V 12.441406 c 0.0117,-0.832031 -0.0586,-1.65625 -0.21484,-2.472656 C 504.17187,9.148438 503.9375,8.355469 503.625,7.582031 503.30859,6.8125 502.92188,6.078125 502.46094,5.386719 502,4.691406 501.47656,4.050781 500.88672,3.464844 500.29687,2.875 499.65625,2.351562 498.96094,1.894531 c -0.69141,-0.460937 -1.42578,-0.847656 -2.19922,-1.15625 -0.76953,-0.3125 -1.56641,-0.546875 -2.38281,-0.6992185 -0.82032,-0.1523435 -1.64454,-0.2226565 -2.47657,-0.2109375 z M 181.03516,298.61719 c -0.81641,0 -1.625,0.0781 -2.42578,0.23828 -0.80079,0.16015 -1.57813,0.39844 -2.33594,0.71094 -0.75391,0.3125 -1.46875,0.69531 -2.14844,1.14843 -0.67969,0.45313 -1.30859,0.96875 -1.88672,1.54688 -0.57812,0.57812 -1.09375,1.20703 -1.54687,1.88672 -0.45313,0.67968 -0.83594,1.39453 -1.14844,2.14843 -0.3125,0.75782 -0.55078,1.53516 -0.71094,2.33594 -0.15625,0.80078 -0.23828,1.60938 -0.23828,2.42578 0,0.81641 0.082,1.62891 0.23828,2.42969 0.16016,0.80078 0.39844,1.57813 0.71094,2.33203 0.3125,0.75781 0.69531,1.47266 1.14844,2.15235 0.45312,0.67968 0.96875,1.30859 1.54687,1.88672 0.57813,0.57812 1.20703,1.09375 1.88672,1.54687 0.67969,0.45313 1.39453,0.83594 2.14844,1.14844 0.75781,0.3125 1.53515,0.55078 2.33594,0.70703 0.80078,0.16016 1.60937,0.24219 2.42578,0.24219 0.82031,0 1.6289,-0.082 2.42968,-0.24219 0.80079,-0.15625 1.57813,-0.39453 2.33203,-0.70703 0.75782,-0.3125 1.47266,-0.69531 2.15235,-1.14844 0.67969,-0.45312 1.30859,-0.96875 1.88672,-1.54687 0.57812,-0.57813 1.09375,-1.20704 1.54687,-1.88672 0.45313,-0.67969 0.83594,-1.39454 1.14844,-2.15235 0.3125,-0.7539 0.55078,-1.53125 0.70703,-2.33203 0.16016,-0.80078 0.24219,-1.61328 0.24219,-2.42969 0,-0.8164 -0.082,-1.625 -0.24219,-2.42578 -0.15625,-0.80078 -0.39453,-1.57812 -0.70703,-2.33594 -0.3125,-0.7539 -0.69531,-1.46875 -1.14844,-2.14843 -0.45312,-0.67969 -0.96875,-1.3086 -1.54687,-1.88672 -0.57813,-0.57813 -1.20703,-1.09375 -1.88672,-1.54688 -0.67969,-0.45312 -1.39453,-0.83593 -2.15235,-1.14843 -0.7539,-0.3125 -1.53124,-0.55079 -2.33203,-0.71094 -0.80078,-0.16016 -1.60937,-0.23828 -2.42968,-0.23828 z m 447.92968,0 c -0.82031,0 -1.6289,0.0781 -2.42968,0.23828 -0.80078,0.16015 -1.57813,0.39844 -2.33204,0.71094 -0.75781,0.3125 -1.47265,0.69531 -2.15234,1.14843 -0.67969,0.45313 -1.30859,0.96875 -1.88672,1.54688 -0.57812,0.57812 -1.09375,1.20703 -1.54687,1.88672 -0.45313,0.67968 -0.83594,1.39453 -1.14844,2.14843 -0.3125,0.75782 -0.55078,1.53516 -0.70703,2.33594 -0.16016,0.80078 -0.24219,1.60938 -0.24219,2.42578 0,0.81641 0.082,1.62891 0.23828,2.42969 0.16016,0.80078 0.39844,1.57813 0.71094,2.33203 0.3125,0.75781 0.69531,1.47266 1.14844,2.15235 0.45312,0.67968 0.96875,1.30859 1.54687,1.88672 0.57813,0.57812 1.20703,1.09375 1.88672,1.54687 0.67969,0.45313 1.39453,0.83594 2.15234,1.14844 0.75391,0.3125 1.53126,0.55078 2.33204,0.70703 0.80078,0.16016 1.60937,0.24219 2.42968,0.24219 0.81641,0 1.625,-0.082 2.42578,-0.24219 0.80079,-0.15625 1.57813,-0.39453 2.33204,-0.70703 0.75781,-0.3125 1.47265,-0.69531 2.15234,-1.14844 0.67969,-0.45312 1.30859,-0.96875 1.88672,-1.54687 0.57812,-0.57813 1.09375,-1.20704 1.54687,-1.88672 0.45313,-0.67969 0.83594,-1.39454 1.14844,-2.15235 0.3125,-0.7539 0.55078,-1.53125 0.71094,-2.33203 0.15625,-0.80078 0.23828,-1.61328 0.23828,-2.42969 0,-0.8164 -0.082,-1.625 -0.23828,-2.42578 -0.16016,-0.80078 -0.39844,-1.57812 -0.71094,-2.33594 -0.3125,-0.7539 -0.69531,-1.46875 -1.14844,-2.14843 -0.45312,-0.67969 -0.96875,-1.3086 -1.54687,-1.88672 -0.57813,-0.57813 -1.20703,-1.09375 -1.88672,-1.54688 -0.67969,-0.45312 -1.39453,-0.83593 -2.15234,-1.14843 -0.75391,-0.3125 -1.53125,-0.55079 -2.33204,-0.71094 -0.80078,-0.16016 -1.60937,-0.23828 -2.42578,-0.23828 z M 206.99219,453.22266 c 4.0039,16.69531 8.55078,36.41406 14.1914,62.04297 9.55469,43.42187 19.21485,64.83593 -7.53515,118.76171 l -30.42578,-64.61718 c -1.19141,-4.14454 -1.54688,-8.50391 -0.9961,-12.8086 z m 396.01562,0 24.76563,103.3789 c 0.55078,4.30469 0.19531,8.66406 -0.9961,12.8086 l -30.42578,64.61718 c -26.75,-53.92578 -17.08984,-75.33984 -7.53515,-118.76171 5.64062,-25.62891 10.1875,-45.34766 14.1914,-62.04297 z"
     fill-opacity="1"
     fill-rule="nonzero"
     id="path54"
     sodipodi:nodetypes="cccccccccsccccccccccccccccsccccsccscccccsscscccccccccccccccccccccccccccccccccccccccccccccscccscccsccccccccccccccsccccccsccccccccccccccccsccsccscssccscccsscccccccccscccccccccccssccccccccccccccccscccccccccsscsssccsccsssccsccsssccsccssscsssscsssccsccsssccsccsssccsccssscsscccccccccccc" />
  <path
     d="m 404.99999,568.01367 -9.96483,5.0039 -1.96875,10.961 7.60937,8.14062 4.32421,0.7773 9.96485,-5.0039 1.96875,-10.96092 -7.60937,-8.1406 z"
     style="fill:#c3ccdf;fill-opacity:1;fill-rule:nonzero;stroke-width:0.75"
     id="path68748-4" />
  <path
     d="m 404.97265,420.37695 -9.96483,5.0039 -1.96875,10.961 7.60937,8.14062 4.32421,0.7773 9.96485,-5.0039 1.96875,-10.96092 -7.60937,-8.1406 z"
     style="fill:#c3ccdf;fill-opacity:1;fill-rule:nonzero;stroke-width:0.75"
     id="path68748-3" />
  <path
     d="m 404.99999,641.33203 -9.96483,5.0039 -1.96875,10.961 7.60937,8.14062 4.32421,0.7773 9.96485,-5.0039 1.96875,-10.96092 -7.60937,-8.1406 z"
     style="fill:#c3ccdf;fill-opacity:1;fill-rule:nonzero;stroke-width:0.75"
     id="path68748-4-9" />
  <path
     d="m 404.99999,714.65039 -9.96483,5.0039 -1.96875,10.961 7.60937,8.14062 4.32421,0.7773 9.96485,-5.0039 1.96875,-10.96092 -7.60937,-8.1406 z"
     style="fill:#c3ccdf;fill-opacity:1;fill-rule:nonzero;stroke-width:0.75"
     id="path68748-4-9-1" />
  <g
     fill="#2d7bc5"
     fill-opacity="1"
     id="g68">
    <g
       transform="translate(338.28983, 476.522684)"
       id="g66">
      <g
         id="g64">
        <path
           d="M 6.671875 0.1875 C 5.671875 0.1875 4.773438 -0.0507812 3.984375 -0.53125 C 3.191406 -1.007812 2.5625 -1.769531 2.09375 -2.8125 C 1.625 -3.851562 1.390625 -5.175781 1.390625 -6.78125 C 1.390625 -8.382812 1.625 -9.707031 2.09375 -10.75 C 2.5625 -11.800781 3.191406 -12.566406 3.984375 -13.046875 C 4.773438 -13.523438 5.671875 -13.765625 6.671875 -13.765625 C 7.671875 -13.765625 8.566406 -13.523438 9.359375 -13.046875 C 10.148438 -12.566406 10.773438 -11.800781 11.234375 -10.75 C 11.703125 -9.707031 11.9375 -8.382812 11.9375 -6.78125 C 11.9375 -5.175781 11.703125 -3.851562 11.234375 -2.8125 C 10.773438 -1.769531 10.148438 -1.007812 9.359375 -0.53125 C 8.566406 -0.0507812 7.671875 0.1875 6.671875 0.1875 Z M 6.671875 -1.28125 C 7.847656 -1.28125 8.738281 -1.703125 9.34375 -2.546875 C 9.957031 -3.398438 10.265625 -4.8125 10.265625 -6.78125 C 10.265625 -8.75 9.957031 -10.15625 9.34375 -11 C 8.738281 -11.851562 7.847656 -12.28125 6.671875 -12.28125 C 5.890625 -12.28125 5.234375 -12.097656 4.703125 -11.734375 C 4.171875 -11.378906 3.765625 -10.796875 3.484375 -9.984375 C 3.203125 -9.179688 3.0625 -8.113281 3.0625 -6.78125 C 3.0625 -5.445312 3.203125 -4.375 3.484375 -3.5625 C 3.765625 -2.757812 4.171875 -2.175781 4.703125 -1.8125 C 5.234375 -1.457031 5.890625 -1.28125 6.671875 -1.28125 Z M 6.671875 -1.28125 "
           id="path62" />
      </g>
    </g>
  </g>
  <g
     fill="#2d7bc5"
     fill-opacity="1"
     id="g82">
    <g
       transform="translate(339.907018, 550.159096)"
       id="g80">
      <g
         id="g78">
        <path
           d="M 0.96875 0 L 0.96875 -1.3125 L 4.671875 -1.3125 L 4.671875 -11.6875 L 4.453125 -11.75 C 3.847656 -11.445312 3.320312 -11.21875 2.875 -11.0625 C 2.425781 -10.90625 1.847656 -10.753906 1.140625 -10.609375 L 1.140625 -12.0625 C 1.835938 -12.21875 2.523438 -12.421875 3.203125 -12.671875 C 3.890625 -12.921875 4.515625 -13.21875 5.078125 -13.5625 L 6.21875 -13.5625 L 6.21875 -1.3125 L 9.53125 -1.3125 L 9.53125 0 Z M 0.96875 0 "
           id="path76" />
      </g>
    </g>
  </g>
  <g
     fill="#2d7bc5"
     fill-opacity="1"
     id="g96">
    <g
       transform="translate(339.742955, 623.795485)"
       id="g94">
      <g
         id="g92">
        <path
           d="M 0.8125 -0.625 C 0.8125 -1.375 0.894531 -1.976562 1.0625 -2.4375 C 1.226562 -2.894531 1.507812 -3.320312 1.90625 -3.71875 C 2.300781 -4.113281 2.929688 -4.625 3.796875 -5.25 L 5.28125 -6.34375 C 5.832031 -6.738281 6.28125 -7.101562 6.625 -7.4375 C 6.976562 -7.78125 7.253906 -8.148438 7.453125 -8.546875 C 7.648438 -8.953125 7.75 -9.40625 7.75 -9.90625 C 7.75 -10.707031 7.535156 -11.3125 7.109375 -11.71875 C 6.679688 -12.125 6.015625 -12.328125 5.109375 -12.328125 C 4.390625 -12.328125 3.75 -12.160156 3.1875 -11.828125 C 2.632812 -11.492188 2.191406 -11.019531 1.859375 -10.40625 L 1.65625 -10.375 L 0.703125 -11.375 C 1.148438 -12.113281 1.75 -12.695312 2.5 -13.125 C 3.25 -13.550781 4.117188 -13.765625 5.109375 -13.765625 C 6.078125 -13.765625 6.878906 -13.597656 7.515625 -13.265625 C 8.148438 -12.941406 8.617188 -12.488281 8.921875 -11.90625 C 9.222656 -11.332031 9.375 -10.664062 9.375 -9.90625 C 9.375 -9.289062 9.25 -8.71875 9 -8.1875 C 8.75 -7.664062 8.390625 -7.171875 7.921875 -6.703125 C 7.460938 -6.242188 6.878906 -5.757812 6.171875 -5.25 L 4.671875 -4.140625 C 4.109375 -3.734375 3.671875 -3.382812 3.359375 -3.09375 C 3.054688 -2.800781 2.835938 -2.515625 2.703125 -2.234375 C 2.566406 -1.960938 2.5 -1.65625 2.5 -1.3125 L 9.375 -1.3125 L 9.375 0 L 0.8125 0 Z M 0.8125 -0.625 "
           id="path90" />
      </g>
    </g>
  </g>
  <g
     clip-path="url(#5cf90b9318)"
     id="g74">
    <!-- Is the left second -->
    <g
       clip-path="url(#57c6aacacf)"
       id="g72">
      <!-- <path fill="#2d7bc5"
                d="M 319.199219 517.910156 L 370.746094 517.910156 L 370.746094 569.453125 L 319.199219 569.453125
            Z M 319.199219 517.910156 "
                fill-opacity="1" fill-rule="nonzero" /> -->
      <circle
         cx="345"
         cy="543"
         r="26"
         fill="#2d7bc5"
         fill-opacity="1"
         id="circle70" />
    </g>
  </g>
  <g
     clip-path="url(#f1418b2d51)"
     id="g88">
    <!-- Is the left third -->
    <g
       clip-path="url(#1da7f5cef7)"
       id="g86">
      <!-- <path fill="#2d7bc5"
                d="M 319.199219 591.546875 L 370.746094 591.546875 L 370.746094 643.089844 L 319.199219 643.089844
            Z M 319.199219 591.546875 "
                fill-opacity="1" fill-rule="nonzero" /> -->
      <circle
         cx="345"
         cy="617"
         r="26"
         fill="#2d7bc5"
         fill-opacity="1"
         id="circle84" />
    </g>
  </g>
  <g
     clip-path="url(#f7cf522bfa)"
     id="g102">
    <!-- Is the left fourth -->
    <g
       clip-path="url(#0eb430b844)"
       id="g100">
      <!-- <path fill="#2d7bc5"
                d="M 319.199219 664.839844 L 370.746094 664.839844 L 370.746094 716.386719 L 319.199219 716.386719
            Z M 319.199219 664.839844 "
                fill-opacity="1" fill-rule="nonzero" /> -->
      <circle
         cx="345"
         cy="690"
         r="26"
         fill="#2d7bc5"
         fill-opacity="1"
         id="circle98" />
    </g>
  </g>
  <g
     fill="#2d7bc5"
     fill-opacity="1"
     id="g110">
    <g
       transform="translate(339.449986, 697.090881)"
       id="g108">
      <g
         id="g106">
        <path
           d="M 5.375 0.1875 C 4.050781 0.1875 3.003906 -0.109375 2.234375 -0.703125 C 1.460938 -1.296875 0.960938 -2.113281 0.734375 -3.15625 L 1.921875 -3.703125 L 2.140625 -3.671875 C 2.367188 -2.859375 2.726562 -2.25 3.21875 -1.84375 C 3.71875 -1.445312 4.4375 -1.25 5.375 -1.25 C 6.332031 -1.25 7.0625 -1.46875 7.5625 -1.90625 C 8.0625 -2.34375 8.3125 -2.988281 8.3125 -3.84375 C 8.3125 -4.675781 8.054688 -5.3125 7.546875 -5.75 C 7.035156 -6.1875 6.234375 -6.40625 5.140625 -6.40625 L 3.671875 -6.40625 L 3.671875 -7.734375 L 4.984375 -7.734375 C 5.835938 -7.734375 6.515625 -7.941406 7.015625 -8.359375 C 7.523438 -8.785156 7.78125 -9.382812 7.78125 -10.15625 C 7.78125 -10.894531 7.5625 -11.445312 7.125 -11.8125 C 6.6875 -12.175781 6.070312 -12.359375 5.28125 -12.359375 C 3.914062 -12.359375 2.941406 -11.816406 2.359375 -10.734375 L 2.15625 -10.703125 L 1.265625 -11.671875 C 1.628906 -12.296875 2.15625 -12.800781 2.84375 -13.1875 C 3.53125 -13.570312 4.34375 -13.765625 5.28125 -13.765625 C 6.15625 -13.765625 6.894531 -13.628906 7.5 -13.359375 C 8.113281 -13.085938 8.578125 -12.695312 8.890625 -12.1875 C 9.203125 -11.6875 9.359375 -11.082031 9.359375 -10.375 C 9.359375 -9.707031 9.164062 -9.117188 8.78125 -8.609375 C 8.394531 -8.109375 7.882812 -7.710938 7.25 -7.421875 L 7.25 -7.234375 C 8.144531 -7.015625 8.816406 -6.609375 9.265625 -6.015625 C 9.722656 -5.421875 9.953125 -4.695312 9.953125 -3.84375 C 9.953125 -2.550781 9.566406 -1.554688 8.796875 -0.859375 C 8.023438 -0.160156 6.882812 0.1875 5.375 0.1875 Z M 5.375 0.1875 "
           id="path104" />
      </g>
    </g>
  </g>
  <g
     clip-path="url(#d4b1e77484)"
     id="g60">
    <!-- Is the left first -->
    <g
       clip-path="url(#28fcf9cff5)"
       id="g58">
      <!-- <path fill="#2d7bc5"
                d="M 319.199219 444.273438 L 370.746094 444.273438 L 370.746094 495.816406 L 319.199219 495.816406
            Z M 319.199219 444.273438 "
                fill-opacity="1" fill-rule="nonzero" /> -->
      <circle
         cx="345"
         cy="470"
         r="26"
         fill="#2d7bc5"
         fill-opacity="1"
         id="circle56" />
    </g>
  </g>
  <g
     clip-path="url(#6ae076032e)"
     id="g116">
    <!-- Is the right first -->
    <g
       clip-path="url(#a6e8463440)"
       id="g114">
      <!-- <path fill="#2d7bc5"
                d="M 439.199219 444.273438 L 490.746094 444.273438 L 490.746094 495.816406 L 439.199219 495.816406
            Z M 439.199219 444.273438 "
                fill-opacity="1" fill-rule="nonzero" /> -->
      <circle
         cx="465"
         cy="470"
         r="26"
         fill="#2d7bc5"
         fill-opacity="1"
         id="circle112" />
    </g>
  </g>
  <g
     fill="#2d7bc5"
     fill-opacity="1"
     id="g124">
    <g
       transform="translate(459.215581, 476.522684)"
       id="g122">
      <g
         id="g120">
        <path
           d="M 8.484375 0 L 6.984375 0 L 6.984375 -3.234375 L 0.625 -3.234375 L 0.625 -4.515625 L 6.609375 -13.5625 L 8.484375 -13.5625 L 8.484375 -4.515625 L 10.84375 -4.515625 L 10.84375 -3.234375 L 8.484375 -3.234375 Z M 2.5 -4.71875 L 2.578125 -4.515625 L 6.984375 -4.515625 L 6.984375 -11.359375 L 6.765625 -11.390625 Z M 2.5 -4.71875 "
           id="path118" />
      </g>
    </g>
  </g>
  <g
     clip-path="url(#97070265ff)"
     id="g130">
    <!-- Is the rigth second -->
    <g
       clip-path="url(#f7ced0bf2b)"
       id="g128">
      <!-- <path fill="#2d7bc5"
                d="M 439.199219 517.910156 L 490.746094 517.910156 L 490.746094 569.453125 L 439.199219 569.453125
            Z M 439.199219 517.910156 "
                fill-opacity="1" fill-rule="nonzero" /> -->
      <circle
         cx="465"
         cy="543"
         r="26"
         fill="#2d7bc5"
         fill-opacity="1"
         id="circle126" />
    </g>
  </g>
  <g
     fill="#2d7bc5"
     fill-opacity="1"
     id="g138">
    <g
       transform="translate(459.344488, 550.159096)"
       id="g136">
      <g
         id="g134">
        <path
           d="M 5.578125 0.1875 C 4.316406 0.1875 3.304688 -0.09375 2.546875 -0.65625 C 1.785156 -1.21875 1.289062 -2.015625 1.0625 -3.046875 L 2.25 -3.578125 L 2.453125 -3.546875 C 2.609375 -3.015625 2.8125 -2.582031 3.0625 -2.25 C 3.3125 -1.914062 3.640625 -1.664062 4.046875 -1.5 C 4.460938 -1.332031 4.972656 -1.25 5.578125 -1.25 C 6.492188 -1.25 7.207031 -1.519531 7.71875 -2.0625 C 8.226562 -2.613281 8.484375 -3.410156 8.484375 -4.453125 C 8.484375 -5.515625 8.234375 -6.320312 7.734375 -6.875 C 7.234375 -7.425781 6.539062 -7.703125 5.65625 -7.703125 C 4.976562 -7.703125 4.429688 -7.566406 4.015625 -7.296875 C 3.597656 -7.023438 3.226562 -6.609375 2.90625 -6.046875 L 1.625 -6.15625 L 1.890625 -13.5625 L 9.484375 -13.5625 L 9.484375 -12.203125 L 3.28125 -12.203125 L 3.125 -7.703125 L 3.3125 -7.671875 C 3.632812 -8.140625 4.023438 -8.488281 4.484375 -8.71875 C 4.941406 -8.957031 5.492188 -9.078125 6.140625 -9.078125 C 6.953125 -9.078125 7.660156 -8.894531 8.265625 -8.53125 C 8.867188 -8.164062 9.332031 -7.632812 9.65625 -6.9375 C 9.988281 -6.25 10.15625 -5.421875 10.15625 -4.453125 C 10.15625 -3.484375 9.960938 -2.648438 9.578125 -1.953125 C 9.203125 -1.253906 8.671875 -0.722656 7.984375 -0.359375 C 7.296875 0.00390625 6.492188 0.1875 5.578125 0.1875 Z M 5.578125 0.1875 "
           id="path132" />
      </g>
    </g>
  </g>
  <g
     clip-path="url(#5c8ca9d28c)"
     id="g144">
    <!-- Is the rigth third -->
    <g
       clip-path="url(#e1ef2c1c9b)"
       id="g142">
      <!-- <path fill="#2d7bc5"
                d="M 439.199219 591.546875 L 490.746094 591.546875 L 490.746094 643.089844 L 439.199219 643.089844
            Z M 439.199219 591.546875 "
                fill-opacity="1" fill-rule="nonzero" /> -->
      <circle
         cx="465"
         cy="617"
         r="26"
         fill="#2d7bc5"
         fill-opacity="1"
         id="circle140" />
    </g>
  </g>
  <g
     fill="#2d7bc5"
     fill-opacity="1"
     id="g152">
    <g
       transform="translate(458.8523, 623.795485)"
       id="g150">
      <g
         id="g148">
        <path
           d="M 6.46875 0.1875 C 5.507812 0.1875 4.648438 -0.0390625 3.890625 -0.5 C 3.128906 -0.957031 2.519531 -1.707031 2.0625 -2.75 C 1.613281 -3.789062 1.390625 -5.132812 1.390625 -6.78125 C 1.390625 -8.382812 1.613281 -9.707031 2.0625 -10.75 C 2.519531 -11.789062 3.140625 -12.550781 3.921875 -13.03125 C 4.710938 -13.519531 5.613281 -13.765625 6.625 -13.765625 C 8.363281 -13.765625 9.644531 -13.234375 10.46875 -12.171875 L 9.6875 -11.125 L 9.453125 -11.125 C 8.785156 -11.925781 7.84375 -12.328125 6.625 -12.328125 C 5.445312 -12.328125 4.546875 -11.882812 3.921875 -11 C 3.304688 -10.113281 3 -8.695312 3 -6.75 L 3.203125 -6.6875 C 3.566406 -7.457031 4.046875 -8.03125 4.640625 -8.40625 C 5.234375 -8.789062 5.96875 -8.984375 6.84375 -8.984375 C 7.695312 -8.984375 8.4375 -8.800781 9.0625 -8.4375 C 9.695312 -8.070312 10.179688 -7.546875 10.515625 -6.859375 C 10.847656 -6.171875 11.015625 -5.359375 11.015625 -4.421875 C 11.015625 -3.472656 10.828125 -2.648438 10.453125 -1.953125 C 10.085938 -1.265625 9.5625 -0.734375 8.875 -0.359375 C 8.1875 0.00390625 7.382812 0.1875 6.46875 0.1875 Z M 6.46875 -1.25 C 7.375 -1.25 8.078125 -1.519531 8.578125 -2.0625 C 9.085938 -2.601562 9.34375 -3.390625 9.34375 -4.421875 C 9.34375 -5.453125 9.085938 -6.238281 8.578125 -6.78125 C 8.078125 -7.320312 7.375 -7.59375 6.46875 -7.59375 C 5.863281 -7.59375 5.332031 -7.46875 4.875 -7.21875 C 4.425781 -6.96875 4.078125 -6.601562 3.828125 -6.125 C 3.585938 -5.65625 3.46875 -5.085938 3.46875 -4.421875 C 3.46875 -3.753906 3.585938 -3.179688 3.828125 -2.703125 C 4.078125 -2.234375 4.425781 -1.875 4.875 -1.625 C 5.332031 -1.375 5.863281 -1.25 6.46875 -1.25 Z M 6.46875 -1.25 "
           id="path146" />
      </g>
    </g>
  </g>
  <g
     clip-path="url(#2e6eadebb5)"
     id="g158">
    <!-- Is the right fourth -->
    <g
       clip-path="url(#7abc69a30c)"
       id="g156">
      <!-- <path fill="#2d7bc5"
                d="M 439.199219 664.839844 L 490.746094 664.839844 L 490.746094 716.386719 L 439.199219 716.386719
            Z M 439.199219 664.839844 "
                fill-opacity="1" fill-rule="nonzero" /> -->
      <circle
         cx="465"
         cy="690"
         r="26"
         fill="#2d7bc5"
         fill-opacity="1"
         id="circle154" />
    </g>
  </g>
  <g
     fill="#2d7bc5"
     fill-opacity="1"
     id="g166">
    <g
       transform="translate(460.270269, 697.090881)"
       id="g164">
      <g
         id="g162">
        <path
           d="M 3.6875 0 L 2.140625 0 L 7.171875 -12.015625 L 7.109375 -12.203125 L 0.5 -12.203125 L 0.5 -13.5625 L 8.78125 -13.5625 L 8.78125 -12.09375 Z M 3.6875 0 "
           id="path160" />
      </g>
    </g>
  </g>
  <rect
     style="fill:#343b48;stroke:#e8310a;stroke-width:0.75;stroke-opacity:1"
     id="rect1542"
     width="2.6243138"
     height="19.682354"
     x="-305.73254"
     y="-164.01962"
     ry="1.3121569" />
  <text
     xml:space="preserve"
     style="font-style:normal;font-variant:normal;font-weight:normal;font-stretch:normal;font-size:45px;line-height:1.25;font-family:'Century Gothic';-inkscape-font-specification:'Century Gothic, Normal';font-variant-ligatures:normal;font-variant-caps:normal;font-variant-numeric:normal;font-variant-east-asian:normal;fill:#21d61b;fill-opacity:1;stroke:#343b48;stroke-width:1.875;stroke-miterlimit:4;stroke-dasharray:none;stroke-opacity:1"
     x="370.69531"
     y="429.71451"
     id="text7335"><tspan
       sodipodi:role="line"
       id="tspan7333"
       style="font-style:normal;font-variant:normal;font-weight:bold;font-stretch:normal;font-size:45px;font-family:'Century Gothic';-inkscape-font-specification:'Century Gothic, Normal';font-variant-ligatures:normal;font-variant-caps:normal;font-variant-numeric:normal;font-variant-east-asian:normal;fill:#21d61b;fill-opacity:1;stroke:#343b48;stroke-width:1.875;stroke-miterlimit:4;stroke-dasharray:none;stroke-opacity:1"
       x="370.69531"
       y="429.71451">T10</tspan></text>
  <text
     xml:space="preserve"
     style="font-style:normal;font-variant:normal;font-weight:normal;font-stretch:normal;font-size:45px;line-height:1.25;font-family:'Century Gothic';-inkscape-font-specification:'Century Gothic, Normal';font-variant-ligatures:normal;font-variant-caps:normal;font-variant-numeric:normal;font-variant-east-asian:normal;fill:#21d61b;fill-opacity:1;stroke:#343b48;stroke-width:1.875;stroke-miterlimit:4;stroke-dasharray:none;stroke-opacity:1"
     x="374.36475"
     y="503.827"
     id="text7335-1"><tspan
       sodipodi:role="line"
       id="tspan7333-4"
       style="font-style:normal;font-variant:normal;font-weight:bold;font-stretch:normal;font-size:45px;font-family:'Century Gothic';-inkscape-font-specification:'Century Gothic, Normal';font-variant-ligatures:normal;font-variant-caps:normal;font-variant-numeric:normal;font-variant-east-asian:normal;fill:#21d61b;fill-opacity:1;stroke:#343b48;stroke-width:1.875;stroke-miterlimit:4;stroke-dasharray:none;stroke-opacity:1"
       x="374.36475"
       y="503.827">T11</tspan></text>
  <text
     xml:space="preserve"
     style="font-style:normal;font-variant:normal;font-weight:normal;font-stretch:normal;font-size:45px;line-height:1.25;font-family:'Century Gothic';-inkscape-font-specification:'Century Gothic, Normal';font-variant-ligatures:normal;font-variant-caps:normal;font-variant-numeric:normal;font-variant-east-asian:normal;fill:#21d61b;fill-opacity:1;stroke:#343b48;stroke-width:1.875;stroke-miterlimit:4;stroke-dasharray:none;stroke-opacity:1"
     x="370.99194"
     y="577.93951"
     id="text7335-9"><tspan
       sodipodi:role="line"
       id="tspan7333-6"
       style="font-style:normal;font-variant:normal;font-weight:bold;font-stretch:normal;font-size:45px;font-family:'Century Gothic';-inkscape-font-specification:'Century Gothic, Normal';font-variant-ligatures:normal;font-variant-caps:normal;font-variant-numeric:normal;font-variant-east-asian:normal;fill:#21d61b;fill-opacity:1;stroke:#343b48;stroke-width:1.875;stroke-miterlimit:4;stroke-dasharray:none;stroke-opacity:1"
       x="370.99194"
       y="577.93951">T12</tspan></text>
  <text
     xml:space="preserve"
     style="font-style:normal;font-variant:normal;font-weight:normal;font-stretch:normal;font-size:45px;line-height:1.25;font-family:'Century Gothic';-inkscape-font-specification:'Century Gothic, Normal';font-variant-ligatures:normal;font-variant-caps:normal;font-variant-numeric:normal;font-variant-east-asian:normal;fill:#21d61b;fill-opacity:1;stroke:#343b48;stroke-width:1.875;stroke-miterlimit:4;stroke-dasharray:none;stroke-opacity:1"
     x="384.92261"
     y="651.23901"
     id="text7335-7"><tspan
       sodipodi:role="line"
       id="tspan7333-41"
       style="font-style:normal;font-variant:normal;font-weight:bold;font-stretch:normal;font-size:45px;font-family:'Century Gothic';-inkscape-font-specification:'Century Gothic, Normal';font-variant-ligatures:normal;font-variant-caps:normal;font-variant-numeric:normal;font-variant-east-asian:normal;fill:#21d61b;fill-opacity:1;stroke:#343b48;stroke-width:1.875;stroke-miterlimit:4;stroke-dasharray:none;stroke-opacity:1"
       x="384.92261"
       y="651.23901">L1</tspan></text>
  <text
     xml:space="preserve"
     style="font-style:normal;font-variant:normal;font-weight:normal;font-stretch:normal;font-size:45px;line-height:1.25;font-family:'Century Gothic';-inkscape-font-specification:'Century Gothic, Normal';font-variant-ligatures:normal;font-variant-caps:normal;font-variant-numeric:normal;font-variant-east-asian:normal;fill:#21d61b;fill-opacity:1;stroke:#343b48;stroke-width:1.875;stroke-miterlimit:4;stroke-dasharray:none;stroke-opacity:1"
     x="381.5498"
     y="725.3515"
     id="text7335-14"><tspan
       sodipodi:role="line"
       id="tspan7333-8"
       style="font-style:normal;font-variant:normal;font-weight:bold;font-stretch:normal;font-size:45px;font-family:'Century Gothic';-inkscape-font-specification:'Century Gothic, Normal';font-variant-ligatures:normal;font-variant-caps:normal;font-variant-numeric:normal;font-variant-east-asian:normal;fill:#21d61b;fill-opacity:1;stroke:#343b48;stroke-width:1.875;stroke-miterlimit:4;stroke-dasharray:none;stroke-opacity:1"
       x="381.5498"
       y="725.3515">L2</tspan></text>
</svg>
