<svg xmlns="http://www.w3.org/2000/svg" xmlns:xlink="http://www.w3.org/1999/xlink" width="1080"
    zoomAndPan="magnify" viewBox="0 0 810 809.999993" height="1080"
    preserveAspectRatio="xMidYMid meet" version="1.0">
    <defs>
        <g />
        <clipPath id="6ad8491199">
            <path
                d="M 379.199219 444.273438 L 430.746094 444.273438 L 430.746094 495.816406 L 379.199219 495.816406 Z M 379.199219 444.273438 "
                clip-rule="nonzero" />
        </clipPath>
        <clipPath id="a1c2783553">
            <path
                d="M 404.972656 444.273438 C 390.738281 444.273438 379.199219 455.8125 379.199219 470.046875 C 379.199219 484.28125 390.738281 495.816406 404.972656 495.816406 C 419.207031 495.816406 430.746094 484.28125 430.746094 470.046875 C 430.746094 455.8125 419.207031 444.273438 404.972656 444.273438 Z M 404.972656 444.273438 "
                clip-rule="nonzero" />
        </clipPath>
        <clipPath id="4d4247da15">
            <path
                d="M 379.199219 517.910156 L 430.746094 517.910156 L 430.746094 569.453125 L 379.199219 569.453125 Z M 379.199219 517.910156 "
                clip-rule="nonzero" />
        </clipPath>
        <clipPath id="0fef46778a">
            <path
                d="M 404.972656 517.910156 C 390.738281 517.910156 379.199219 529.449219 379.199219 543.683594 C 379.199219 557.914062 390.738281 569.453125 404.972656 569.453125 C 419.207031 569.453125 430.746094 557.914062 430.746094 543.683594 C 430.746094 529.449219 419.207031 517.910156 404.972656 517.910156 Z M 404.972656 517.910156 "
                clip-rule="nonzero" />
        </clipPath>
        <clipPath id="841f8b9a70">
            <path
                d="M 379.199219 591.203125 L 430.746094 591.203125 L 430.746094 642.75 L 379.199219 642.75 Z M 379.199219 591.203125 "
                clip-rule="nonzero" />
        </clipPath>
        <clipPath id="692fdfe476">
            <path
                d="M 404.972656 591.203125 C 390.738281 591.203125 379.199219 602.742188 379.199219 616.976562 C 379.199219 631.210938 390.738281 642.75 404.972656 642.75 C 419.207031 642.75 430.746094 631.210938 430.746094 616.976562 C 430.746094 602.742188 419.207031 591.203125 404.972656 591.203125 Z M 404.972656 591.203125 "
                clip-rule="nonzero" />
        </clipPath>
        <clipPath id="35177f8847">
            <path
                d="M 379.226562 664.839844 L 430.773438 664.839844 L 430.773438 716.386719 L 379.226562 716.386719 Z M 379.226562 664.839844 "
                clip-rule="nonzero" />
        </clipPath>
        <clipPath id="d4ecd73285">
            <path
                d="M 405 664.839844 C 390.765625 664.839844 379.226562 676.378906 379.226562 690.613281 C 379.226562 704.847656 390.765625 716.386719 405 716.386719 C 419.234375 716.386719 430.773438 704.847656 430.773438 690.613281 C 430.773438 676.378906 419.234375 664.839844 405 664.839844 Z M 405 664.839844 "
                clip-rule="nonzero" />
        </clipPath>
    </defs>
    <path fill="#c3ccdf"
        d="M 316.566406 -0.171875 C 315.75 -0.15625 314.945312 -0.0664062 314.144531 0.105469 C 313.347656 0.277344 312.574219 0.523438 311.824219 0.847656 C 311.078125 1.171875 310.367188 1.566406 309.695312 2.03125 C 309.023438 2.492188 308.402344 3.015625 307.835938 3.601562 C 307.265625 4.1875 306.757812 4.824219 306.316406 5.507812 C 305.871094 6.195312 305.5 6.914062 305.199219 7.671875 C 304.898438 8.433594 304.671875 9.210938 304.523438 10.015625 C 304.375 10.816406 304.308594 11.625 304.320312 12.441406 L 304.320312 23.742188 C 304.320312 46.3125 294.238281 60.234375 277.585938 71.933594 C 260.9375 83.632812 237.605469 91.542969 215.253906 97.328125 C 200.957031 101.027344 187.101562 103.917969 175.375 106.855469 C 175.316406 106.863281 175.261719 106.871094 175.203125 106.878906 C 152.058594 113.046875 129.089844 122.558594 110.78125 137.621094 C 92.472656 152.679688 79.011719 174.039062 77.171875 200.875 L 72.3125 272.007812 L 72.238281 272.882812 L 65.945312 364.742188 C 65.9375 364.832031 65.925781 364.921875 65.921875 365.007812 L 56.734375 563.019531 C 56.726562 563.050781 56.71875 563.082031 56.710938 563.117188 C 56.015625 580.96875 58.726562 598.789062 64.65625 615.65625 C 64.816406 616.113281 65.003906 616.558594 65.214844 616.992188 L 155.570312 801.757812 C 156.066406 802.769531 156.6875 803.695312 157.4375 804.535156 C 158.183594 805.378906 159.03125 806.105469 159.976562 806.71875 C 160.921875 807.332031 161.933594 807.804688 163.007812 808.144531 C 164.082031 808.480469 165.183594 808.667969 166.308594 808.707031 C 166.390625 808.714844 166.472656 808.722656 166.554688 808.730469 C 167 808.804688 167.453125 808.855469 167.90625 808.882812 C 168.359375 808.90625 168.8125 808.90625 169.265625 808.882812 C 169.71875 808.859375 170.167969 808.808594 170.617188 808.734375 C 171.0625 808.660156 171.507812 808.5625 171.941406 808.441406 C 172.378906 808.320312 172.808594 808.171875 173.230469 808.003906 C 173.652344 807.835938 174.0625 807.644531 174.460938 807.429688 C 174.863281 807.214844 175.25 806.980469 175.625 806.722656 C 176 806.46875 176.359375 806.191406 176.703125 805.894531 C 177.046875 805.601562 177.375 805.285156 177.683594 804.953125 C 177.996094 804.621094 178.285156 804.277344 178.558594 803.910156 C 178.828125 803.546875 179.082031 803.171875 179.3125 802.78125 C 179.542969 802.390625 179.75 801.988281 179.9375 801.574219 C 180.125 801.160156 180.289062 800.738281 180.425781 800.304688 C 180.566406 799.875 180.683594 799.4375 180.777344 798.992188 C 180.871094 798.546875 180.9375 798.097656 180.980469 797.648438 C 181.023438 797.195312 181.042969 796.742188 181.035156 796.289062 C 181.035156 732.578125 228.839844 659.058594 228.839844 659.058594 C 229.039062 658.757812 229.222656 658.449219 229.398438 658.136719 C 266.703125 590.125 255.378906 554.878906 245.484375 509.917969 C 221.542969 401.109375 214.039062 382.753906 202.640625 350.210938 C 202.242188 349.019531 201.679688 347.917969 200.949219 346.898438 C 200.214844 345.878906 199.351562 344.992188 198.351562 344.238281 C 197.351562 343.480469 196.261719 342.886719 195.085938 342.460938 C 193.90625 342.03125 192.691406 341.789062 191.4375 341.730469 C 190.925781 341.703125 190.414062 341.710938 189.90625 341.746094 C 189.394531 341.785156 188.886719 341.855469 188.386719 341.953125 C 187.882812 342.054688 187.390625 342.183594 186.902344 342.347656 C 186.417969 342.507812 185.945312 342.699219 185.480469 342.917969 C 185.019531 343.136719 184.570312 343.382812 184.140625 343.660156 C 183.707031 343.933594 183.292969 344.234375 182.898438 344.5625 C 182.503906 344.886719 182.132812 345.234375 181.78125 345.609375 C 181.429688 345.980469 181.101562 346.371094 180.796875 346.785156 C 180.492188 347.195312 180.21875 347.625 179.96875 348.074219 C 179.714844 348.519531 179.496094 348.980469 179.300781 349.453125 C 179.109375 349.929688 178.945312 350.410156 178.808594 350.90625 C 178.675781 351.398438 178.574219 351.902344 178.5 352.40625 C 178.429688 352.914062 178.390625 353.425781 178.378906 353.9375 C 178.371094 354.449219 178.394531 354.957031 178.449219 355.46875 C 178.5 355.976562 178.585938 356.480469 178.703125 356.980469 C 178.820312 357.476562 178.964844 357.96875 179.140625 358.449219 C 184.246094 373.019531 188.515625 385.050781 193.601562 402.265625 L 157.757812 551.886719 C 157.664062 552.296875 157.589844 552.710938 157.539062 553.128906 C 156.46875 561.105469 157.101562 569.234375 159.433594 576.96875 C 159.609375 577.558594 159.828125 578.132812 160.089844 578.691406 L 198.703125 660.613281 C 187.460938 679.953125 169.171875 715.523438 160.695312 755.585938 L 88.109375 607.175781 C 83.269531 593.328125 81.027344 578.75 81.59375 564.113281 C 81.59375 564.113281 81.59375 564.085938 81.59375 564.085938 L 90.78125 366.296875 L 97.050781 274.582031 L 102.007812 202.578125 C 103.363281 182.792969 112.28125 168.601562 126.578125 156.84375 C 140.832031 145.117188 160.617188 136.550781 181.425781 130.984375 L 181.523438 130.960938 C 181.546875 130.953125 181.570312 130.945312 181.597656 130.9375 C 192.292969 128.265625 206.039062 125.359375 220.648438 121.605469 C 220.746094 121.582031 220.84375 121.558594 220.941406 121.53125 C 221.140625 121.480469 221.273438 121.460938 221.476562 121.410156 C 221.570312 121.386719 221.667969 121.363281 221.765625 121.335938 C 222.152344 121.234375 222.535156 121.113281 222.910156 120.972656 C 246.011719 114.933594 271.226562 106.824219 291.902344 92.296875 C 312.984375 77.480469 329.203125 54.488281 329.203125 23.742188 L 329.203125 12.441406 C 329.214844 11.609375 329.144531 10.785156 328.988281 9.96875 C 328.835938 9.148438 328.601562 8.355469 328.289062 7.582031 C 327.972656 6.8125 327.585938 6.082031 327.125 5.386719 C 326.664062 4.691406 326.140625 4.050781 325.550781 3.464844 C 324.960938 2.875 324.320312 2.351562 323.625 1.894531 C 322.933594 1.433594 322.199219 1.046875 321.425781 0.738281 C 320.65625 0.425781 319.859375 0.191406 319.042969 0.0390625 C 318.222656 -0.113281 317.398438 -0.183594 316.566406 -0.171875 Z M 491.902344 -0.171875 C 491.085938 -0.15625 490.28125 -0.0664062 489.480469 0.105469 C 488.683594 0.277344 487.910156 0.523438 487.160156 0.847656 C 486.414062 1.171875 485.703125 1.566406 485.03125 2.03125 C 484.359375 2.492188 483.738281 3.015625 483.167969 3.601562 C 482.601562 4.1875 482.09375 4.824219 481.652344 5.507812 C 481.207031 6.195312 480.835938 6.914062 480.535156 7.671875 C 480.234375 8.433594 480.007812 9.210938 479.859375 10.015625 C 479.710938 10.816406 479.644531 11.625 479.65625 12.441406 L 479.65625 23.742188 C 479.65625 54.488281 495.871094 77.480469 516.957031 92.296875 C 537.785156 106.933594 563.238281 115.113281 586.484375 121.167969 C 586.773438 121.257812 587.0625 121.339844 587.359375 121.410156 C 587.757812 121.527344 588.164062 121.625 588.574219 121.703125 C 603.007812 125.398438 616.648438 128.292969 627.238281 130.9375 C 627.238281 130.9375 627.261719 130.9375 627.261719 130.9375 C 648.128906 136.5 667.964844 145.085938 682.257812 156.84375 C 696.550781 168.601562 705.492188 182.792969 706.851562 202.578125 L 711.734375 273.707031 L 711.78125 274.582031 L 718.078125 366.320312 L 727.261719 564.183594 C 727.824219 578.78125 725.589844 593.316406 720.773438 607.125 L 648.988281 753.929688 C 640.363281 714.535156 622.386719 679.691406 611.296875 660.613281 L 649.910156 578.691406 C 650.171875 578.132812 650.390625 577.558594 650.566406 576.96875 C 652.898438 569.234375 653.53125 561.105469 652.460938 553.128906 C 652.410156 552.710938 652.335938 552.296875 652.242188 551.886719 L 616.398438 402.265625 C 621.484375 385.050781 625.753906 373.019531 630.859375 358.449219 C 631.027344 357.984375 631.167969 357.511719 631.285156 357.03125 C 631.398438 356.554688 631.480469 356.066406 631.539062 355.578125 C 631.59375 355.085938 631.621094 354.597656 631.617188 354.101562 C 631.613281 353.609375 631.582031 353.117188 631.523438 352.628906 C 631.460938 352.140625 631.371094 351.65625 631.25 351.175781 C 631.132812 350.695312 630.988281 350.226562 630.8125 349.765625 C 630.636719 349.304688 630.4375 348.855469 630.207031 348.417969 C 629.980469 347.980469 629.726562 347.558594 629.449219 347.148438 C 629.171875 346.742188 628.867188 346.351562 628.542969 345.980469 C 628.21875 345.609375 627.875 345.257812 627.507812 344.929688 C 627.140625 344.597656 626.757812 344.292969 626.355469 344.007812 C 625.953125 343.722656 625.53125 343.460938 625.097656 343.226562 C 624.664062 342.992188 624.21875 342.785156 623.761719 342.601562 C 623.300781 342.421875 622.835938 342.265625 622.355469 342.140625 C 621.878906 342.011719 621.398438 341.917969 620.910156 341.847656 C 620.421875 341.777344 619.929688 341.738281 619.4375 341.730469 C 618.777344 341.714844 618.121094 341.75 617.46875 341.839844 C 616.8125 341.929688 616.171875 342.070312 615.539062 342.261719 C 614.910156 342.453125 614.296875 342.695312 613.703125 342.984375 C 613.109375 343.273438 612.542969 343.605469 612.003906 343.984375 C 611.464844 344.363281 610.957031 344.785156 610.484375 345.242188 C 610.011719 345.703125 609.578125 346.195312 609.183594 346.726562 C 608.789062 347.253906 608.4375 347.8125 608.132812 348.394531 C 607.828125 348.980469 607.570312 349.585938 607.359375 350.210938 C 595.960938 382.753906 588.457031 401.109375 564.515625 509.917969 C 554.621094 554.878906 543.296875 590.125 580.601562 658.136719 C 580.777344 658.449219 580.960938 658.757812 581.160156 659.058594 C 581.160156 659.058594 628.964844 732.578125 628.964844 796.289062 C 628.953125 796.996094 629.003906 797.695312 629.113281 798.394531 C 629.222656 799.089844 629.390625 799.773438 629.617188 800.441406 C 629.84375 801.109375 630.121094 801.757812 630.457031 802.375 C 630.792969 802.996094 631.179688 803.585938 631.617188 804.140625 C 632.050781 804.695312 632.53125 805.210938 633.054688 805.683594 C 633.578125 806.160156 634.136719 806.585938 634.730469 806.960938 C 635.328125 807.339844 635.953125 807.667969 636.601562 807.9375 C 637.253906 808.210938 637.921875 808.425781 638.609375 808.585938 C 638.78125 808.628906 638.949219 808.671875 639.121094 808.707031 C 639.816406 808.871094 640.519531 808.972656 641.234375 809.015625 C 641.945312 809.058594 642.65625 809.039062 643.367188 808.957031 C 644.074219 808.878906 644.773438 808.738281 645.457031 808.539062 C 646.144531 808.335938 646.808594 808.078125 647.449219 807.765625 C 648.089844 807.449219 648.699219 807.082031 649.277344 806.664062 C 649.855469 806.246094 650.390625 805.78125 650.890625 805.265625 C 651.386719 804.753906 651.835938 804.203125 652.242188 803.617188 C 652.644531 803.027344 652.992188 802.40625 653.289062 801.757812 L 743.640625 617.015625 C 743.855469 616.582031 744.039062 616.136719 744.199219 615.679688 C 750.132812 598.8125 752.820312 580.996094 752.125 563.140625 C 752.125 563.109375 752.125 563.074219 752.125 563.042969 L 742.9375 365.035156 C 742.929688 364.945312 742.921875 364.855469 742.914062 364.765625 L 736.644531 273.390625 C 736.640625 273.222656 736.628906 273.050781 736.617188 272.882812 L 731.660156 200.875 C 729.820312 174.039062 716.359375 152.679688 698.050781 137.621094 C 679.746094 122.558594 656.800781 113.046875 633.652344 106.878906 C 633.589844 106.871094 633.523438 106.863281 633.457031 106.855469 C 621.730469 103.917969 607.898438 101.027344 593.605469 97.328125 C 571.253906 91.542969 547.898438 83.632812 531.246094 71.933594 C 514.597656 60.234375 504.539062 46.3125 504.539062 23.742188 L 504.539062 12.441406 C 504.550781 11.609375 504.480469 10.785156 504.324219 9.96875 C 504.171875 9.148438 503.9375 8.355469 503.625 7.582031 C 503.308594 6.8125 502.921875 6.078125 502.460938 5.386719 C 502 4.691406 501.476562 4.050781 500.886719 3.464844 C 500.296875 2.875 499.65625 2.351562 498.960938 1.894531 C 498.269531 1.433594 497.535156 1.046875 496.761719 0.738281 C 495.992188 0.425781 495.195312 0.191406 494.378906 0.0390625 C 493.558594 -0.113281 492.734375 -0.183594 491.902344 -0.171875 Z M 181.035156 298.617188 C 180.21875 298.617188 179.410156 298.695312 178.609375 298.855469 C 177.808594 299.015625 177.03125 299.253906 176.273438 299.566406 C 175.519531 299.878906 174.804688 300.261719 174.125 300.714844 C 173.445312 301.167969 172.816406 301.683594 172.238281 302.261719 C 171.660156 302.839844 171.144531 303.46875 170.691406 304.148438 C 170.238281 304.828125 169.855469 305.542969 169.542969 306.296875 C 169.230469 307.054688 168.992188 307.832031 168.832031 308.632812 C 168.675781 309.433594 168.59375 310.242188 168.59375 311.058594 C 168.59375 311.875 168.675781 312.6875 168.832031 313.488281 C 168.992188 314.289062 169.230469 315.066406 169.542969 315.820312 C 169.855469 316.578125 170.238281 317.292969 170.691406 317.972656 C 171.144531 318.652344 171.660156 319.28125 172.238281 319.859375 C 172.816406 320.4375 173.445312 320.953125 174.125 321.40625 C 174.804688 321.859375 175.519531 322.242188 176.273438 322.554688 C 177.03125 322.867188 177.808594 323.105469 178.609375 323.261719 C 179.410156 323.421875 180.21875 323.503906 181.035156 323.503906 C 181.855469 323.503906 182.664062 323.421875 183.464844 323.261719 C 184.265625 323.105469 185.042969 322.867188 185.796875 322.554688 C 186.554688 322.242188 187.269531 321.859375 187.949219 321.40625 C 188.628906 320.953125 189.257812 320.4375 189.835938 319.859375 C 190.414062 319.28125 190.929688 318.652344 191.382812 317.972656 C 191.835938 317.292969 192.21875 316.578125 192.53125 315.820312 C 192.84375 315.066406 193.082031 314.289062 193.238281 313.488281 C 193.398438 312.6875 193.480469 311.875 193.480469 311.058594 C 193.480469 310.242188 193.398438 309.433594 193.238281 308.632812 C 193.082031 307.832031 192.84375 307.054688 192.53125 306.296875 C 192.21875 305.542969 191.835938 304.828125 191.382812 304.148438 C 190.929688 303.46875 190.414062 302.839844 189.835938 302.261719 C 189.257812 301.683594 188.628906 301.167969 187.949219 300.714844 C 187.269531 300.261719 186.554688 299.878906 185.796875 299.566406 C 185.042969 299.253906 184.265625 299.015625 183.464844 298.855469 C 182.664062 298.695312 181.855469 298.617188 181.035156 298.617188 Z M 628.964844 298.617188 C 628.144531 298.617188 627.335938 298.695312 626.535156 298.855469 C 625.734375 299.015625 624.957031 299.253906 624.203125 299.566406 C 623.445312 299.878906 622.730469 300.261719 622.050781 300.714844 C 621.371094 301.167969 620.742188 301.683594 620.164062 302.261719 C 619.585938 302.839844 619.070312 303.46875 618.617188 304.148438 C 618.164062 304.828125 617.78125 305.542969 617.46875 306.296875 C 617.15625 307.054688 616.917969 307.832031 616.761719 308.632812 C 616.601562 309.433594 616.519531 310.242188 616.519531 311.058594 C 616.519531 311.875 616.601562 312.6875 616.757812 313.488281 C 616.917969 314.289062 617.15625 315.066406 617.46875 315.820312 C 617.78125 316.578125 618.164062 317.292969 618.617188 317.972656 C 619.070312 318.652344 619.585938 319.28125 620.164062 319.859375 C 620.742188 320.4375 621.371094 320.953125 622.050781 321.40625 C 622.730469 321.859375 623.445312 322.242188 624.203125 322.554688 C 624.957031 322.867188 625.734375 323.105469 626.535156 323.261719 C 627.335938 323.421875 628.144531 323.503906 628.964844 323.503906 C 629.78125 323.503906 630.589844 323.421875 631.390625 323.261719 C 632.191406 323.105469 632.96875 322.867188 633.722656 322.554688 C 634.480469 322.242188 635.195312 321.859375 635.875 321.40625 C 636.554688 320.953125 637.183594 320.4375 637.761719 319.859375 C 638.339844 319.28125 638.855469 318.652344 639.308594 317.972656 C 639.761719 317.292969 640.144531 316.578125 640.457031 315.820312 C 640.769531 315.066406 641.007812 314.289062 641.167969 313.488281 C 641.324219 312.6875 641.40625 311.875 641.40625 311.058594 C 641.40625 310.242188 641.324219 309.433594 641.167969 308.632812 C 641.007812 307.832031 640.769531 307.054688 640.457031 306.296875 C 640.144531 305.542969 639.761719 304.828125 639.308594 304.148438 C 638.855469 303.46875 638.339844 302.839844 637.761719 302.261719 C 637.183594 301.683594 636.554688 301.167969 635.875 300.714844 C 635.195312 300.261719 634.480469 299.878906 633.722656 299.566406 C 632.96875 299.253906 632.191406 299.015625 631.390625 298.855469 C 630.589844 298.695312 629.78125 298.617188 628.964844 298.617188 Z M 405 385.714844 L 395.035156 390.71875 L 393.066406 401.679688 L 400.675781 409.820312 L 405 410.597656 L 414.964844 405.59375 L 416.933594 394.632812 L 409.324219 386.492188 Z M 405 435.484375 L 395.035156 440.488281 L 393.066406 451.449219 L 400.675781 459.589844 L 405 460.367188 L 414.964844 455.363281 L 416.933594 444.402344 L 409.324219 436.261719 Z M 206.992188 453.222656 C 210.996094 469.917969 215.542969 489.636719 221.183594 515.265625 C 230.738281 558.6875 240.398438 580.101562 213.648438 634.027344 L 183.222656 569.410156 C 182.03125 565.265625 181.675781 560.90625 182.226562 556.601562 Z M 603.007812 453.222656 L 627.773438 556.601562 C 628.324219 560.90625 627.96875 565.265625 626.777344 569.410156 L 596.351562 634.027344 C 569.601562 580.101562 579.261719 558.6875 588.816406 515.265625 C 594.457031 489.636719 599.003906 469.917969 603.007812 453.222656 Z M 405 485.253906 L 395.035156 490.257812 L 393.066406 501.21875 L 400.675781 509.359375 L 405 510.136719 L 414.964844 505.132812 L 416.933594 494.171875 L 409.324219 486.03125 Z M 405 535.023438 L 395.035156 540.027344 L 393.066406 550.988281 L 400.675781 559.128906 L 405 559.90625 L 414.964844 554.902344 L 416.933594 543.941406 L 409.324219 535.800781 Z M 405 584.792969 L 395.035156 589.796875 L 393.066406 600.757812 L 400.675781 608.898438 L 405 609.675781 L 414.964844 604.671875 L 416.933594 593.710938 L 409.324219 585.570312 Z M 405 634.5625 L 395.035156 639.570312 L 393.066406 650.527344 L 400.675781 658.667969 L 405 659.445312 L 414.964844 654.441406 L 416.933594 643.480469 L 409.324219 635.339844 Z M 405 684.332031 L 395.035156 689.339844 L 393.066406 700.296875 L 400.675781 708.4375 L 405 709.214844 L 414.964844 704.210938 L 416.933594 693.25 L 409.324219 685.109375 Z M 405 734.101562 L 395.035156 739.109375 L 393.066406 750.066406 L 400.675781 758.207031 L 405 758.984375 L 414.964844 753.980469 L 416.933594 743.019531 L 409.324219 734.878906 Z M 405 734.101562 "
        fill-opacity="1" fill-rule="nonzero" />
    <g clip-path="url(#6ad8491199)">
        <!-- Is the first mid -->
        <g clip-path="url(#a1c2783553)">
            <!-- <path fill="#2d7bc5"
                d="M 379.199219 444.273438 L 430.746094 444.273438 L 430.746094 495.816406 L 379.199219 495.816406
            Z M 379.199219 444.273438 "
                fill-opacity="1" fill-rule="nonzero" /> -->
            <circle cx="405" cy="470" r="26" fill="#2d7bc5" fill-opacity="1" />
        </g>
    </g>
    <g fill="#2d7bc5" fill-opacity="1">
        <g transform="translate(398.289827, 476.522804)">
            <g>
                <path
                    d="M 6.671875 0.1875 C 5.671875 0.1875 4.773438 -0.0507812 3.984375 -0.53125 C 3.191406 -1.007812 2.5625 -1.769531 2.09375 -2.8125 C 1.625 -3.851562 1.390625 -5.175781 1.390625 -6.78125 C 1.390625 -8.382812 1.625 -9.707031 2.09375 -10.75 C 2.5625 -11.800781 3.191406 -12.566406 3.984375 -13.046875 C 4.773438 -13.523438 5.671875 -13.765625 6.671875 -13.765625 C 7.671875 -13.765625 8.566406 -13.523438 9.359375 -13.046875 C 10.148438 -12.566406 10.773438 -11.800781 11.234375 -10.75 C 11.703125 -9.707031 11.9375 -8.382812 11.9375 -6.78125 C 11.9375 -5.175781 11.703125 -3.851562 11.234375 -2.8125 C 10.773438 -1.769531 10.148438 -1.007812 9.359375 -0.53125 C 8.566406 -0.0507812 7.671875 0.1875 6.671875 0.1875 Z M 6.671875 -1.28125 C 7.847656 -1.28125 8.738281 -1.703125 9.34375 -2.546875 C 9.957031 -3.398438 10.265625 -4.8125 10.265625 -6.78125 C 10.265625 -8.75 9.957031 -10.15625 9.34375 -11 C 8.738281 -11.851562 7.847656 -12.28125 6.671875 -12.28125 C 5.890625 -12.28125 5.234375 -12.097656 4.703125 -11.734375 C 4.171875 -11.378906 3.765625 -10.796875 3.484375 -9.984375 C 3.203125 -9.179688 3.0625 -8.113281 3.0625 -6.78125 C 3.0625 -5.445312 3.203125 -4.375 3.484375 -3.5625 C 3.765625 -2.757812 4.171875 -2.175781 4.703125 -1.8125 C 5.234375 -1.457031 5.890625 -1.28125 6.671875 -1.28125 Z M 6.671875 -1.28125 " />
            </g>
        </g>
    </g>
    <g clip-path="url(#4d4247da15)">
        <!-- Is the second mid -->
        <g clip-path="url(#0fef46778a)">
            <!-- <path fill="#2d7bc5"
                d="M 379.199219 517.910156 L 430.746094 517.910156 L 430.746094 569.453125 L 379.199219 569.453125
            Z M 379.199219 517.910156 "
                fill-opacity="1" fill-rule="nonzero" /> -->
            <circle cx="405" cy="543" r="26" fill="#2d7bc5" fill-opacity="1" />
        </g>
    </g>
    <g fill="#2d7bc5" fill-opacity="1">
        <g transform="translate(399.907015, 550.158976)">
            <g>
                <path
                    d="M 0.96875 0 L 0.96875 -1.3125 L 4.671875 -1.3125 L 4.671875 -11.6875 L 4.453125 -11.75 C 3.847656 -11.445312 3.320312 -11.21875 2.875 -11.0625 C 2.425781 -10.90625 1.847656 -10.753906 1.140625 -10.609375 L 1.140625 -12.0625 C 1.835938 -12.21875 2.523438 -12.421875 3.203125 -12.671875 C 3.890625 -12.921875 4.515625 -13.21875 5.078125 -13.5625 L 6.21875 -13.5625 L 6.21875 -1.3125 L 9.53125 -1.3125 L 9.53125 0 Z M 0.96875 0 " />
            </g>
        </g>
    </g>
    <g clip-path="url(#841f8b9a70)">
        <!-- Is the third mid -->
        <g clip-path="url(#692fdfe476)">
            <!-- <path fill="#2d7bc5"
                d="M 379.199219 591.203125 L 430.746094 591.203125 L 430.746094 642.75 L 379.199219 642.75 Z M
            379.199219 591.203125 "
                fill-opacity="1" fill-rule="nonzero" /> -->
            <circle cx="405" cy="617" r="26" fill="#2d7bc5" fill-opacity="1" />
        </g>
    </g>
    <g fill="#2d7bc5" fill-opacity="1">
        <g transform="translate(399.742952, 623.454589)">
            <g>
                <path
                    d="M 0.8125 -0.625 C 0.8125 -1.375 0.894531 -1.976562 1.0625 -2.4375 C 1.226562 -2.894531 1.507812 -3.320312 1.90625 -3.71875 C 2.300781 -4.113281 2.929688 -4.625 3.796875 -5.25 L 5.28125 -6.34375 C 5.832031 -6.738281 6.28125 -7.101562 6.625 -7.4375 C 6.976562 -7.78125 7.253906 -8.148438 7.453125 -8.546875 C 7.648438 -8.953125 7.75 -9.40625 7.75 -9.90625 C 7.75 -10.707031 7.535156 -11.3125 7.109375 -11.71875 C 6.679688 -12.125 6.015625 -12.328125 5.109375 -12.328125 C 4.390625 -12.328125 3.75 -12.160156 3.1875 -11.828125 C 2.632812 -11.492188 2.191406 -11.019531 1.859375 -10.40625 L 1.65625 -10.375 L 0.703125 -11.375 C 1.148438 -12.113281 1.75 -12.695312 2.5 -13.125 C 3.25 -13.550781 4.117188 -13.765625 5.109375 -13.765625 C 6.078125 -13.765625 6.878906 -13.597656 7.515625 -13.265625 C 8.148438 -12.941406 8.617188 -12.488281 8.921875 -11.90625 C 9.222656 -11.332031 9.375 -10.664062 9.375 -9.90625 C 9.375 -9.289062 9.25 -8.71875 9 -8.1875 C 8.75 -7.664062 8.390625 -7.171875 7.921875 -6.703125 C 7.460938 -6.242188 6.878906 -5.757812 6.171875 -5.25 L 4.671875 -4.140625 C 4.109375 -3.734375 3.671875 -3.382812 3.359375 -3.09375 C 3.054688 -2.800781 2.835938 -2.515625 2.703125 -2.234375 C 2.566406 -1.960938 2.5 -1.65625 2.5 -1.3125 L 9.375 -1.3125 L 9.375 0 L 0.8125 0 Z M 0.8125 -0.625 " />
            </g>
        </g>
    </g>
    <g clip-path="url(#35177f8847)">
        <!-- Is the fourth mid -->
        <g clip-path="url(#d4ecd73285)">
            <!-- <path fill="#2d7bc5"
                d="M 379.226562 664.839844 L 430.773438 664.839844 L 430.773438 716.386719 L 379.226562 716.386719 Z M 379.226562 664.839844 "
                fill-opacity="1" fill-rule="nonzero" /> -->
            <circle cx="405" cy="690" r="26" fill="#2d7bc5" fill-opacity="1" />
        </g>
    </g>
    <g fill="#2d7bc5" fill-opacity="1">
        <g transform="translate(399.477259, 697.091001)">
            <g>
                <path
                    d="M 5.375 0.1875 C 4.050781 0.1875 3.003906 -0.109375 2.234375 -0.703125 C 1.460938 -1.296875 0.960938 -2.113281 0.734375 -3.15625 L 1.921875 -3.703125 L 2.140625 -3.671875 C 2.367188 -2.859375 2.726562 -2.25 3.21875 -1.84375 C 3.71875 -1.445312 4.4375 -1.25 5.375 -1.25 C 6.332031 -1.25 7.0625 -1.46875 7.5625 -1.90625 C 8.0625 -2.34375 8.3125 -2.988281 8.3125 -3.84375 C 8.3125 -4.675781 8.054688 -5.3125 7.546875 -5.75 C 7.035156 -6.1875 6.234375 -6.40625 5.140625 -6.40625 L 3.671875 -6.40625 L 3.671875 -7.734375 L 4.984375 -7.734375 C 5.835938 -7.734375 6.515625 -7.941406 7.015625 -8.359375 C 7.523438 -8.785156 7.78125 -9.382812 7.78125 -10.15625 C 7.78125 -10.894531 7.5625 -11.445312 7.125 -11.8125 C 6.6875 -12.175781 6.070312 -12.359375 5.28125 -12.359375 C 3.914062 -12.359375 2.941406 -11.816406 2.359375 -10.734375 L 2.15625 -10.703125 L 1.265625 -11.671875 C 1.628906 -12.296875 2.15625 -12.800781 2.84375 -13.1875 C 3.53125 -13.570312 4.34375 -13.765625 5.28125 -13.765625 C 6.15625 -13.765625 6.894531 -13.628906 7.5 -13.359375 C 8.113281 -13.085938 8.578125 -12.695312 8.890625 -12.1875 C 9.203125 -11.6875 9.359375 -11.082031 9.359375 -10.375 C 9.359375 -9.707031 9.164062 -9.117188 8.78125 -8.609375 C 8.394531 -8.109375 7.882812 -7.710938 7.25 -7.421875 L 7.25 -7.234375 C 8.144531 -7.015625 8.816406 -6.609375 9.265625 -6.015625 C 9.722656 -5.421875 9.953125 -4.695312 9.953125 -3.84375 C 9.953125 -2.550781 9.566406 -1.554688 8.796875 -0.859375 C 8.023438 -0.160156 6.882812 0.1875 5.375 0.1875 Z M 5.375 0.1875 " />
            </g>
        </g>
    </g>
    <path stroke-linecap="butt" transform="matrix(0.75, 0, 0, 0.75, 449.999981, 414.306791)"
        fill="none" stroke-linejoin="miter"
        d="M 0.718776 3.268029 L 26.630235 3.268029 L 26.630235 12.122196 C 26.057318 11.575321 25.39586 11.153446 24.635443 10.866987 C 23.880235 10.575321 23.130235 10.377404 22.390652 10.268029 C 21.64586 10.163862 20.968777 10.111779 20.369818 10.111779 L 17.671901 10.111779 L 17.671901 33.538863 C 17.671901 34.42428 17.776068 35.304489 17.994818 36.17428 C 18.213568 37.033655 18.52086 37.64303 18.92711 38.002405 L 8.312526 38.002405 C 8.723984 37.64303 9.036484 37.028447 9.250026 36.153447 C 9.468776 35.278447 9.578151 34.39303 9.578151 33.502405 L 9.578151 10.111779 L 6.984401 10.111779 C 6.406276 10.111779 5.739609 10.163862 4.984401 10.268029 C 4.223984 10.377404 3.473984 10.575321 2.734401 10.866987 C 1.989609 11.153446 1.317734 11.575321 0.718776 12.122196 Z M 25.906277 7.45032 L 25.906277 7.26282 C 26.869819 7.195112 27.911485 6.991987 29.036485 6.658654 C 30.166694 6.320112 31.281277 5.913862 32.380235 5.445112 C 33.489611 4.976362 34.500027 4.502404 35.406277 4.023237 C 36.317736 3.54407 37.026069 3.111779 37.531277 2.73157 L 37.531277 33.502405 C 37.531277 34.39303 37.640652 35.278447 37.859402 36.153447 C 38.072944 37.028447 38.385444 37.64303 38.796902 38.002405 L 28.171902 38.002405 C 28.58336 37.64303 28.89586 37.033655 29.11461 36.17428 C 29.33336 35.304489 29.437527 34.42428 29.437527 33.538863 L 29.437527 12.590946 C 29.437527 12.325321 29.411485 11.919071 29.359402 11.366987 C 29.312527 10.814904 29.182319 10.241987 28.963569 9.643029 C 28.750027 9.044071 28.401069 8.528446 27.916694 8.101362 C 27.442735 7.663862 26.776069 7.45032 25.906277 7.45032 Z M 54.984403 38.533655 C 52.99482 38.533655 51.125028 38.101364 49.385445 37.226364 C 47.645861 36.346155 46.11982 35.106572 44.802111 33.502405 C 43.484403 31.898238 42.453153 30.002405 41.708361 27.814905 C 40.963569 25.632613 40.593778 23.231571 40.593778 20.622196 C 40.593778 18.002404 40.963569 15.601363 41.708361 13.424279 C 42.453153 11.236779 43.484403 9.351362 44.802111 7.757612 C 46.11982 6.158654 47.645861 4.91907 49.385445 4.049279 C 51.125028 3.16907 52.99482 2.73157 54.984403 2.73157 C 56.973987 2.73157 58.833362 3.16907 60.562529 4.049279 C 62.291695 4.91907 63.812529 6.158654 65.130237 7.757612 C 66.458362 9.351362 67.489612 11.236779 68.234404 13.424279 C 68.979196 15.601363 69.348987 18.002404 69.348987 20.622196 C 69.348987 23.231571 68.979196 25.632613 68.234404 27.814905 C 67.489612 30.002405 66.458362 31.898238 65.130237 33.502405 C 63.812529 35.106572 62.291695 36.346155 60.562529 37.226364 C 58.833362 38.101364 56.973987 38.533655 54.984403 38.533655 Z M 48.833361 20.622196 C 48.833361 22.752405 49.109403 24.658655 49.661486 26.340946 C 50.208361 28.023238 50.953153 29.335738 51.890653 30.283655 C 52.828153 31.226363 53.859403 31.700322 54.984403 31.700322 C 56.114612 31.700322 57.140653 31.226363 58.05732 30.283655 C 58.984403 29.335738 59.723987 28.023238 60.27607 26.340946 C 60.828154 24.658655 61.109404 22.752405 61.109404 20.622196 C 61.109404 18.481571 60.828154 16.585738 60.27607 14.934696 C 59.723987 13.278446 58.984403 11.976362 58.05732 11.023237 C 57.140653 10.075321 56.114612 9.601362 54.984403 9.601362 C 53.859403 9.601362 52.828153 10.075321 51.890653 11.023237 C 50.953153 11.976362 50.208361 13.278446 49.661486 14.934696 C 49.109403 16.585738 48.833361 18.481571 48.833361 20.622196 Z M 48.833361 20.622196 "
        stroke="#2d7bc5" stroke-width="4.949959" stroke-opacity="1" stroke-miterlimit="4" />
    <g fill="#ffffff" fill-opacity="1">
        <g transform="translate(449.999981, 442.80679)">
            <g>
                <path
                    d="M 0.546875 -26.0625 L 19.984375 -26.0625 L 19.984375 -19.40625 C 19.546875 -19.820312 19.039062 -20.140625 18.46875 -20.359375 C 17.90625 -20.578125 17.34375 -20.722656 16.78125 -20.796875 C 16.226562 -20.878906 15.726562 -20.921875 15.28125 -20.921875 L 13.25 -20.921875 L 13.25 -3.34375 C 13.25 -2.675781 13.332031 -2.019531 13.5 -1.375 C 13.664062 -0.726562 13.898438 -0.269531 14.203125 0 L 6.234375 0 C 6.546875 -0.269531 6.78125 -0.734375 6.9375 -1.390625 C 7.101562 -2.046875 7.1875 -2.707031 7.1875 -3.375 L 7.1875 -20.921875 L 5.234375 -20.921875 C 4.804688 -20.921875 4.304688 -20.878906 3.734375 -20.796875 C 3.171875 -20.722656 2.609375 -20.578125 2.046875 -20.359375 C 1.492188 -20.140625 0.992188 -19.820312 0.546875 -19.40625 Z M 0.546875 -26.0625 " />
            </g>
        </g>
    </g>
    <g fill="#ffffff" fill-opacity="1">
        <g transform="translate(470.51102, 442.80679)">
            <g>
                <path
                    d="M -1.078125 -22.921875 L -1.078125 -23.0625 C -0.359375 -23.113281 0.421875 -23.265625 1.265625 -23.515625 C 2.109375 -23.765625 2.941406 -24.066406 3.765625 -24.421875 C 4.597656 -24.773438 5.359375 -25.128906 6.046875 -25.484375 C 6.734375 -25.847656 7.265625 -26.171875 7.640625 -26.453125 L 7.640625 -3.375 C 7.640625 -2.707031 7.71875 -2.046875 7.875 -1.390625 C 8.039062 -0.734375 8.28125 -0.269531 8.59375 0 L 0.625 0 C 0.925781 -0.269531 1.15625 -0.726562 1.3125 -1.375 C 1.476562 -2.019531 1.5625 -2.675781 1.5625 -3.34375 L 1.5625 -19.0625 C 1.5625 -19.257812 1.539062 -19.5625 1.5 -19.96875 C 1.46875 -20.382812 1.367188 -20.816406 1.203125 -21.265625 C 1.046875 -21.722656 0.785156 -22.113281 0.421875 -22.4375 C 0.0664062 -22.757812 -0.429688 -22.921875 -1.078125 -22.921875 Z M -1.078125 -22.921875 " />
            </g>
        </g>
    </g>
    <g fill="#ffffff" fill-opacity="1">
        <g transform="translate(479.633036, 442.80679)">
            <g>
                <path
                    d="M 11.609375 0.40625 C 10.117188 0.40625 8.71875 0.078125 7.40625 -0.578125 C 6.101562 -1.234375 4.957031 -2.164062 3.96875 -3.375 C 2.976562 -4.582031 2.203125 -6.003906 1.640625 -7.640625 C 1.085938 -9.273438 0.8125 -11.078125 0.8125 -13.046875 C 0.8125 -15.003906 1.085938 -16.800781 1.640625 -18.4375 C 2.203125 -20.070312 2.976562 -21.488281 3.96875 -22.6875 C 4.957031 -23.882812 6.101562 -24.8125 7.40625 -25.46875 C 8.71875 -26.125 10.117188 -26.453125 11.609375 -26.453125 C 13.097656 -26.453125 14.488281 -26.125 15.78125 -25.46875 C 17.082031 -24.8125 18.226562 -23.882812 19.21875 -22.6875 C 20.207031 -21.488281 20.984375 -20.070312 21.546875 -18.4375 C 22.109375 -16.800781 22.390625 -15.003906 22.390625 -13.046875 C 22.390625 -11.078125 22.109375 -9.273438 21.546875 -7.640625 C 20.984375 -6.003906 20.207031 -4.582031 19.21875 -3.375 C 18.226562 -2.164062 17.082031 -1.234375 15.78125 -0.578125 C 14.488281 0.078125 13.097656 0.40625 11.609375 0.40625 Z M 7 -13.046875 C 7 -11.441406 7.203125 -10.007812 7.609375 -8.75 C 8.023438 -7.488281 8.582031 -6.5 9.28125 -5.78125 C 9.988281 -5.070312 10.765625 -4.71875 11.609375 -4.71875 C 12.453125 -4.71875 13.21875 -5.070312 13.90625 -5.78125 C 14.601562 -6.5 15.160156 -7.488281 15.578125 -8.75 C 15.992188 -10.007812 16.203125 -11.441406 16.203125 -13.046875 C 16.203125 -14.640625 15.992188 -16.054688 15.578125 -17.296875 C 15.160156 -18.546875 14.601562 -19.523438 13.90625 -20.234375 C 13.21875 -20.941406 12.453125 -21.296875 11.609375 -21.296875 C 10.765625 -21.296875 9.988281 -20.941406 9.28125 -20.234375 C 8.582031 -19.523438 8.023438 -18.546875 7.609375 -17.296875 C 7.203125 -16.054688 7 -14.640625 7 -13.046875 Z M 7 -13.046875 " />
            </g>
        </g>
    </g>
    <path stroke-linecap="butt" transform="matrix(0.75, 0, 0, 0.75, 449.999981, 487.943203)"
        fill="none" stroke-linejoin="miter"
        d="M 0.718776 3.268437 L 26.630235 3.268437 L 26.630235 12.122604 C 26.057318 11.570521 25.39586 11.153854 24.635443 10.867396 C 23.880235 10.575729 23.130235 10.372604 22.390652 10.268438 C 21.64586 10.164271 20.968777 10.112188 20.369818 10.112188 L 17.671901 10.112188 L 17.671901 33.534064 C 17.671901 34.424689 17.776068 35.304897 17.994818 36.174689 C 18.213568 37.034064 18.52086 37.643439 18.92711 37.997606 L 8.312526 37.997606 C 8.723984 37.643439 9.036484 37.028856 9.250026 36.153856 C 9.468776 35.273647 9.578151 34.393439 9.578151 33.502814 L 9.578151 10.112188 L 6.984401 10.112188 C 6.406276 10.112188 5.739609 10.164271 4.984401 10.268438 C 4.223984 10.372604 3.473984 10.575729 2.734401 10.867396 C 1.989609 11.153854 1.317734 11.570521 0.718776 12.122604 Z M 25.906277 7.450729 L 25.906277 7.263229 C 26.869819 7.195521 27.911485 6.992396 29.036485 6.659062 C 30.166694 6.320521 31.281277 5.914271 32.380235 5.445521 C 33.489611 4.976771 34.500027 4.502812 35.406277 4.023646 C 36.317736 3.539271 37.026069 3.112187 37.531277 2.731979 L 37.531277 33.502814 C 37.531277 34.393439 37.640652 35.273647 37.859402 36.153856 C 38.072944 37.028856 38.385444 37.643439 38.796902 37.997606 L 28.171902 37.997606 C 28.58336 37.643439 28.89586 37.034064 29.11461 36.174689 C 29.33336 35.304897 29.437527 34.424689 29.437527 33.534064 L 29.437527 12.591354 C 29.437527 12.325729 29.411485 11.919479 29.359402 11.367396 C 29.312527 10.815313 29.182319 10.242396 28.963569 9.643438 C 28.750027 9.044479 28.401069 8.528854 27.916694 8.096562 C 27.442735 7.664271 26.776069 7.450729 25.906277 7.450729 Z M 38.067736 7.450729 L 38.067736 7.263229 C 39.031277 7.195521 40.072944 6.992396 41.197944 6.659062 C 42.328153 6.320521 43.442736 5.914271 44.546903 5.445521 C 45.651069 4.976771 46.661486 4.502812 47.567736 4.023646 C 48.484403 3.539271 49.192736 3.112187 49.692736 2.731979 L 49.692736 33.502814 C 49.692736 34.393439 49.802111 35.273647 50.020861 36.153856 C 50.234403 37.028856 50.552111 37.643439 50.958361 37.997606 L 40.338569 37.997606 C 40.744819 37.643439 41.062528 37.034064 41.276069 36.174689 C 41.494819 35.304897 41.604194 34.424689 41.604194 33.534064 L 41.604194 12.591354 C 41.604194 12.325729 41.578153 11.919479 41.520861 11.367396 C 41.473986 10.815313 41.343778 10.242396 41.125028 9.643438 C 40.911486 9.044479 40.562528 8.528854 40.083361 8.096562 C 39.609403 7.664271 38.937527 7.450729 38.067736 7.450729 Z M 38.067736 7.450729 "
        stroke="#2d7bc5" stroke-width="4.949959" stroke-opacity="1" stroke-miterlimit="4" />
    <g fill="#ffffff" fill-opacity="1">
        <g transform="translate(449.999981, 516.443202)">
            <g>
                <path
                    d="M 0.546875 -26.0625 L 19.984375 -26.0625 L 19.984375 -19.40625 C 19.546875 -19.820312 19.039062 -20.140625 18.46875 -20.359375 C 17.90625 -20.578125 17.34375 -20.722656 16.78125 -20.796875 C 16.226562 -20.878906 15.726562 -20.921875 15.28125 -20.921875 L 13.25 -20.921875 L 13.25 -3.34375 C 13.25 -2.675781 13.332031 -2.019531 13.5 -1.375 C 13.664062 -0.726562 13.898438 -0.269531 14.203125 0 L 6.234375 0 C 6.546875 -0.269531 6.78125 -0.734375 6.9375 -1.390625 C 7.101562 -2.046875 7.1875 -2.707031 7.1875 -3.375 L 7.1875 -20.921875 L 5.234375 -20.921875 C 4.804688 -20.921875 4.304688 -20.878906 3.734375 -20.796875 C 3.171875 -20.722656 2.609375 -20.578125 2.046875 -20.359375 C 1.492188 -20.140625 0.992188 -19.820312 0.546875 -19.40625 Z M 0.546875 -26.0625 " />
            </g>
        </g>
    </g>
    <g fill="#ffffff" fill-opacity="1">
        <g transform="translate(470.51102, 516.443202)">
            <g>
                <path
                    d="M -1.078125 -22.921875 L -1.078125 -23.0625 C -0.359375 -23.113281 0.421875 -23.265625 1.265625 -23.515625 C 2.109375 -23.765625 2.941406 -24.066406 3.765625 -24.421875 C 4.597656 -24.773438 5.359375 -25.128906 6.046875 -25.484375 C 6.734375 -25.847656 7.265625 -26.171875 7.640625 -26.453125 L 7.640625 -3.375 C 7.640625 -2.707031 7.71875 -2.046875 7.875 -1.390625 C 8.039062 -0.734375 8.28125 -0.269531 8.59375 0 L 0.625 0 C 0.925781 -0.269531 1.15625 -0.726562 1.3125 -1.375 C 1.476562 -2.019531 1.5625 -2.675781 1.5625 -3.34375 L 1.5625 -19.0625 C 1.5625 -19.257812 1.539062 -19.5625 1.5 -19.96875 C 1.46875 -20.382812 1.367188 -20.816406 1.203125 -21.265625 C 1.046875 -21.722656 0.785156 -22.113281 0.421875 -22.4375 C 0.0664062 -22.757812 -0.429688 -22.921875 -1.078125 -22.921875 Z M -1.078125 -22.921875 " />
            </g>
        </g>
    </g>
    <g fill="#ffffff" fill-opacity="1">
        <g transform="translate(479.633036, 516.443202)">
            <g>
                <path
                    d="M -1.078125 -22.921875 L -1.078125 -23.0625 C -0.359375 -23.113281 0.421875 -23.265625 1.265625 -23.515625 C 2.109375 -23.765625 2.941406 -24.066406 3.765625 -24.421875 C 4.597656 -24.773438 5.359375 -25.128906 6.046875 -25.484375 C 6.734375 -25.847656 7.265625 -26.171875 7.640625 -26.453125 L 7.640625 -3.375 C 7.640625 -2.707031 7.71875 -2.046875 7.875 -1.390625 C 8.039062 -0.734375 8.28125 -0.269531 8.59375 0 L 0.625 0 C 0.925781 -0.269531 1.15625 -0.726562 1.3125 -1.375 C 1.476562 -2.019531 1.5625 -2.675781 1.5625 -3.34375 L 1.5625 -19.0625 C 1.5625 -19.257812 1.539062 -19.5625 1.5 -19.96875 C 1.46875 -20.382812 1.367188 -20.816406 1.203125 -21.265625 C 1.046875 -21.722656 0.785156 -22.113281 0.421875 -22.4375 C 0.0664062 -22.757812 -0.429688 -22.921875 -1.078125 -22.921875 Z M -1.078125 -22.921875 " />
            </g>
        </g>
    </g>
    <path stroke-linecap="butt" transform="matrix(0.75, 0, 0, 0.75, 449.999981, 561.579592)"
        fill="none" stroke-linejoin="miter"
        d="M 0.734401 3.268878 L 26.64586 3.268878 L 26.64586 12.123045 C 26.072943 11.570962 25.411485 11.154295 24.651068 10.867837 C 23.89586 10.57617 23.14586 10.373045 22.406277 10.268878 C 21.661485 10.164712 20.984402 10.112628 20.385443 10.112628 L 17.687526 10.112628 L 17.687526 33.534504 C 17.687526 34.425129 17.791693 35.305338 18.010443 36.169921 C 18.229193 37.034505 18.536485 37.64388 18.942735 37.998046 L 8.328151 37.998046 C 8.739609 37.64388 9.052109 37.029296 9.265651 36.154296 C 9.484401 35.274088 9.593776 34.393879 9.593776 33.503254 L 9.593776 10.112628 L 7.000026 10.112628 C 6.421901 10.112628 5.755234 10.164712 5.000026 10.268878 C 4.239609 10.373045 3.489609 10.57617 2.750026 10.867837 C 2.005234 11.154295 1.333359 11.570962 0.734401 12.123045 Z M 25.921902 7.45117 L 25.921902 7.26367 C 26.885444 7.195961 27.92711 6.992836 29.05211 6.659503 C 30.182319 6.320961 31.296902 5.914711 32.39586 5.445961 C 33.505236 4.977211 34.515652 4.503253 35.421902 4.024086 C 36.333361 3.539711 37.041694 3.112628 37.546902 2.732419 L 37.546902 33.503254 C 37.546902 34.393879 37.656277 35.274088 37.875027 36.154296 C 38.088569 37.029296 38.401069 37.64388 38.812527 37.998046 L 28.187527 37.998046 C 28.598985 37.64388 28.911485 37.034505 29.130235 36.169921 C 29.348985 35.305338 29.453152 34.425129 29.453152 33.534504 L 29.453152 12.586587 C 29.453152 12.32617 29.42711 11.91992 29.375027 11.367837 C 29.328152 10.815753 29.197944 10.242837 28.979194 9.643878 C 28.765652 9.039711 28.416694 8.529295 27.932319 8.097003 C 27.45836 7.664711 26.791694 7.45117 25.921902 7.45117 Z M 39.526069 11.26367 C 39.812528 10.32617 40.364611 9.35742 41.177111 8.362628 C 42.000028 7.367836 43.031278 6.445961 44.281278 5.597003 C 45.526069 4.737628 46.942736 4.050128 48.52607 3.518878 C 50.104195 2.992836 51.812528 2.732419 53.635445 2.732419 C 56.562528 2.732419 59.041695 3.190753 61.078154 4.117836 C 63.125029 5.039711 64.677112 6.284503 65.74482 7.862628 C 66.812529 9.430336 67.343779 11.190753 67.343779 13.133462 C 67.343779 14.716795 67.041696 16.143878 66.437529 17.414712 C 65.843779 18.685545 65.05732 19.831379 64.083362 20.847004 C 63.11982 21.867837 62.041695 22.79492 60.848987 23.623046 C 59.661487 24.451171 58.468778 25.206379 57.265653 25.893879 C 56.072945 26.570962 54.953153 27.206379 53.916695 27.800129 C 52.885445 28.383462 52.041695 28.945962 51.380236 29.487629 C 50.723986 30.024088 50.348986 30.586588 50.255236 31.164713 L 60.18232 31.164713 C 60.781279 31.164713 61.453154 31.112629 62.197945 31.003254 C 62.937529 30.893879 63.687529 30.695963 64.442737 30.409504 C 65.203154 30.123046 65.86982 29.701171 66.447946 29.143879 L 66.447946 37.998046 L 42.046903 37.998046 C 41.041694 36.992838 40.536486 35.373046 40.536486 33.138671 C 40.536486 31.675129 40.869819 30.367838 41.536486 29.222004 C 42.213569 28.065754 43.104194 27.018879 44.218778 26.065754 C 45.338569 25.117837 46.55732 24.248046 47.875028 23.456379 C 49.197945 22.66992 50.520861 21.904295 51.83857 21.175129 C 53.156278 20.440754 54.36982 19.716795 55.484403 18.992837 C 56.604195 18.274087 57.49482 17.51367 58.161487 16.711587 C 58.83857 15.909503 59.171903 15.024087 59.171903 14.065753 C 59.171903 12.675128 58.697945 11.586587 57.750028 10.79492 C 56.80732 9.998045 55.604195 9.602211 54.140653 9.602211 C 52.718778 9.602211 51.453153 9.85742 50.333361 10.373045 C 49.218778 10.88867 48.270861 11.550128 47.479195 12.362628 C 46.687528 13.164712 46.062528 14.01367 45.604194 14.91992 C 45.151069 15.815753 44.864611 16.643879 44.744819 17.414712 C 44.312528 16.643879 43.791694 15.878253 43.192736 15.112628 C 42.593778 14.341795 41.973986 13.628253 41.338569 12.956378 C 40.703153 12.284503 40.098986 11.716795 39.526069 11.26367 Z M 39.526069 11.26367 "
        stroke="#2d7bc5" stroke-width="4.949959" stroke-opacity="1" stroke-miterlimit="4" />
    <g fill="#ffffff" fill-opacity="1">
        <g transform="translate(450.0117, 590.07959)">
            <g>
                <path
                    d="M 0.546875 -26.0625 L 19.984375 -26.0625 L 19.984375 -19.40625 C 19.546875 -19.820312 19.039062 -20.140625 18.46875 -20.359375 C 17.90625 -20.578125 17.34375 -20.722656 16.78125 -20.796875 C 16.226562 -20.878906 15.726562 -20.921875 15.28125 -20.921875 L 13.25 -20.921875 L 13.25 -3.34375 C 13.25 -2.675781 13.332031 -2.019531 13.5 -1.375 C 13.664062 -0.726562 13.898438 -0.269531 14.203125 0 L 6.234375 0 C 6.546875 -0.269531 6.78125 -0.734375 6.9375 -1.390625 C 7.101562 -2.046875 7.1875 -2.707031 7.1875 -3.375 L 7.1875 -20.921875 L 5.234375 -20.921875 C 4.804688 -20.921875 4.304688 -20.878906 3.734375 -20.796875 C 3.171875 -20.722656 2.609375 -20.578125 2.046875 -20.359375 C 1.492188 -20.140625 0.992188 -19.820312 0.546875 -19.40625 Z M 0.546875 -26.0625 " />
            </g>
        </g>
    </g>
    <g fill="#ffffff" fill-opacity="1">
        <g transform="translate(470.522738, 590.07959)">
            <g>
                <path
                    d="M -1.078125 -22.921875 L -1.078125 -23.0625 C -0.359375 -23.113281 0.421875 -23.265625 1.265625 -23.515625 C 2.109375 -23.765625 2.941406 -24.066406 3.765625 -24.421875 C 4.597656 -24.773438 5.359375 -25.128906 6.046875 -25.484375 C 6.734375 -25.847656 7.265625 -26.171875 7.640625 -26.453125 L 7.640625 -3.375 C 7.640625 -2.707031 7.71875 -2.046875 7.875 -1.390625 C 8.039062 -0.734375 8.28125 -0.269531 8.59375 0 L 0.625 0 C 0.925781 -0.269531 1.15625 -0.726562 1.3125 -1.375 C 1.476562 -2.019531 1.5625 -2.675781 1.5625 -3.34375 L 1.5625 -19.0625 C 1.5625 -19.257812 1.539062 -19.5625 1.5 -19.96875 C 1.46875 -20.382812 1.367188 -20.816406 1.203125 -21.265625 C 1.046875 -21.722656 0.785156 -22.113281 0.421875 -22.4375 C 0.0664062 -22.757812 -0.429688 -22.921875 -1.078125 -22.921875 Z M -1.078125 -22.921875 " />
            </g>
        </g>
    </g>
    <g fill="#ffffff" fill-opacity="1">
        <g transform="translate(479.644755, 590.07959)">
            <g>
                <path
                    d="M 0 -20.0625 C 0.21875 -20.757812 0.628906 -21.484375 1.234375 -22.234375 C 1.847656 -22.984375 2.625 -23.675781 3.5625 -24.3125 C 4.5 -24.945312 5.5625 -25.460938 6.75 -25.859375 C 7.9375 -26.253906 9.210938 -26.453125 10.578125 -26.453125 C 12.773438 -26.453125 14.640625 -26.101562 16.171875 -25.40625 C 17.703125 -24.71875 18.867188 -23.785156 19.671875 -22.609375 C 20.472656 -21.429688 20.875 -20.113281 20.875 -18.65625 C 20.875 -17.46875 20.644531 -16.394531 20.1875 -15.4375 C 19.738281 -14.488281 19.148438 -13.628906 18.421875 -12.859375 C 17.691406 -12.097656 16.878906 -11.40625 15.984375 -10.78125 C 15.097656 -10.164062 14.207031 -9.597656 13.3125 -9.078125 C 12.414062 -8.566406 11.578125 -8.09375 10.796875 -7.65625 C 10.023438 -7.21875 9.390625 -6.796875 8.890625 -6.390625 C 8.398438 -5.984375 8.117188 -5.5625 8.046875 -5.125 L 15.5 -5.125 C 15.945312 -5.125 16.445312 -5.164062 17 -5.25 C 17.5625 -5.332031 18.125 -5.476562 18.6875 -5.6875 C 19.257812 -5.90625 19.765625 -6.222656 20.203125 -6.640625 L 20.203125 0 L 1.890625 0 C 1.128906 -0.757812 0.75 -1.972656 0.75 -3.640625 C 0.75 -4.742188 1 -5.726562 1.5 -6.59375 C 2.007812 -7.457031 2.679688 -8.242188 3.515625 -8.953125 C 4.359375 -9.660156 5.273438 -10.3125 6.265625 -10.90625 C 7.253906 -11.5 8.242188 -12.070312 9.234375 -12.625 C 10.222656 -13.175781 11.132812 -13.71875 11.96875 -14.25 C 12.8125 -14.789062 13.484375 -15.363281 13.984375 -15.96875 C 14.484375 -16.570312 14.734375 -17.234375 14.734375 -17.953125 C 14.734375 -18.992188 14.378906 -19.8125 13.671875 -20.40625 C 12.960938 -21 12.0625 -21.296875 10.96875 -21.296875 C 9.90625 -21.296875 8.953125 -21.101562 8.109375 -20.71875 C 7.273438 -20.332031 6.5625 -19.835938 5.96875 -19.234375 C 5.375 -18.628906 4.90625 -17.988281 4.5625 -17.3125 C 4.21875 -16.644531 4.003906 -16.019531 3.921875 -15.4375 C 3.585938 -16.019531 3.195312 -16.597656 2.75 -17.171875 C 2.300781 -17.742188 1.835938 -18.28125 1.359375 -18.78125 C 0.878906 -19.289062 0.425781 -19.71875 0 -20.0625 Z M 0 -20.0625 " />
            </g>
        </g>
    </g>
    <path stroke-linecap="butt" transform="matrix(0.75, 0, 0, 0.75, 449.999981, 635.216004)"
        fill="none" stroke-linejoin="miter"
        d="M 0.718776 37.998455 C 1.130234 37.644288 1.442734 37.029705 1.651067 36.154705 C 1.869817 35.274496 1.979192 34.38908 1.979192 33.503663 L 1.979192 7.764078 C 1.979192 6.857828 1.869817 5.972412 1.651067 5.113037 C 1.442734 4.243245 1.130234 3.628661 0.718776 3.264078 L 11.333359 3.264078 C 10.932318 3.628661 10.619818 4.238036 10.401068 5.092203 C 10.187526 5.941162 10.078151 6.82137 10.078151 7.72762 L 10.078151 31.165121 L 19.468776 31.165121 C 20.067735 31.165121 20.73961 31.113038 21.484402 31.003663 C 22.229193 30.894288 22.979193 30.696371 23.734402 30.409913 C 24.48961 30.123454 25.156277 29.701579 25.734402 29.144288 L 25.734402 37.998455 Z M 25.005235 7.44637 L 25.005235 7.264078 C 25.968777 7.19637 27.010444 6.993245 28.135444 6.659912 C 29.265652 6.316162 30.380235 5.91512 31.484402 5.44637 C 32.588569 4.97762 33.598986 4.503662 34.505236 4.024495 C 35.421902 3.54012 36.130236 3.113036 36.630236 2.732828 L 36.630236 33.503663 C 36.630236 34.38908 36.739611 35.274496 36.958361 36.154705 C 37.171902 37.029705 37.489611 37.644288 37.895861 37.998455 L 27.276069 37.998455 C 27.682319 37.644288 28.000027 37.034913 28.213569 36.17033 C 28.432319 35.305746 28.541694 34.425538 28.541694 33.534913 L 28.541694 12.586995 C 28.541694 12.326579 28.515652 11.920329 28.45836 11.368245 C 28.411485 10.816162 28.281277 10.243245 28.067735 9.644287 C 27.848985 9.04012 27.500027 8.524495 27.02086 8.097412 C 26.546902 7.66512 25.875027 7.44637 25.005235 7.44637 Z M 25.005235 7.44637 "
        stroke="#2d7bc5" stroke-width="4.949959" stroke-opacity="1" stroke-miterlimit="4" />
    <g fill="#ffffff" fill-opacity="1">
        <g transform="translate(449.999981, 663.716003)">
            <g>
                <path
                    d="M 0.546875 0 C 0.847656 -0.269531 1.078125 -0.734375 1.234375 -1.390625 C 1.398438 -2.046875 1.484375 -2.707031 1.484375 -3.375 L 1.484375 -22.6875 C 1.484375 -23.363281 1.398438 -24.023438 1.234375 -24.671875 C 1.078125 -25.328125 0.847656 -25.789062 0.546875 -26.0625 L 8.5 -26.0625 C 8.195312 -25.789062 7.960938 -25.332031 7.796875 -24.6875 C 7.640625 -24.050781 7.5625 -23.390625 7.5625 -22.703125 L 7.5625 -5.125 L 14.609375 -5.125 C 15.054688 -5.125 15.554688 -5.164062 16.109375 -5.25 C 16.671875 -5.332031 17.234375 -5.476562 17.796875 -5.6875 C 18.367188 -5.90625 18.875 -6.222656 19.3125 -6.640625 L 19.3125 0 Z M 0.546875 0 " />
            </g>
        </g>
    </g>
    <g fill="#ffffff" fill-opacity="1">
        <g transform="translate(469.836311, 663.716003)">
            <g>
                <path
                    d="M -1.078125 -22.921875 L -1.078125 -23.0625 C -0.359375 -23.113281 0.421875 -23.265625 1.265625 -23.515625 C 2.109375 -23.765625 2.941406 -24.066406 3.765625 -24.421875 C 4.597656 -24.773438 5.359375 -25.128906 6.046875 -25.484375 C 6.734375 -25.847656 7.265625 -26.171875 7.640625 -26.453125 L 7.640625 -3.375 C 7.640625 -2.707031 7.71875 -2.046875 7.875 -1.390625 C 8.039062 -0.734375 8.28125 -0.269531 8.59375 0 L 0.625 0 C 0.925781 -0.269531 1.15625 -0.726562 1.3125 -1.375 C 1.476562 -2.019531 1.5625 -2.675781 1.5625 -3.34375 L 1.5625 -19.0625 C 1.5625 -19.257812 1.539062 -19.5625 1.5 -19.96875 C 1.46875 -20.382812 1.367188 -20.816406 1.203125 -21.265625 C 1.046875 -21.722656 0.785156 -22.113281 0.421875 -22.4375 C 0.0664062 -22.757812 -0.429688 -22.921875 -1.078125 -22.921875 Z M -1.078125 -22.921875 " />
            </g>
        </g>
    </g>
    <path stroke-linecap="butt" transform="matrix(0.75, 0, 0, 0.75, 449.999981, 708.852176)"
        fill="none" stroke-linejoin="miter"
        d="M 0.734401 37.999183 C 1.145859 37.645017 1.458359 37.025225 1.666692 36.155433 C 1.885442 35.275225 1.994817 34.389808 1.994817 33.499183 L 1.994817 7.764807 C 1.994817 6.858557 1.885442 5.97314 1.666692 5.113765 C 1.458359 4.243973 1.145859 3.62939 0.734401 3.264807 L 11.348984 3.264807 C 10.947943 3.62939 10.635443 4.238765 10.416693 5.092932 C 10.203151 5.94189 10.093776 6.822099 10.093776 7.728349 L 10.093776 31.16585 L 19.484401 31.16585 C 20.08336 31.16585 20.755235 31.113766 21.500027 31.004391 C 22.244818 30.895016 22.994818 30.6971 23.750027 30.410641 C 24.505235 30.118975 25.171902 29.6971 25.750027 29.145016 L 25.750027 37.999183 Z M 26.463569 11.264807 C 26.750027 10.327307 27.30211 9.358557 28.11461 8.363765 C 28.937527 7.368974 29.968777 6.44189 31.218777 5.592932 C 32.463569 4.738765 33.880236 4.046057 35.463569 3.520015 C 37.041694 2.993973 38.750027 2.728348 40.572944 2.728348 C 43.500028 2.728348 45.979194 3.19189 48.015653 4.118973 C 50.062528 5.040848 51.61982 6.28564 52.68232 7.863765 C 53.750028 9.431474 54.281278 11.186682 54.281278 13.134599 C 54.281278 14.717932 53.979195 16.139807 53.375028 17.410641 C 52.781278 18.681474 51.99482 19.827308 51.020861 20.848141 C 50.05732 21.868974 48.979195 22.790849 47.791695 23.624183 C 46.598986 24.452308 45.406278 25.207516 44.203153 25.889808 C 43.010444 26.5721 41.895861 27.207516 40.854194 27.801266 C 39.828153 28.3846 38.979194 28.9471 38.317736 29.483558 C 37.661486 30.025225 37.286486 30.582516 37.192736 31.16585 L 47.11982 31.16585 C 47.718778 31.16585 48.390653 31.113766 49.135445 31.004391 C 49.875028 30.895016 50.625028 30.6971 51.385445 30.410641 C 52.140653 30.118975 52.80732 29.6971 53.385445 29.145016 L 53.385445 37.999183 L 28.984402 37.999183 C 27.979194 36.993975 27.473985 35.374183 27.473985 33.139808 C 27.473985 31.676266 27.807319 30.368975 28.473985 29.223141 C 29.151069 28.066891 30.041694 27.014808 31.156277 26.066891 C 32.276069 25.118974 33.494819 24.249183 34.812527 23.457516 C 36.135444 22.665849 37.458361 21.905433 38.776069 21.171058 C 40.093778 20.441891 41.307319 19.712724 42.421903 18.993974 C 43.541694 18.275224 44.432319 17.514807 45.098986 16.707516 C 45.776069 15.905432 46.109403 15.025224 46.109403 14.066891 C 46.109403 12.676266 45.635444 11.587724 44.687528 10.796057 C 43.744819 9.999182 42.541694 9.603349 41.078153 9.603349 C 39.656278 9.603349 38.390652 9.858557 37.270861 10.374182 C 36.156277 10.889807 35.208361 11.551265 34.416694 12.358557 C 33.625027 13.160641 33.000027 14.014807 32.546902 14.915849 C 32.088569 15.811682 31.80211 16.645016 31.682319 17.410641 C 31.250027 16.645016 30.729194 15.879391 30.130235 15.108557 C 29.531277 14.342932 28.911485 13.624182 28.276069 12.957516 C 27.640652 12.28564 27.036485 11.717932 26.463569 11.264807 Z M 26.463569 11.264807 "
        stroke="#2d7bc5" stroke-width="4.949959" stroke-opacity="1" stroke-miterlimit="4" />
    <g fill="#ffffff" fill-opacity="1">
        <g transform="translate(450.0117, 737.352175)">
            <g>
                <path
                    d="M 0.546875 0 C 0.847656 -0.269531 1.078125 -0.734375 1.234375 -1.390625 C 1.398438 -2.046875 1.484375 -2.707031 1.484375 -3.375 L 1.484375 -22.6875 C 1.484375 -23.363281 1.398438 -24.023438 1.234375 -24.671875 C 1.078125 -25.328125 0.847656 -25.789062 0.546875 -26.0625 L 8.5 -26.0625 C 8.195312 -25.789062 7.960938 -25.332031 7.796875 -24.6875 C 7.640625 -24.050781 7.5625 -23.390625 7.5625 -22.703125 L 7.5625 -5.125 L 14.609375 -5.125 C 15.054688 -5.125 15.554688 -5.164062 16.109375 -5.25 C 16.671875 -5.332031 17.234375 -5.476562 17.796875 -5.6875 C 18.367188 -5.90625 18.875 -6.222656 19.3125 -6.640625 L 19.3125 0 Z M 0.546875 0 " />
            </g>
        </g>
    </g>
    <g fill="#ffffff" fill-opacity="1">
        <g transform="translate(469.848029, 737.352175)">
            <g>
                <path
                    d="M 0 -20.0625 C 0.21875 -20.757812 0.628906 -21.484375 1.234375 -22.234375 C 1.847656 -22.984375 2.625 -23.675781 3.5625 -24.3125 C 4.5 -24.945312 5.5625 -25.460938 6.75 -25.859375 C 7.9375 -26.253906 9.210938 -26.453125 10.578125 -26.453125 C 12.773438 -26.453125 14.640625 -26.101562 16.171875 -25.40625 C 17.703125 -24.71875 18.867188 -23.785156 19.671875 -22.609375 C 20.472656 -21.429688 20.875 -20.113281 20.875 -18.65625 C 20.875 -17.46875 20.644531 -16.394531 20.1875 -15.4375 C 19.738281 -14.488281 19.148438 -13.628906 18.421875 -12.859375 C 17.691406 -12.097656 16.878906 -11.40625 15.984375 -10.78125 C 15.097656 -10.164062 14.207031 -9.597656 13.3125 -9.078125 C 12.414062 -8.566406 11.578125 -8.09375 10.796875 -7.65625 C 10.023438 -7.21875 9.390625 -6.796875 8.890625 -6.390625 C 8.398438 -5.984375 8.117188 -5.5625 8.046875 -5.125 L 15.5 -5.125 C 15.945312 -5.125 16.445312 -5.164062 17 -5.25 C 17.5625 -5.332031 18.125 -5.476562 18.6875 -5.6875 C 19.257812 -5.90625 19.765625 -6.222656 20.203125 -6.640625 L 20.203125 0 L 1.890625 0 C 1.128906 -0.757812 0.75 -1.972656 0.75 -3.640625 C 0.75 -4.742188 1 -5.726562 1.5 -6.59375 C 2.007812 -7.457031 2.679688 -8.242188 3.515625 -8.953125 C 4.359375 -9.660156 5.273438 -10.3125 6.265625 -10.90625 C 7.253906 -11.5 8.242188 -12.070312 9.234375 -12.625 C 10.222656 -13.175781 11.132812 -13.71875 11.96875 -14.25 C 12.8125 -14.789062 13.484375 -15.363281 13.984375 -15.96875 C 14.484375 -16.570312 14.734375 -17.234375 14.734375 -17.953125 C 14.734375 -18.992188 14.378906 -19.8125 13.671875 -20.40625 C 12.960938 -21 12.0625 -21.296875 10.96875 -21.296875 C 9.90625 -21.296875 8.953125 -21.101562 8.109375 -20.71875 C 7.273438 -20.332031 6.5625 -19.835938 5.96875 -19.234375 C 5.375 -18.628906 4.90625 -17.988281 4.5625 -17.3125 C 4.21875 -16.644531 4.003906 -16.019531 3.921875 -15.4375 C 3.585938 -16.019531 3.195312 -16.597656 2.75 -17.171875 C 2.300781 -17.742188 1.835938 -18.28125 1.359375 -18.78125 C 0.878906 -19.289062 0.425781 -19.71875 0 -20.0625 Z M 0 -20.0625 " />
            </g>
        </g>
    </g>
</svg>