<svg xmlns="http://www.w3.org/2000/svg" xmlns:xlink="http://www.w3.org/1999/xlink" width="1080"
    zoomAndPan="magnify" viewBox="0 0 810 809.999993" height="1080"
    preserveAspectRatio="xMidYMid meet" version="1.0">
    <defs>
        <g />
        <clipPath id="77a572976c">
            <path
                d="M 439.199219 444.273438 L 490.746094 444.273438 L 490.746094 495.816406 L 439.199219 495.816406 Z M 439.199219 444.273438 "
                clip-rule="nonzero" />
        </clipPath>
        <clipPath id="ca6f59dce3">
            <path
                d="M 464.972656 444.273438 C 450.738281 444.273438 439.199219 455.8125 439.199219 470.046875 C 439.199219 484.28125 450.738281 495.816406 464.972656 495.816406 C 479.207031 495.816406 490.746094 484.28125 490.746094 470.046875 C 490.746094 455.8125 479.207031 444.273438 464.972656 444.273438 Z M 464.972656 444.273438 "
                clip-rule="nonzero" />
        </clipPath>
        <clipPath id="5c34e95975">
            <path
                d="M 319.199219 444.273438 L 370.746094 444.273438 L 370.746094 495.816406 L 319.199219 495.816406 Z M 319.199219 444.273438 "
                clip-rule="nonzero" />
        </clipPath>
        <clipPath id="74f04cfac1">
            <path
                d="M 344.972656 444.273438 C 330.738281 444.273438 319.199219 455.8125 319.199219 470.046875 C 319.199219 484.28125 330.738281 495.816406 344.972656 495.816406 C 359.207031 495.816406 370.746094 484.28125 370.746094 470.046875 C 370.746094 455.8125 359.207031 444.273438 344.972656 444.273438 Z M 344.972656 444.273438 "
                clip-rule="nonzero" />
        </clipPath>
        <clipPath id="b8c54c0ccd">
            <path
                d="M 319.199219 591.546875 L 370.746094 591.546875 L 370.746094 643.089844 L 319.199219 643.089844 Z M 319.199219 591.546875 "
                clip-rule="nonzero" />
        </clipPath>
        <clipPath id="f64e2e9934">
            <path
                d="M 344.972656 591.546875 C 330.738281 591.546875 319.199219 603.085938 319.199219 617.316406 C 319.199219 631.550781 330.738281 643.089844 344.972656 643.089844 C 359.207031 643.089844 370.746094 631.550781 370.746094 617.316406 C 370.746094 603.085938 359.207031 591.546875 344.972656 591.546875 Z M 344.972656 591.546875 "
                clip-rule="nonzero" />
        </clipPath>
        <clipPath id="4cb56f8922">
            <path
                d="M 319.199219 517.910156 L 370.746094 517.910156 L 370.746094 569.453125 L 319.199219 569.453125 Z M 319.199219 517.910156 "
                clip-rule="nonzero" />
        </clipPath>
        <clipPath id="5ad6fbfbca">
            <path
                d="M 344.972656 517.910156 C 330.738281 517.910156 319.199219 529.449219 319.199219 543.683594 C 319.199219 557.914062 330.738281 569.453125 344.972656 569.453125 C 359.207031 569.453125 370.746094 557.914062 370.746094 543.683594 C 370.746094 529.449219 359.207031 517.910156 344.972656 517.910156 Z M 344.972656 517.910156 "
                clip-rule="nonzero" />
        </clipPath>
        <clipPath id="faab12abf3">
            <path
                d="M 439.199219 517.910156 L 490.746094 517.910156 L 490.746094 569.453125 L 439.199219 569.453125 Z M 439.199219 517.910156 "
                clip-rule="nonzero" />
        </clipPath>
        <clipPath id="e3d5ae6b24">
            <path
                d="M 464.972656 517.910156 C 450.738281 517.910156 439.199219 529.449219 439.199219 543.683594 C 439.199219 557.914062 450.738281 569.453125 464.972656 569.453125 C 479.207031 569.453125 490.746094 557.914062 490.746094 543.683594 C 490.746094 529.449219 479.207031 517.910156 464.972656 517.910156 Z M 464.972656 517.910156 "
                clip-rule="nonzero" />
        </clipPath>
        <clipPath id="1b8f485fdd">
            <path
                d="M 439.199219 591.546875 L 490.746094 591.546875 L 490.746094 643.089844 L 439.199219 643.089844 Z M 439.199219 591.546875 "
                clip-rule="nonzero" />
        </clipPath>
        <clipPath id="085e0fd373">
            <path
                d="M 464.972656 591.546875 C 450.738281 591.546875 439.199219 603.085938 439.199219 617.316406 C 439.199219 631.550781 450.738281 643.089844 464.972656 643.089844 C 479.207031 643.089844 490.746094 631.550781 490.746094 617.316406 C 490.746094 603.085938 479.207031 591.546875 464.972656 591.546875 Z M 464.972656 591.546875 "
                clip-rule="nonzero" />
        </clipPath>
        <clipPath id="9c2eb98f36">
            <path
                d="M 319.199219 664.839844 L 370.746094 664.839844 L 370.746094 716.386719 L 319.199219 716.386719 Z M 319.199219 664.839844 "
                clip-rule="nonzero" />
        </clipPath>
        <clipPath id="08593d2dcb">
            <path
                d="M 344.972656 664.839844 C 330.738281 664.839844 319.199219 676.378906 319.199219 690.613281 C 319.199219 704.847656 330.738281 716.386719 344.972656 716.386719 C 359.207031 716.386719 370.746094 704.847656 370.746094 690.613281 C 370.746094 676.378906 359.207031 664.839844 344.972656 664.839844 Z M 344.972656 664.839844 "
                clip-rule="nonzero" />
        </clipPath>
        <clipPath id="73a314e77c">
            <path
                d="M 439.199219 664.839844 L 490.746094 664.839844 L 490.746094 716.386719 L 439.199219 716.386719 Z M 439.199219 664.839844 "
                clip-rule="nonzero" />
        </clipPath>
        <clipPath id="7584ddbebd">
            <path
                d="M 464.972656 664.839844 C 450.738281 664.839844 439.199219 676.378906 439.199219 690.613281 C 439.199219 704.847656 450.738281 716.386719 464.972656 716.386719 C 479.207031 716.386719 490.746094 704.847656 490.746094 690.613281 C 490.746094 676.378906 479.207031 664.839844 464.972656 664.839844 Z M 464.972656 664.839844 "
                clip-rule="nonzero" />
        </clipPath>
    </defs>
    <path fill="#c3ccdf"
        d="M 316.566406 -0.171875 C 315.75 -0.15625 314.945312 -0.0664062 314.144531 0.105469 C 313.347656 0.277344 312.574219 0.523438 311.824219 0.847656 C 311.078125 1.171875 310.367188 1.566406 309.695312 2.03125 C 309.023438 2.492188 308.402344 3.015625 307.835938 3.601562 C 307.265625 4.1875 306.757812 4.824219 306.316406 5.507812 C 305.871094 6.195312 305.5 6.914062 305.199219 7.671875 C 304.898438 8.433594 304.671875 9.210938 304.523438 10.015625 C 304.375 10.816406 304.308594 11.625 304.320312 12.441406 L 304.320312 23.742188 C 304.320312 46.3125 294.238281 60.234375 277.585938 71.933594 C 260.9375 83.632812 237.605469 91.542969 215.253906 97.328125 C 200.957031 101.027344 187.101562 103.917969 175.375 106.855469 C 175.316406 106.863281 175.261719 106.871094 175.203125 106.878906 C 152.058594 113.046875 129.089844 122.558594 110.78125 137.621094 C 92.472656 152.679688 79.011719 174.039062 77.171875 200.875 L 72.3125 272.007812 L 72.238281 272.882812 L 65.945312 364.742188 C 65.9375 364.832031 65.925781 364.921875 65.921875 365.007812 L 56.734375 563.019531 C 56.726562 563.050781 56.71875 563.082031 56.710938 563.117188 C 56.015625 580.96875 58.726562 598.789062 64.65625 615.65625 C 64.816406 616.113281 65.003906 616.558594 65.214844 616.992188 L 155.570312 801.757812 C 156.066406 802.769531 156.6875 803.695312 157.4375 804.535156 C 158.183594 805.378906 159.03125 806.105469 159.976562 806.71875 C 160.921875 807.332031 161.933594 807.804688 163.007812 808.144531 C 164.082031 808.480469 165.183594 808.667969 166.308594 808.707031 C 166.390625 808.714844 166.472656 808.722656 166.554688 808.730469 C 167 808.804688 167.453125 808.855469 167.90625 808.882812 C 168.359375 808.90625 168.8125 808.90625 169.265625 808.882812 C 169.71875 808.859375 170.167969 808.808594 170.617188 808.734375 C 171.0625 808.660156 171.507812 808.5625 171.941406 808.441406 C 172.378906 808.320312 172.808594 808.171875 173.230469 808.003906 C 173.652344 807.835938 174.0625 807.644531 174.460938 807.429688 C 174.863281 807.214844 175.25 806.980469 175.625 806.722656 C 176 806.46875 176.359375 806.191406 176.703125 805.894531 C 177.046875 805.601562 177.375 805.285156 177.683594 804.953125 C 177.996094 804.621094 178.285156 804.277344 178.558594 803.910156 C 178.828125 803.546875 179.082031 803.171875 179.3125 802.78125 C 179.542969 802.390625 179.75 801.988281 179.9375 801.574219 C 180.125 801.160156 180.289062 800.738281 180.425781 800.304688 C 180.566406 799.875 180.683594 799.4375 180.777344 798.992188 C 180.871094 798.546875 180.9375 798.097656 180.980469 797.648438 C 181.023438 797.195312 181.042969 796.742188 181.035156 796.289062 C 181.035156 732.578125 228.839844 659.058594 228.839844 659.058594 C 229.039062 658.757812 229.222656 658.449219 229.398438 658.136719 C 266.703125 590.125 255.378906 554.878906 245.484375 509.917969 C 221.542969 401.109375 214.039062 382.753906 202.640625 350.210938 C 202.242188 349.019531 201.679688 347.917969 200.949219 346.898438 C 200.214844 345.878906 199.351562 344.992188 198.351562 344.238281 C 197.351562 343.480469 196.261719 342.886719 195.085938 342.460938 C 193.90625 342.03125 192.691406 341.789062 191.4375 341.730469 C 190.925781 341.703125 190.414062 341.710938 189.90625 341.746094 C 189.394531 341.785156 188.886719 341.855469 188.386719 341.953125 C 187.882812 342.054688 187.390625 342.183594 186.902344 342.347656 C 186.417969 342.507812 185.945312 342.699219 185.480469 342.917969 C 185.019531 343.136719 184.570312 343.382812 184.140625 343.660156 C 183.707031 343.933594 183.292969 344.234375 182.898438 344.5625 C 182.503906 344.886719 182.132812 345.234375 181.78125 345.609375 C 181.429688 345.980469 181.101562 346.371094 180.796875 346.785156 C 180.492188 347.195312 180.21875 347.625 179.96875 348.074219 C 179.714844 348.519531 179.496094 348.980469 179.300781 349.453125 C 179.109375 349.929688 178.945312 350.410156 178.808594 350.90625 C 178.675781 351.398438 178.574219 351.902344 178.5 352.40625 C 178.429688 352.914062 178.390625 353.425781 178.378906 353.9375 C 178.371094 354.449219 178.394531 354.957031 178.449219 355.46875 C 178.5 355.976562 178.585938 356.480469 178.703125 356.980469 C 178.820312 357.476562 178.964844 357.96875 179.140625 358.449219 C 184.246094 373.019531 188.515625 385.050781 193.601562 402.265625 L 157.757812 551.886719 C 157.664062 552.296875 157.589844 552.710938 157.539062 553.128906 C 156.46875 561.105469 157.101562 569.234375 159.433594 576.96875 C 159.609375 577.558594 159.828125 578.132812 160.089844 578.691406 L 198.703125 660.613281 C 187.460938 679.953125 169.171875 715.523438 160.695312 755.585938 L 88.109375 607.175781 C 83.269531 593.328125 81.027344 578.75 81.59375 564.113281 C 81.59375 564.113281 81.59375 564.085938 81.59375 564.085938 L 90.78125 366.296875 L 97.050781 274.582031 L 102.007812 202.578125 C 103.363281 182.792969 112.28125 168.601562 126.578125 156.84375 C 140.832031 145.117188 160.617188 136.550781 181.425781 130.984375 L 181.523438 130.960938 C 181.546875 130.953125 181.570312 130.945312 181.597656 130.9375 C 192.292969 128.265625 206.039062 125.359375 220.648438 121.605469 C 220.746094 121.582031 220.84375 121.558594 220.941406 121.53125 C 221.140625 121.480469 221.273438 121.460938 221.476562 121.410156 C 221.570312 121.386719 221.667969 121.363281 221.765625 121.335938 C 222.152344 121.234375 222.535156 121.113281 222.910156 120.972656 C 246.011719 114.933594 271.226562 106.824219 291.902344 92.296875 C 312.984375 77.480469 329.203125 54.488281 329.203125 23.742188 L 329.203125 12.441406 C 329.214844 11.609375 329.144531 10.785156 328.988281 9.96875 C 328.835938 9.148438 328.601562 8.355469 328.289062 7.582031 C 327.972656 6.8125 327.585938 6.082031 327.125 5.386719 C 326.664062 4.691406 326.140625 4.050781 325.550781 3.464844 C 324.960938 2.875 324.320312 2.351562 323.625 1.894531 C 322.933594 1.433594 322.199219 1.046875 321.425781 0.738281 C 320.65625 0.425781 319.859375 0.191406 319.042969 0.0390625 C 318.222656 -0.113281 317.398438 -0.183594 316.566406 -0.171875 Z M 491.902344 -0.171875 C 491.085938 -0.15625 490.28125 -0.0664062 489.480469 0.105469 C 488.683594 0.277344 487.910156 0.523438 487.160156 0.847656 C 486.414062 1.171875 485.703125 1.566406 485.03125 2.03125 C 484.359375 2.492188 483.738281 3.015625 483.167969 3.601562 C 482.601562 4.1875 482.09375 4.824219 481.652344 5.507812 C 481.207031 6.195312 480.835938 6.914062 480.535156 7.671875 C 480.234375 8.433594 480.007812 9.210938 479.859375 10.015625 C 479.710938 10.816406 479.644531 11.625 479.65625 12.441406 L 479.65625 23.742188 C 479.65625 54.488281 495.871094 77.480469 516.957031 92.296875 C 537.785156 106.933594 563.238281 115.113281 586.484375 121.167969 C 586.773438 121.257812 587.0625 121.339844 587.359375 121.410156 C 587.757812 121.527344 588.164062 121.625 588.574219 121.703125 C 603.007812 125.398438 616.648438 128.292969 627.238281 130.9375 C 627.238281 130.9375 627.261719 130.9375 627.261719 130.9375 C 648.128906 136.5 667.964844 145.085938 682.257812 156.84375 C 696.550781 168.601562 705.492188 182.792969 706.851562 202.578125 L 711.734375 273.707031 L 711.78125 274.582031 L 718.078125 366.320312 L 727.261719 564.183594 C 727.824219 578.78125 725.589844 593.316406 720.773438 607.125 L 648.988281 753.929688 C 640.363281 714.535156 622.386719 679.691406 611.296875 660.613281 L 649.910156 578.691406 C 650.171875 578.132812 650.390625 577.558594 650.566406 576.96875 C 652.898438 569.234375 653.53125 561.105469 652.460938 553.128906 C 652.410156 552.710938 652.335938 552.296875 652.242188 551.886719 L 616.398438 402.265625 C 621.484375 385.050781 625.753906 373.019531 630.859375 358.449219 C 631.027344 357.984375 631.167969 357.511719 631.285156 357.03125 C 631.398438 356.554688 631.480469 356.066406 631.539062 355.578125 C 631.59375 355.085938 631.621094 354.597656 631.617188 354.101562 C 631.613281 353.609375 631.582031 353.117188 631.523438 352.628906 C 631.460938 352.140625 631.371094 351.65625 631.25 351.175781 C 631.132812 350.695312 630.988281 350.226562 630.8125 349.765625 C 630.636719 349.304688 630.4375 348.855469 630.207031 348.417969 C 629.980469 347.980469 629.726562 347.558594 629.449219 347.148438 C 629.171875 346.742188 628.867188 346.351562 628.542969 345.980469 C 628.21875 345.609375 627.875 345.257812 627.507812 344.929688 C 627.140625 344.597656 626.757812 344.292969 626.355469 344.007812 C 625.953125 343.722656 625.53125 343.460938 625.097656 343.226562 C 624.664062 342.992188 624.21875 342.785156 623.761719 342.601562 C 623.300781 342.421875 622.835938 342.265625 622.355469 342.140625 C 621.878906 342.011719 621.398438 341.917969 620.910156 341.847656 C 620.421875 341.777344 619.929688 341.738281 619.4375 341.730469 C 618.777344 341.714844 618.121094 341.75 617.46875 341.839844 C 616.8125 341.929688 616.171875 342.070312 615.539062 342.261719 C 614.910156 342.453125 614.296875 342.695312 613.703125 342.984375 C 613.109375 343.273438 612.542969 343.605469 612.003906 343.984375 C 611.464844 344.363281 610.957031 344.785156 610.484375 345.242188 C 610.011719 345.703125 609.578125 346.195312 609.183594 346.726562 C 608.789062 347.253906 608.4375 347.8125 608.132812 348.394531 C 607.828125 348.980469 607.570312 349.585938 607.359375 350.210938 C 595.960938 382.753906 588.457031 401.109375 564.515625 509.917969 C 554.621094 554.878906 543.296875 590.125 580.601562 658.136719 C 580.777344 658.449219 580.960938 658.757812 581.160156 659.058594 C 581.160156 659.058594 628.964844 732.578125 628.964844 796.289062 C 628.953125 796.996094 629.003906 797.695312 629.113281 798.394531 C 629.222656 799.089844 629.390625 799.773438 629.617188 800.441406 C 629.84375 801.109375 630.121094 801.757812 630.457031 802.375 C 630.792969 802.996094 631.179688 803.585938 631.617188 804.140625 C 632.050781 804.695312 632.53125 805.210938 633.054688 805.683594 C 633.578125 806.160156 634.136719 806.585938 634.730469 806.960938 C 635.328125 807.339844 635.953125 807.667969 636.601562 807.9375 C 637.253906 808.210938 637.921875 808.425781 638.609375 808.585938 C 638.78125 808.628906 638.949219 808.671875 639.121094 808.707031 C 639.816406 808.871094 640.519531 808.972656 641.234375 809.015625 C 641.945312 809.058594 642.65625 809.039062 643.367188 808.957031 C 644.074219 808.878906 644.773438 808.738281 645.457031 808.539062 C 646.144531 808.335938 646.808594 808.078125 647.449219 807.765625 C 648.089844 807.449219 648.699219 807.082031 649.277344 806.664062 C 649.855469 806.246094 650.390625 805.78125 650.890625 805.265625 C 651.386719 804.753906 651.835938 804.203125 652.242188 803.617188 C 652.644531 803.027344 652.992188 802.40625 653.289062 801.757812 L 743.640625 617.015625 C 743.855469 616.582031 744.039062 616.136719 744.199219 615.679688 C 750.132812 598.8125 752.820312 580.996094 752.125 563.140625 C 752.125 563.109375 752.125 563.074219 752.125 563.042969 L 742.9375 365.035156 C 742.929688 364.945312 742.921875 364.855469 742.914062 364.765625 L 736.644531 273.390625 C 736.640625 273.222656 736.628906 273.050781 736.617188 272.882812 L 731.660156 200.875 C 729.820312 174.039062 716.359375 152.679688 698.050781 137.621094 C 679.746094 122.558594 656.800781 113.046875 633.652344 106.878906 C 633.589844 106.871094 633.523438 106.863281 633.457031 106.855469 C 621.730469 103.917969 607.898438 101.027344 593.605469 97.328125 C 571.253906 91.542969 547.898438 83.632812 531.246094 71.933594 C 514.597656 60.234375 504.539062 46.3125 504.539062 23.742188 L 504.539062 12.441406 C 504.550781 11.609375 504.480469 10.785156 504.324219 9.96875 C 504.171875 9.148438 503.9375 8.355469 503.625 7.582031 C 503.308594 6.8125 502.921875 6.078125 502.460938 5.386719 C 502 4.691406 501.476562 4.050781 500.886719 3.464844 C 500.296875 2.875 499.65625 2.351562 498.960938 1.894531 C 498.269531 1.433594 497.535156 1.046875 496.761719 0.738281 C 495.992188 0.425781 495.195312 0.191406 494.378906 0.0390625 C 493.558594 -0.113281 492.734375 -0.183594 491.902344 -0.171875 Z M 181.035156 298.617188 C 180.21875 298.617188 179.410156 298.695312 178.609375 298.855469 C 177.808594 299.015625 177.03125 299.253906 176.273438 299.566406 C 175.519531 299.878906 174.804688 300.261719 174.125 300.714844 C 173.445312 301.167969 172.816406 301.683594 172.238281 302.261719 C 171.660156 302.839844 171.144531 303.46875 170.691406 304.148438 C 170.238281 304.828125 169.855469 305.542969 169.542969 306.296875 C 169.230469 307.054688 168.992188 307.832031 168.832031 308.632812 C 168.675781 309.433594 168.59375 310.242188 168.59375 311.058594 C 168.59375 311.875 168.675781 312.6875 168.832031 313.488281 C 168.992188 314.289062 169.230469 315.066406 169.542969 315.820312 C 169.855469 316.578125 170.238281 317.292969 170.691406 317.972656 C 171.144531 318.652344 171.660156 319.28125 172.238281 319.859375 C 172.816406 320.4375 173.445312 320.953125 174.125 321.40625 C 174.804688 321.859375 175.519531 322.242188 176.273438 322.554688 C 177.03125 322.867188 177.808594 323.105469 178.609375 323.261719 C 179.410156 323.421875 180.21875 323.503906 181.035156 323.503906 C 181.855469 323.503906 182.664062 323.421875 183.464844 323.261719 C 184.265625 323.105469 185.042969 322.867188 185.796875 322.554688 C 186.554688 322.242188 187.269531 321.859375 187.949219 321.40625 C 188.628906 320.953125 189.257812 320.4375 189.835938 319.859375 C 190.414062 319.28125 190.929688 318.652344 191.382812 317.972656 C 191.835938 317.292969 192.21875 316.578125 192.53125 315.820312 C 192.84375 315.066406 193.082031 314.289062 193.238281 313.488281 C 193.398438 312.6875 193.480469 311.875 193.480469 311.058594 C 193.480469 310.242188 193.398438 309.433594 193.238281 308.632812 C 193.082031 307.832031 192.84375 307.054688 192.53125 306.296875 C 192.21875 305.542969 191.835938 304.828125 191.382812 304.148438 C 190.929688 303.46875 190.414062 302.839844 189.835938 302.261719 C 189.257812 301.683594 188.628906 301.167969 187.949219 300.714844 C 187.269531 300.261719 186.554688 299.878906 185.796875 299.566406 C 185.042969 299.253906 184.265625 299.015625 183.464844 298.855469 C 182.664062 298.695312 181.855469 298.617188 181.035156 298.617188 Z M 628.964844 298.617188 C 628.144531 298.617188 627.335938 298.695312 626.535156 298.855469 C 625.734375 299.015625 624.957031 299.253906 624.203125 299.566406 C 623.445312 299.878906 622.730469 300.261719 622.050781 300.714844 C 621.371094 301.167969 620.742188 301.683594 620.164062 302.261719 C 619.585938 302.839844 619.070312 303.46875 618.617188 304.148438 C 618.164062 304.828125 617.78125 305.542969 617.46875 306.296875 C 617.15625 307.054688 616.917969 307.832031 616.761719 308.632812 C 616.601562 309.433594 616.519531 310.242188 616.519531 311.058594 C 616.519531 311.875 616.601562 312.6875 616.757812 313.488281 C 616.917969 314.289062 617.15625 315.066406 617.46875 315.820312 C 617.78125 316.578125 618.164062 317.292969 618.617188 317.972656 C 619.070312 318.652344 619.585938 319.28125 620.164062 319.859375 C 620.742188 320.4375 621.371094 320.953125 622.050781 321.40625 C 622.730469 321.859375 623.445312 322.242188 624.203125 322.554688 C 624.957031 322.867188 625.734375 323.105469 626.535156 323.261719 C 627.335938 323.421875 628.144531 323.503906 628.964844 323.503906 C 629.78125 323.503906 630.589844 323.421875 631.390625 323.261719 C 632.191406 323.105469 632.96875 322.867188 633.722656 322.554688 C 634.480469 322.242188 635.195312 321.859375 635.875 321.40625 C 636.554688 320.953125 637.183594 320.4375 637.761719 319.859375 C 638.339844 319.28125 638.855469 318.652344 639.308594 317.972656 C 639.761719 317.292969 640.144531 316.578125 640.457031 315.820312 C 640.769531 315.066406 641.007812 314.289062 641.167969 313.488281 C 641.324219 312.6875 641.40625 311.875 641.40625 311.058594 C 641.40625 310.242188 641.324219 309.433594 641.167969 308.632812 C 641.007812 307.832031 640.769531 307.054688 640.457031 306.296875 C 640.144531 305.542969 639.761719 304.828125 639.308594 304.148438 C 638.855469 303.46875 638.339844 302.839844 637.761719 302.261719 C 637.183594 301.683594 636.554688 301.167969 635.875 300.714844 C 635.195312 300.261719 634.480469 299.878906 633.722656 299.566406 C 632.96875 299.253906 632.191406 299.015625 631.390625 298.855469 C 630.589844 298.695312 629.78125 298.617188 628.964844 298.617188 Z M 405 385.714844 L 395.035156 390.71875 L 393.066406 401.679688 L 400.675781 409.820312 L 405 410.597656 L 414.964844 405.59375 L 416.933594 394.632812 L 409.324219 386.492188 Z M 405 435.484375 L 395.035156 440.488281 L 393.066406 451.449219 L 400.675781 459.589844 L 405 460.367188 L 414.964844 455.363281 L 416.933594 444.402344 L 409.324219 436.261719 Z M 206.992188 453.222656 C 210.996094 469.917969 215.542969 489.636719 221.183594 515.265625 C 230.738281 558.6875 240.398438 580.101562 213.648438 634.027344 L 183.222656 569.410156 C 182.03125 565.265625 181.675781 560.90625 182.226562 556.601562 Z M 603.007812 453.222656 L 627.773438 556.601562 C 628.324219 560.90625 627.96875 565.265625 626.777344 569.410156 L 596.351562 634.027344 C 569.601562 580.101562 579.261719 558.6875 588.816406 515.265625 C 594.457031 489.636719 599.003906 469.917969 603.007812 453.222656 Z M 405 485.253906 L 395.035156 490.257812 L 393.066406 501.21875 L 400.675781 509.359375 L 405 510.136719 L 414.964844 505.132812 L 416.933594 494.171875 L 409.324219 486.03125 Z M 405 535.023438 L 395.035156 540.027344 L 393.066406 550.988281 L 400.675781 559.128906 L 405 559.90625 L 414.964844 554.902344 L 416.933594 543.941406 L 409.324219 535.800781 Z M 405 584.792969 L 395.035156 589.796875 L 393.066406 600.757812 L 400.675781 608.898438 L 405 609.675781 L 414.964844 604.671875 L 416.933594 593.710938 L 409.324219 585.570312 Z M 405 634.5625 L 395.035156 639.570312 L 393.066406 650.527344 L 400.675781 658.667969 L 405 659.445312 L 414.964844 654.441406 L 416.933594 643.480469 L 409.324219 635.339844 Z M 405 684.332031 L 395.035156 689.339844 L 393.066406 700.296875 L 400.675781 708.4375 L 405 709.214844 L 414.964844 704.210938 L 416.933594 693.25 L 409.324219 685.109375 Z M 405 734.101562 L 395.035156 739.109375 L 393.066406 750.066406 L 400.675781 758.207031 L 405 758.984375 L 414.964844 753.980469 L 416.933594 743.019531 L 409.324219 734.878906 Z M 405 734.101562 "
        fill-opacity="1" fill-rule="nonzero" />
    <g clip-path="url(#5c34e95975)">
        <g clip-path="url(#74f04cfac1)">
            <path fill="#2d7bc5"
                d="M 319.199219 444.273438 L 370.746094 444.273438 L 370.746094 495.816406 L 319.199219 495.816406 Z M 319.199219 444.273438 "
                fill-opacity="1" fill-rule="nonzero" />
        </g>
    </g>
    <!-- ZERO -->
    <g fill="#ffffff" fill-opacity="1">
        <g transform="translate(335.542984, 480.272732)">
            <g>
                <path
                    d="M 9.40625 0.28125 C 7.832031 0.28125 6.460938 -0.0664062 5.296875 -0.765625 C 4.140625 -1.460938 3.238281 -2.550781 2.59375 -4.03125 C 1.945312 -5.507812 1.625 -7.378906 1.625 -9.640625 C 1.625 -11.898438 1.945312 -13.765625 2.59375 -15.234375 C 3.238281 -16.710938 4.140625 -17.800781 5.296875 -18.5 C 6.460938 -19.195312 7.832031 -19.546875 9.40625 -19.546875 C 10.988281 -19.546875 12.363281 -19.195312 13.53125 -18.5 C 14.695312 -17.800781 15.601562 -16.710938 16.25 -15.234375 C 16.894531 -13.765625 17.21875 -11.898438 17.21875 -9.640625 C 17.21875 -7.378906 16.894531 -5.507812 16.25 -4.03125 C 15.601562 -2.550781 14.695312 -1.460938 13.53125 -0.765625 C 12.363281 -0.0664062 10.988281 0.28125 9.40625 0.28125 Z M 9.40625 -2.953125 C 10.269531 -2.953125 10.992188 -3.160156 11.578125 -3.578125 C 12.160156 -3.992188 12.601562 -4.691406 12.90625 -5.671875 C 13.21875 -6.660156 13.375 -7.984375 13.375 -9.640625 C 13.375 -11.285156 13.21875 -12.597656 12.90625 -13.578125 C 12.601562 -14.566406 12.160156 -15.269531 11.578125 -15.6875 C 10.992188 -16.113281 10.269531 -16.328125 9.40625 -16.328125 C 8.550781 -16.328125 7.832031 -16.113281 7.25 -15.6875 C 6.664062 -15.269531 6.21875 -14.566406 5.90625 -13.578125 C 5.59375 -12.597656 5.4375 -11.285156 5.4375 -9.640625 C 5.4375 -7.984375 5.59375 -6.660156 5.90625 -5.671875 C 6.21875 -4.691406 6.664062 -3.992188 7.25 -3.578125 C 7.832031 -3.160156 8.550781 -2.953125 9.40625 -2.953125 Z M 9.40625 -2.953125 " />
            </g>
        </g>
    </g>
    <g clip-path="url(#4cb56f8922)">
        <g clip-path="url(#5ad6fbfbca)">
            <path fill="#2d7bc5"
                d="M 319.199219 517.910156 L 370.746094 517.910156 L 370.746094 569.453125 L 319.199219 569.453125 Z M 319.199219 517.910156 "
                fill-opacity="1" fill-rule="nonzero" />
        </g>
    </g>
    <!-- ONE -->
    <g fill="#ffffff" fill-opacity="1">
        <g transform="translate(337.844518, 553.159096)">
            <g>
                <path
                    d="M 1.015625 0 L 1.015625 -3.15625 L 5.671875 -3.15625 L 5.671875 -15.140625 L 5.359375 -15.234375 C 4.703125 -14.910156 4.054688 -14.65625 3.421875 -14.46875 C 2.785156 -14.289062 2.054688 -14.148438 1.234375 -14.046875 L 1.234375 -17.296875 C 3.367188 -17.742188 5.097656 -18.40625 6.421875 -19.28125 L 9.4375 -19.28125 L 9.4375 -3.15625 L 13.59375 -3.15625 L 13.59375 0 Z M 1.015625 0 " />
            </g>
        </g>
    </g>
    <g clip-path="url(#b8c54c0ccd)">
        <g clip-path="url(#f64e2e9934)">
            <path fill="#2d7bc5"
                d="M 319.199219 591.546875 L 370.746094 591.546875 L 370.746094 643.089844 L 319.199219 643.089844 Z M 319.199219 591.546875 "
                fill-opacity="1" fill-rule="nonzero" />
        </g>
    </g>
    <!-- TWO -->
    <g fill="#ffffff" fill-opacity="1">
        <g transform="translate(337.434362, 626.795436)">
            <g>
                <path
                    d="M 0.9375 -1.53125 C 0.9375 -2.59375 1.050781 -3.488281 1.28125 -4.21875 C 1.519531 -4.945312 1.898438 -5.613281 2.421875 -6.21875 C 2.953125 -6.820312 3.703125 -7.46875 4.671875 -8.15625 L 7.234375 -10.015625 C 7.941406 -10.515625 8.488281 -10.945312 8.875 -11.3125 C 9.269531 -11.6875 9.566406 -12.078125 9.765625 -12.484375 C 9.960938 -12.890625 10.0625 -13.351562 10.0625 -13.875 C 10.0625 -14.65625 9.820312 -15.257812 9.34375 -15.6875 C 8.875 -16.113281 8.164062 -16.328125 7.21875 -16.328125 C 6.300781 -16.328125 5.484375 -16.109375 4.765625 -15.671875 C 4.054688 -15.234375 3.46875 -14.632812 3 -13.875 L 2.75 -13.8125 L 0.65625 -16.15625 C 1.34375 -17.175781 2.238281 -17.992188 3.34375 -18.609375 C 4.445312 -19.234375 5.785156 -19.546875 7.359375 -19.546875 C 8.796875 -19.546875 10 -19.304688 10.96875 -18.828125 C 11.945312 -18.359375 12.671875 -17.710938 13.140625 -16.890625 C 13.609375 -16.066406 13.84375 -15.125 13.84375 -14.0625 C 13.84375 -13.15625 13.648438 -12.320312 13.265625 -11.5625 C 12.890625 -10.800781 12.363281 -10.097656 11.6875 -9.453125 C 11.007812 -8.816406 10.140625 -8.128906 9.078125 -7.390625 L 6.796875 -5.796875 C 6.117188 -5.304688 5.640625 -4.867188 5.359375 -4.484375 C 5.085938 -4.109375 4.953125 -3.675781 4.953125 -3.1875 L 13.65625 -3.1875 L 13.65625 0 L 0.9375 0 Z M 0.9375 -1.53125 " />
            </g>
        </g>
    </g>
    <g clip-path="url(#9c2eb98f36)">
        <g clip-path="url(#08593d2dcb)">
            <path fill="#2d7bc5"
                d="M 319.199219 664.839844 L 370.746094 664.839844 L 370.746094 716.386719 L 319.199219 716.386719 Z M 319.199219 664.839844 "
                fill-opacity="1" fill-rule="nonzero" />
        </g>
    </g>
    <!-- THREE -->
    <g fill="#ffffff" fill-opacity="1">
        <g transform="translate(336.989049, 700.090881)">
            <g>
                <path
                    d="M 7.859375 0.28125 C 5.796875 0.28125 4.15625 -0.15625 2.9375 -1.03125 C 1.726562 -1.90625 0.960938 -3.144531 0.640625 -4.75 L 3.515625 -6.09375 L 3.828125 -6.03125 C 4.148438 -4.96875 4.613281 -4.191406 5.21875 -3.703125 C 5.820312 -3.222656 6.65625 -2.984375 7.71875 -2.984375 C 8.757812 -2.984375 9.550781 -3.222656 10.09375 -3.703125 C 10.644531 -4.191406 10.921875 -4.894531 10.921875 -5.8125 C 10.921875 -6.71875 10.648438 -7.410156 10.109375 -7.890625 C 9.566406 -8.378906 8.769531 -8.625 7.71875 -8.625 L 4.828125 -8.625 L 4.828125 -11.59375 L 7.359375 -11.59375 C 8.222656 -11.59375 8.90625 -11.804688 9.40625 -12.234375 C 9.914062 -12.660156 10.171875 -13.273438 10.171875 -14.078125 C 10.171875 -14.867188 9.929688 -15.460938 9.453125 -15.859375 C 8.972656 -16.265625 8.3125 -16.46875 7.46875 -16.46875 C 6.613281 -16.46875 5.851562 -16.265625 5.1875 -15.859375 C 4.519531 -15.453125 3.988281 -14.90625 3.59375 -14.21875 L 3.28125 -14.171875 L 1.28125 -16.5 C 1.957031 -17.414062 2.828125 -18.148438 3.890625 -18.703125 C 4.953125 -19.265625 6.21875 -19.546875 7.6875 -19.546875 C 9.707031 -19.546875 11.25 -19.125 12.3125 -18.28125 C 13.375 -17.4375 13.90625 -16.25 13.90625 -14.71875 C 13.90625 -13.800781 13.6875 -13.015625 13.25 -12.359375 C 12.820312 -11.703125 12.207031 -11.140625 11.40625 -10.671875 L 11.40625 -10.390625 C 13.625 -9.609375 14.734375 -8.023438 14.734375 -5.640625 C 14.734375 -4.441406 14.476562 -3.398438 13.96875 -2.515625 C 13.457031 -1.628906 12.6875 -0.941406 11.65625 -0.453125 C 10.632812 0.0351562 9.367188 0.28125 7.859375 0.28125 Z M 7.859375 0.28125 " />
            </g>
        </g>
    </g>
    <g clip-path="url(#77a572976c)">
        <g clip-path="url(#ca6f59dce3)">
            <path fill="#2d7bc5"
                d="M 439.199219 444.273438 L 490.746094 444.273438 L 490.746094 495.816406 L 439.199219 495.816406 Z M 439.199219 444.273438 "
                fill-opacity="1" fill-rule="nonzero" />
        </g>
    </g>
    <!-- FOUR -->
    <g fill="#ffffff" fill-opacity="1">
        <g transform="translate(456.567144, 479.522732)">
            <g>
                <path
                    d="M 13.09375 0 L 9.4375 0 L 9.4375 -4.1875 L 0.65625 -4.1875 L 0.65625 -7.265625 L 8.21875 -19.28125 L 13.09375 -19.28125 L 13.09375 -7.265625 L 16.0625 -7.265625 L 16.0625 -4.1875 L 13.09375 -4.1875 Z M 4.5625 -7.546875 L 4.6875 -7.265625 L 9.4375 -7.265625 L 9.4375 -14.71875 L 9.140625 -14.78125 Z M 4.5625 -7.546875 " />
            </g>
        </g>
    </g>
    <g clip-path="url(#faab12abf3)">
        <g clip-path="url(#e3d5ae6b24)">
            <path fill="#2d7bc5"
                d="M 439.199219 517.910156 L 490.746094 517.910156 L 490.746094 569.453125 L 439.199219 569.453125 Z M 439.199219 517.910156 "
                fill-opacity="1" fill-rule="nonzero" />
        </g>
    </g>
    <!-- FIVE -->
    <g fill="#ffffff" fill-opacity="1">
        <g transform="translate(456.836675, 553.159096)">
            <g>
                <path
                    d="M 8.03125 0.28125 C 6.101562 0.28125 4.570312 -0.125 3.4375 -0.9375 C 2.3125 -1.75 1.578125 -2.878906 1.234375 -4.328125 L 4.125 -5.609375 L 4.4375 -5.546875 C 4.71875 -4.691406 5.132812 -4.050781 5.6875 -3.625 C 6.25 -3.195312 7.015625 -2.984375 7.984375 -2.984375 C 8.992188 -2.984375 9.769531 -3.265625 10.3125 -3.828125 C 10.851562 -4.398438 11.125 -5.253906 11.125 -6.390625 C 11.125 -7.515625 10.851562 -8.367188 10.3125 -8.953125 C 9.769531 -9.535156 9.035156 -9.828125 8.109375 -9.828125 C 7.398438 -9.828125 6.800781 -9.671875 6.3125 -9.359375 C 5.832031 -9.054688 5.429688 -8.597656 5.109375 -7.984375 L 1.953125 -8.21875 L 2.34375 -19.28125 L 13.8125 -19.28125 L 13.8125 -16.078125 L 5.546875 -16.078125 L 5.359375 -11.15625 L 5.640625 -11.09375 C 6.085938 -11.6875 6.625 -12.132812 7.25 -12.4375 C 7.875 -12.738281 8.625 -12.890625 9.5 -12.890625 C 10.601562 -12.890625 11.566406 -12.644531 12.390625 -12.15625 C 13.210938 -11.675781 13.847656 -10.953125 14.296875 -9.984375 C 14.742188 -9.023438 14.96875 -7.847656 14.96875 -6.453125 C 14.96875 -5.046875 14.695312 -3.835938 14.15625 -2.828125 C 13.613281 -1.816406 12.820312 -1.046875 11.78125 -0.515625 C 10.75 0.015625 9.5 0.28125 8.03125 0.28125 Z M 8.03125 0.28125 " />
            </g>
        </g>
    </g>
    <g clip-path="url(#1b8f485fdd)">
        <g clip-path="url(#085e0fd373)">
            <path fill="#2d7bc5"
                d="M 439.199219 591.546875 L 490.746094 591.546875 L 490.746094 643.089844 L 439.199219 643.089844 Z M 439.199219 591.546875 "
                fill-opacity="1" fill-rule="nonzero" />
        </g>
    </g>
    <!-- SIX -->
    <g fill="#ffffff" fill-opacity="1">
        <g transform="translate(456.203863, 626.795436)">
            <g>
                <path
                    d="M 9.21875 0.28125 C 7.769531 0.28125 6.472656 -0.0507812 5.328125 -0.71875 C 4.191406 -1.394531 3.289062 -2.457031 2.625 -3.90625 C 1.957031 -5.363281 1.625 -7.210938 1.625 -9.453125 C 1.625 -11.734375 1.972656 -13.628906 2.671875 -15.140625 C 3.378906 -16.648438 4.34375 -17.757812 5.5625 -18.46875 C 6.78125 -19.1875 8.175781 -19.546875 9.75 -19.546875 C 11.050781 -19.546875 12.175781 -19.359375 13.125 -18.984375 C 14.070312 -18.609375 14.804688 -18.050781 15.328125 -17.3125 L 13.453125 -14.90625 L 13.125 -14.90625 C 12.332031 -15.863281 11.207031 -16.34375 9.75 -16.34375 C 7 -16.34375 5.59375 -14.335938 5.53125 -10.328125 L 5.8125 -10.234375 C 6.257812 -11.054688 6.847656 -11.6875 7.578125 -12.125 C 8.316406 -12.5625 9.242188 -12.78125 10.359375 -12.78125 C 11.554688 -12.78125 12.585938 -12.523438 13.453125 -12.015625 C 14.328125 -11.515625 14.992188 -10.789062 15.453125 -9.84375 C 15.921875 -8.90625 16.15625 -7.789062 16.15625 -6.5 C 16.15625 -5.09375 15.875 -3.878906 15.3125 -2.859375 C 14.757812 -1.835938 13.957031 -1.054688 12.90625 -0.515625 C 11.863281 0.015625 10.632812 0.28125 9.21875 0.28125 Z M 9.140625 -2.984375 C 10.128906 -2.984375 10.90625 -3.273438 11.46875 -3.859375 C 12.03125 -4.441406 12.3125 -5.257812 12.3125 -6.3125 C 12.3125 -7.363281 12.03125 -8.179688 11.46875 -8.765625 C 10.90625 -9.359375 10.128906 -9.65625 9.140625 -9.65625 C 8.484375 -9.65625 7.910156 -9.515625 7.421875 -9.234375 C 6.941406 -8.960938 6.566406 -8.578125 6.296875 -8.078125 C 6.035156 -7.578125 5.90625 -6.988281 5.90625 -6.3125 C 5.90625 -5.28125 6.191406 -4.46875 6.765625 -3.875 C 7.347656 -3.28125 8.140625 -2.984375 9.140625 -2.984375 Z M 9.140625 -2.984375 " />
            </g>
        </g>
    </g>
    <g clip-path="url(#73a314e77c)">
        <g clip-path="url(#7584ddbebd)">
            <path fill="#2d7bc5"
                d="M 439.199219 664.839844 L 490.746094 664.839844 L 490.746094 716.386719 L 439.199219 716.386719 Z M 439.199219 664.839844 "
                fill-opacity="1" fill-rule="nonzero" />
        </g>
    </g>
    <!-- SEVEN -->
    <g fill="#ffffff" fill-opacity="1">
        <g transform="translate(458.125738, 700.090881)">
            <g>
                <path
                    d="M 6.40625 0 L 2.515625 0 L 9.15625 -15.796875 L 9.078125 -16.078125 L 0.53125 -16.078125 L 0.53125 -19.28125 L 13.03125 -19.28125 L 13.03125 -15.90625 Z M 6.40625 0 " />
            </g>
        </g>
    </g>
</svg>