<svg xmlns="http://www.w3.org/2000/svg" width="1980" zoomAndPan="magnify" viewBox="0 0 1485 809.999993" height="1080" preserveAspectRatio="xMidYMid meet" version="1.0">
    <defs>
        <g />
    </defs>
    <path stroke-linecap="butt" transform="matrix(0.75, 0, 0, 0.75, 0.00000641667, 197.170952)" fill="none" stroke-linejoin="miter" d="M -0.00000855556 352.923124 L 208.000002 352.923124 L 208.000002 4.501231 L 228.000003 4.501231 L 228.000003 352.923124 L 248.500004 352.923124 L 248.500004 368.959583 " stroke="#c3ccdf" stroke-width="9" stroke-opacity="1" stroke-miterlimit="4" />
    <path stroke-linecap="butt" transform="matrix(0.75, 0, 0, 0.75, 182.999997, 449.838861)" fill="none" stroke-linejoin="miter" d="M 4.500004 16.032561 L 4.500004 370.303412 L 24.500005 370.303412 L 24.500005 16.032561 L 45.000006 16.032561 L 45.000006 0.00130984 " stroke="#c3ccdf" stroke-width="9" stroke-opacity="1" stroke-miterlimit="4" />
    <path stroke-linecap="butt" transform="matrix(0.75, 0, 0, 0.75, 213.374996, 197.170952)" fill="none" stroke-linejoin="miter" d="M 4.500006 352.923124 L 4.500006 4.501231 L 24.500007 4.501231 L 24.500007 352.923124 L 45.000008 352.923124 L 45.000008 368.959583 " stroke="#c3ccdf" stroke-width="9" stroke-opacity="1" stroke-miterlimit="4" />
    <path stroke-linecap="butt" transform="matrix(0.75, 0, 0, 0.75, 243.749994, 449.838861)" fill="none" stroke-linejoin="miter" d="M 4.500008 16.032561 L 4.500008 370.303412 L 24.500009 370.303412 L 24.500009 16.032561 L 45.00001 16.032561 L 45.00001 0.00130984 " stroke="#c3ccdf" stroke-width="9" stroke-opacity="1" stroke-miterlimit="4" />
    <path stroke-linecap="butt" transform="matrix(0.75, 0, 0, 0.75, 274.124993, 197.170952)" fill="none" stroke-linejoin="miter" d="M 4.50001 352.923124 L 4.50001 4.501231 L 24.500011 4.501231 L 24.500011 352.923124 L 45.000012 352.923124 L 45.000012 368.959583 " stroke="#c3ccdf" stroke-width="9" stroke-opacity="1" stroke-miterlimit="4" />
    <path stroke-linecap="butt" transform="matrix(0.75, 0, 0, 0.75, 304.499991, 449.838861)" fill="none" stroke-linejoin="miter" d="M 4.500012 16.032561 L 4.500012 370.303412 L 24.500013 370.303412 L 24.500013 16.032561 L 45.000014 16.032561 L 45.000014 0.00130984 " stroke="#c3ccdf" stroke-width="9" stroke-opacity="1" stroke-miterlimit="4" />
    <path stroke-linecap="butt" transform="matrix(0.75, 0, 0, 0.75, 334.87499, 197.170952)" fill="none" stroke-linejoin="miter" d="M 4.500014 352.923124 L 4.500014 4.501231 L 24.500015 4.501231 L 24.500015 352.923124 L 45.000016 352.923124 L 45.000016 368.959583 " stroke="#c3ccdf" stroke-width="9" stroke-opacity="1" stroke-miterlimit="4" />
    <path stroke-linecap="butt" transform="matrix(0.75, 0, 0, 0.75, 365.249988, 449.838861)" fill="none" stroke-linejoin="miter" d="M 4.500016 16.032561 L 4.500016 370.303412 L 24.500017 370.303412 L 24.500017 16.032561 L 45.000018 16.032561 L 45.000018 0.00130984 " stroke="#c3ccdf" stroke-width="9" stroke-opacity="1" stroke-miterlimit="4" />
    <path stroke-linecap="butt" transform="matrix(0.75, 0, 0, 0.75, 395.624987, 197.170952)" fill="none" stroke-linejoin="miter" d="M 4.500018 352.923124 L 4.500018 4.501231 L 24.500019 4.501231 L 24.500019 352.923124 L 45.00002 352.923124 L 45.00002 368.959583 " stroke="#c3ccdf" stroke-width="9" stroke-opacity="1" stroke-miterlimit="4" />
    <path stroke-linecap="butt" transform="matrix(0.75, 0, 0, 0.75, 425.999985, 458.489589)" fill="none" stroke-linejoin="miter" d="M 4.50002 4.498257 L 4.50002 358.769108 L 24.500021 358.769108 L 24.500021 4.498257 L 719.500056 4.498257 " stroke="#c3ccdf" stroke-width="9" stroke-opacity="1" stroke-miterlimit="4" />
    <path stroke-linecap="butt" transform="matrix(0.75, 0, 0, 0.75, 965.624958, 197.170952)" fill="none" stroke-linejoin="miter" d="M 0.0000562168 352.923124 L 100.000061 352.923124 L 100.000061 4.501231 L 120.000062 4.501231 L 120.000062 352.923124 L 140.500063 352.923124 L 140.500063 368.959583 " stroke="#c3ccdf" stroke-width="9" stroke-opacity="1" stroke-miterlimit="4" />
    <path stroke-linecap="butt" transform="matrix(0.75, 0, 0, 0.75, 1067.624953, 449.838861)" fill="none" stroke-linejoin="miter" d="M 4.500063 16.032561 L 4.500063 370.303412 L 24.500064 370.303412 L 24.500064 16.032561 L 45.000065 16.032561 L 45.000065 0.00130984 " stroke="#c3ccdf" stroke-width="9" stroke-opacity="1" stroke-miterlimit="4" />
    <path stroke-linecap="butt" transform="matrix(0.75, 0, 0, 0.75, 1097.999951, 197.170952)" fill="none" stroke-linejoin="miter" d="M 4.500065 352.923124 L 4.500065 4.501231 L 24.500066 4.501231 L 24.500066 352.923124 L 45.000067 352.923124 L 45.000067 368.959583 " stroke="#c3ccdf" stroke-width="9" stroke-opacity="1" stroke-miterlimit="4" />
    <path stroke-linecap="butt" transform="matrix(0.75, 0, 0, 0.75, 1128.37495, 449.838861)" fill="none" stroke-linejoin="miter" d="M 4.500067 16.032561 L 4.500067 370.303412 L 24.500068 370.303412 L 24.500068 16.032561 L 45.000069 16.032561 L 45.000069 0.00130984 " stroke="#c3ccdf" stroke-width="9" stroke-opacity="1" stroke-miterlimit="4" />
    <path stroke-linecap="butt" transform="matrix(0.75, 0, 0, 0.75, 1158.749948, 197.170952)" fill="none" stroke-linejoin="miter" d="M 4.500069 352.923124 L 4.500069 4.501231 L 24.50007 4.501231 L 24.50007 352.923124 L 45.000071 352.923124 L 45.000071 368.959583 " stroke="#c3ccdf" stroke-width="9" stroke-opacity="1" stroke-miterlimit="4" />
    <path stroke-linecap="butt" transform="matrix(0.75, 0, 0, 0.75, 1189.124947, 449.838861)" fill="none" stroke-linejoin="miter" d="M 4.500071 16.032561 L 4.500071 370.303412 L 24.500072 370.303412 L 24.500072 16.032561 L 45.000073 16.032561 L 45.000073 0.00130984 " stroke="#c3ccdf" stroke-width="9" stroke-opacity="1" stroke-miterlimit="4" />
    <path stroke-linecap="butt" transform="matrix(0.75, 0, 0, 0.75, 1219.499945, 197.170952)" fill="none" stroke-linejoin="miter" d="M 4.500073 352.923124 L 4.500073 4.501231 L 24.500074 4.501231 L 24.500074 352.923124 L 45.000076 352.923124 L 45.000076 368.959583 " stroke="#c3ccdf" stroke-width="9" stroke-opacity="1" stroke-miterlimit="4" />
    <path stroke-linecap="butt" transform="matrix(0.75, 0, 0, 0.75, 1249.874944, 449.838861)" fill="none" stroke-linejoin="miter" d="M 4.500076 16.032561 L 4.500076 370.303412 L 24.500077 370.303412 L 24.500077 16.032561 L 45.000078 16.032561 L 45.000078 0.00130984 " stroke="#c3ccdf" stroke-width="9" stroke-opacity="1" stroke-miterlimit="4" />
    <path stroke-linecap="butt" transform="matrix(0.75, 0, 0, 0.75, 1280.249942, 197.170952)" fill="none" stroke-linejoin="miter" d="M 4.500078 352.923124 L 4.500078 4.501231 L 24.500079 4.501231 L 24.500079 352.923124 L 45.00008 352.923124 L 45.00008 368.959583 " stroke="#c3ccdf" stroke-width="9" stroke-opacity="1" stroke-miterlimit="4" />
    <path stroke-linecap="butt" transform="matrix(0.75, 0, 0, 0.75, 1310.62494, 458.489589)" fill="none" stroke-linejoin="miter" d="M 4.50008 4.498257 L 4.50008 358.769108 L 24.500081 358.769108 L 24.500081 4.498257 L 232.500091 4.498257 " stroke="#c3ccdf" stroke-width="9" stroke-opacity="1" stroke-miterlimit="4" />
    <path stroke-linecap="butt" transform="matrix(0.75, 0, 0, 0.75, 558.71249, 241.03826)" fill="none" stroke-linejoin="miter" d="M -0.00207041 111.193784 L 99.997935 111.193784 L 99.997935 4.50107 L 209.99794 4.50107 L 209.99794 111.193784 L 280.07086 111.193784 L 280.07086 132.355243 " stroke="#c3ccdf" stroke-width="9" stroke-opacity="1" stroke-miterlimit="4" />
    <path stroke-linecap="butt" transform="matrix(0.75, 0, 0, 0.75, 765.391552, 321.057601)" fill="none" stroke-linejoin="miter" d="M 4.498764 4.501323 L 4.498764 111.881537 L 114.49877 111.881537 L 114.49877 4.501323 L 214.530025 4.501323 " stroke="#c3ccdf" stroke-width="9" stroke-opacity="1" stroke-miterlimit="4" />
    
    <path stroke-linecap="butt" transform="matrix(0.75, 0, 0, 0.75, 630.398303, 210.979668)" fill="none" stroke-linejoin="miter" d="M 6.75018 4.501068 L 112.380394 4.501068 " stroke="#c3ccdf" stroke-width="9" stroke-opacity="1" stroke-miterlimit="4" />
    <path stroke-linecap="round" transform="matrix(0.75, 0, 0, 0.75, 630.398303, 210.979668)" fill="none" stroke-linejoin="round" d="M 4.50018 -8.998933 L 4.50018 18.001069 " stroke="#c3ccdf" stroke-width="9" stroke-opacity="1" stroke-miterlimit="4" />
    <path stroke-linecap="round" transform="matrix(0.75, 0, 0, 0.75, 630.398303, 210.979668)" fill="none" stroke-linejoin="round" d="M 114.630394 -8.998933 L 114.630394 18.001069 " stroke="#c3ccdf" stroke-width="9" stroke-opacity="1" stroke-miterlimit="4" />
    
    <g fill="#ffffff" fill-opacity="1">
        <g transform="translate(660.011582, 203.49127)">
            <g>
                <path d="M 15.046875 -19.28125 L 15.046875 -17.34375 L 9 -17.34375 L 9 0 L 6.75 0 L 6.75 -17.34375 L 0.71875 -17.34375 L 0.71875 -19.28125 Z M 15.046875 -19.28125 " />
            </g>
        </g>
        <g transform="translate(675.752793, 203.49127)">
            <g>
                <path d="M 1.375 0 L 1.375 -1.875 L 6.625 -1.875 L 6.625 -16.609375 L 6.328125 -16.6875 C 5.472656 -16.269531 4.722656 -15.945312 4.078125 -15.71875 C 3.441406 -15.5 2.625 -15.28125 1.625 -15.0625 L 1.625 -17.15625 C 2.613281 -17.363281 3.59375 -17.644531 4.5625 -18 C 5.539062 -18.363281 6.425781 -18.789062 7.21875 -19.28125 L 8.84375 -19.28125 L 8.84375 -1.875 L 13.546875 -1.875 L 13.546875 0 Z M 1.375 0 " />
            </g>
        </g>
    </g>
    
    <path stroke-linecap="butt" transform="matrix(0.75, 0, 0, 0.75, 712.679803, 210.979668)" fill="none" stroke-linejoin="miter" d="M 6.749847 4.501068 L 72.770684 4.501068 " stroke="#c3ccdf" stroke-width="9" stroke-opacity="1" stroke-miterlimit="4" />
    <path stroke-linecap="round" transform="matrix(0.75, 0, 0, 0.75, 712.679803, 210.979668)" fill="none" stroke-linejoin="round" d="M 4.499847 -8.998933 L 4.499847 18.001069 " stroke="#c3ccdf" stroke-width="9" stroke-opacity="1" stroke-miterlimit="4" />
    <path stroke-linecap="round" transform="matrix(0.75, 0, 0, 0.75, 712.679803, 210.979668)" fill="none" stroke-linejoin="round" d="M 75.020684 -8.998933 L 75.020684 18.001069 " stroke="#c3ccdf" stroke-width="9" stroke-opacity="1" stroke-miterlimit="4" />
    
    <g fill="#ffffff" fill-opacity="1">
        <g transform="translate(726.273552, 203.49127)">
            <g>
                <path d="M 15.046875 -19.28125 L 15.046875 -17.34375 L 9 -17.34375 L 9 0 L 6.75 0 L 6.75 -17.34375 L 0.71875 -17.34375 L 0.71875 -19.28125 Z M 15.046875 -19.28125 " />
            </g>
        </g>
        <g transform="translate(742.014762, 203.49127)">
            <g>
                <path d="M 1.15625 -0.890625 C 1.15625 -1.953125 1.269531 -2.804688 1.5 -3.453125 C 1.738281 -4.109375 2.140625 -4.71875 2.703125 -5.28125 C 3.265625 -5.84375 4.160156 -6.570312 5.390625 -7.46875 L 7.515625 -9 C 8.296875 -9.570312 8.929688 -10.097656 9.421875 -10.578125 C 9.921875 -11.066406 10.3125 -11.59375 10.59375 -12.15625 C 10.875 -12.726562 11.015625 -13.363281 11.015625 -14.0625 C 11.015625 -15.207031 10.710938 -16.066406 10.109375 -16.640625 C 9.503906 -17.222656 8.554688 -17.515625 7.265625 -17.515625 C 6.242188 -17.515625 5.335938 -17.273438 4.546875 -16.796875 C 3.753906 -16.328125 3.125 -15.660156 2.65625 -14.796875 L 2.34375 -14.734375 L 0.984375 -16.15625 C 1.640625 -17.21875 2.492188 -18.046875 3.546875 -18.640625 C 4.609375 -19.242188 5.847656 -19.546875 7.265625 -19.546875 C 8.640625 -19.546875 9.773438 -19.3125 10.671875 -18.84375 C 11.578125 -18.382812 12.242188 -17.742188 12.671875 -16.921875 C 13.109375 -16.097656 13.328125 -15.144531 13.328125 -14.0625 C 13.328125 -13.207031 13.144531 -12.40625 12.78125 -11.65625 C 12.425781 -10.90625 11.914062 -10.203125 11.25 -9.546875 C 10.59375 -8.890625 9.769531 -8.195312 8.78125 -7.46875 L 6.625 -5.890625 C 5.832031 -5.304688 5.21875 -4.804688 4.78125 -4.390625 C 4.351562 -3.972656 4.039062 -3.566406 3.84375 -3.171875 C 3.644531 -2.785156 3.546875 -2.351562 3.546875 -1.875 L 13.328125 -1.875 L 13.328125 0 L 1.15625 0 Z M 1.15625 -0.890625 " />
            </g>
        </g>
    </g>
    
    <path stroke-linecap="butt" transform="matrix(0.75, 0, 0, 0.75, 765.57448, 210.979668)" fill="none" stroke-linejoin="miter" d="M 6.749652 4.501068 L 112.385074 4.501068 " stroke="#c3ccdf" stroke-width="9" stroke-opacity="1" stroke-miterlimit="4" />
    <path stroke-linecap="round" transform="matrix(0.75, 0, 0, 0.75, 765.57448, 210.979668)" fill="none" stroke-linejoin="round" d="M 4.499652 -8.998933 L 4.499652 18.001069 " stroke="#c3ccdf" stroke-width="9" stroke-opacity="1" stroke-miterlimit="4" />
    <path stroke-linecap="round" transform="matrix(0.75, 0, 0, 0.75, 765.57448, 210.979668)" fill="none" stroke-linejoin="round" d="M 114.635074 -8.998933 L 114.635074 18.001069 " stroke="#c3ccdf" stroke-width="9" stroke-opacity="1" stroke-miterlimit="4" />
    
    <g fill="#ffffff" fill-opacity="1">
        <g transform="translate(795.18776, 203.49127)">
            <g>
                <path d="M 15.046875 -19.28125 L 15.046875 -17.34375 L 9 -17.34375 L 9 0 L 6.75 0 L 6.75 -17.34375 L 0.71875 -17.34375 L 0.71875 -19.28125 Z M 15.046875 -19.28125 " />
            </g>
        </g>
        <g transform="translate(810.92897, 203.49127)">
            <g>
                <path d="M 1.375 0 L 1.375 -1.875 L 6.625 -1.875 L 6.625 -16.609375 L 6.328125 -16.6875 C 5.472656 -16.269531 4.722656 -15.945312 4.078125 -15.71875 C 3.441406 -15.5 2.625 -15.28125 1.625 -15.0625 L 1.625 -17.15625 C 2.613281 -17.363281 3.59375 -17.644531 4.5625 -18 C 5.539062 -18.363281 6.425781 -18.789062 7.21875 -19.28125 L 8.84375 -19.28125 L 8.84375 -1.875 L 13.546875 -1.875 L 13.546875 0 Z M 1.375 0 " />
            </g>
        </g>
    </g>
    
    <path stroke-linecap="butt" transform="matrix(0.75, 0, 0, 0.75, 847.782324, 210.979668)" fill="none" stroke-linejoin="miter" d="M 6.748569 4.501068 L 97.925657 4.501068 " stroke="#c3ccdf" stroke-width="9" stroke-opacity="1" stroke-miterlimit="4" />
    <path stroke-linecap="round" transform="matrix(0.75, 0, 0, 0.75, 847.782324, 210.979668)" fill="none" stroke-linejoin="round" d="M 4.498569 -8.998933 L 4.498569 18.001069 " stroke="#c3ccdf" stroke-width="9" stroke-opacity="1" stroke-miterlimit="4" />
    <path stroke-linecap="round" transform="matrix(0.75, 0, 0, 0.75, 847.782324, 210.979668)" fill="none" stroke-linejoin="round" d="M 100.175657 -8.998933 L 100.175657 18.001069 " stroke="#c3ccdf" stroke-width="9" stroke-opacity="1" stroke-miterlimit="4" />
    
    <g fill="#ffffff" fill-opacity="1">
        <g transform="translate(871.325291, 203.49127)">
            <g>
                <path d="M 15.046875 -19.28125 L 15.046875 -17.34375 L 9 -17.34375 L 9 0 L 6.75 0 L 6.75 -17.34375 L 0.71875 -17.34375 L 0.71875 -19.28125 Z M 15.046875 -19.28125 " />
            </g>
        </g>
        <g transform="translate(887.066501, 203.49127)">
            <g>
                <path d="M 7.640625 0.28125 C 5.765625 0.28125 4.273438 -0.140625 3.171875 -0.984375 C 2.078125 -1.828125 1.367188 -3 1.046875 -4.5 L 2.734375 -5.265625 L 3.03125 -5.203125 C 3.363281 -4.054688 3.878906 -3.195312 4.578125 -2.625 C 5.273438 -2.050781 6.296875 -1.765625 7.640625 -1.765625 C 8.992188 -1.765625 10.023438 -2.078125 10.734375 -2.703125 C 11.453125 -3.328125 11.8125 -4.242188 11.8125 -5.453125 C 11.8125 -6.640625 11.445312 -7.546875 10.71875 -8.171875 C 10 -8.796875 8.859375 -9.109375 7.296875 -9.109375 L 5.203125 -9.109375 L 5.203125 -10.984375 L 7.078125 -10.984375 C 8.296875 -10.984375 9.257812 -11.28125 9.96875 -11.875 C 10.6875 -12.476562 11.046875 -13.332031 11.046875 -14.4375 C 11.046875 -15.476562 10.734375 -16.257812 10.109375 -16.78125 C 9.492188 -17.3125 8.628906 -17.578125 7.515625 -17.578125 C 5.566406 -17.578125 4.179688 -16.800781 3.359375 -15.25 L 3.0625 -15.203125 L 1.796875 -16.578125 C 2.316406 -17.472656 3.0625 -18.191406 4.03125 -18.734375 C 5.007812 -19.273438 6.171875 -19.546875 7.515625 -19.546875 C 8.742188 -19.546875 9.789062 -19.351562 10.65625 -18.96875 C 11.519531 -18.59375 12.175781 -18.046875 12.625 -17.328125 C 13.070312 -16.609375 13.296875 -15.742188 13.296875 -14.734375 C 13.296875 -13.785156 13.019531 -12.953125 12.46875 -12.234375 C 11.925781 -11.523438 11.203125 -10.960938 10.296875 -10.546875 L 10.296875 -10.265625 C 11.566406 -9.960938 12.523438 -9.390625 13.171875 -8.546875 C 13.816406 -7.710938 14.140625 -6.679688 14.140625 -5.453125 C 14.140625 -3.628906 13.59375 -2.21875 12.5 -1.21875 C 11.40625 -0.21875 9.785156 0.28125 7.640625 0.28125 Z M 7.640625 0.28125 " />
            </g>
        </g>
    </g>
    
    <path stroke-linecap="butt" transform="matrix(0.75, 0, 0, 0.75, 152.349212, 161.290721)" fill="none" stroke-linejoin="miter" d="M 6.747926 4.497789 L 386.789611 4.497789 " stroke="#c3ccdf" stroke-width="9" stroke-opacity="1" stroke-miterlimit="4" />
    <path stroke-linecap="round" transform="matrix(0.75, 0, 0, 0.75, 152.349212, 161.290721)" fill="none" stroke-linejoin="round" d="M 4.497925 -9.002211 L 4.497925 17.99779 " stroke="#c3ccdf" stroke-width="9" stroke-opacity="1" stroke-miterlimit="4" />
    <path stroke-linecap="round" transform="matrix(0.75, 0, 0, 0.75, 152.349212, 161.290721)" fill="none" stroke-linejoin="round" d="M 389.039611 -9.002211 L 389.039611 17.99779 " stroke="#c3ccdf" stroke-width="9" stroke-opacity="1" stroke-miterlimit="4" />
    
    <g fill="#ffffff" fill-opacity="1">
        <g transform="translate(203.923429, 154.174217)">
            <g>
                <path d="M 2.90625 0 L 2.90625 -19.28125 L 10.21875 -19.28125 C 11.40625 -19.28125 12.410156 -19.085938 13.234375 -18.703125 C 14.054688 -18.328125 14.675781 -17.789062 15.09375 -17.09375 C 15.519531 -16.394531 15.734375 -15.5625 15.734375 -14.59375 C 15.734375 -13.757812 15.503906 -13.003906 15.046875 -12.328125 C 14.597656 -11.648438 13.953125 -11.125 13.109375 -10.75 L 13.109375 -10.46875 C 14.390625 -10.15625 15.359375 -9.578125 16.015625 -8.734375 C 16.679688 -7.898438 17.015625 -6.851562 17.015625 -5.59375 C 17.015625 -3.800781 16.488281 -2.421875 15.4375 -1.453125 C 14.394531 -0.484375 12.835938 0 10.765625 0 Z M 10.109375 -11.1875 C 11.171875 -11.1875 11.992188 -11.460938 12.578125 -12.015625 C 13.171875 -12.578125 13.46875 -13.34375 13.46875 -14.3125 C 13.46875 -15.34375 13.179688 -16.113281 12.609375 -16.625 C 12.046875 -17.144531 11.210938 -17.40625 10.109375 -17.40625 L 5.1875 -17.40625 L 5.1875 -11.1875 Z M 10.59375 -1.875 C 13.34375 -1.875 14.71875 -3.113281 14.71875 -5.59375 C 14.71875 -8.070312 13.34375 -9.3125 10.59375 -9.3125 L 5.1875 -9.3125 L 5.1875 -1.875 Z M 10.59375 -1.875 " />
            </g>
        </g>
        <g transform="translate(222.472744, 154.174217)">
            <g>
                <path d="M 7.1875 0.28125 C 5.539062 0.28125 4.316406 -0.148438 3.515625 -1.015625 C 2.710938 -1.890625 2.3125 -3.171875 2.3125 -4.859375 L 2.3125 -14.546875 L 4.453125 -14.546875 L 4.453125 -4.90625 C 4.453125 -2.695312 5.488281 -1.59375 7.5625 -1.59375 C 8.882812 -1.59375 9.925781 -2.019531 10.6875 -2.875 C 11.457031 -3.738281 11.84375 -5.140625 11.84375 -7.078125 L 11.84375 -14.546875 L 13.984375 -14.546875 L 13.984375 0 L 11.953125 0 L 11.953125 -2.28125 L 11.6875 -2.34375 C 11.175781 -1.457031 10.570312 -0.796875 9.875 -0.359375 C 9.175781 0.0664062 8.28125 0.28125 7.1875 0.28125 Z M 7.1875 0.28125 " />
            </g>
        </g>
        <g transform="translate(238.991786, 154.174217)">
            <g>
                <path d="M 2.53125 0 L 2.53125 -14.546875 L 4.578125 -14.546875 L 4.578125 -12.265625 L 4.859375 -12.1875 C 5.523438 -13.84375 6.796875 -14.671875 8.671875 -14.671875 C 9.671875 -14.671875 10.414062 -14.492188 10.90625 -14.140625 L 10.34375 -12.3125 L 10.078125 -12.265625 C 9.535156 -12.535156 8.941406 -12.671875 8.296875 -12.671875 C 7.128906 -12.671875 6.234375 -12.234375 5.609375 -11.359375 C 4.992188 -10.492188 4.6875 -9.082031 4.6875 -7.125 L 4.6875 0 Z M 2.53125 0 " />
            </g>
        </g>
        <g transform="translate(250.224208, 154.174217)">
            <g>
                <path d="M 6.625 0.28125 C 5.71875 0.28125 4.875 0.160156 4.09375 -0.078125 C 3.3125 -0.328125 2.648438 -0.660156 2.109375 -1.078125 C 1.578125 -1.503906 1.203125 -1.976562 0.984375 -2.5 L 2.25 -3.828125 L 2.53125 -3.828125 C 3.007812 -3.109375 3.582031 -2.5625 4.25 -2.1875 C 4.914062 -1.820312 5.707031 -1.640625 6.625 -1.640625 C 7.695312 -1.640625 8.515625 -1.847656 9.078125 -2.265625 C 9.640625 -2.691406 9.921875 -3.273438 9.921875 -4.015625 C 9.921875 -4.585938 9.75 -5.0625 9.40625 -5.4375 C 9.070312 -5.8125 8.523438 -6.09375 7.765625 -6.28125 L 5.3125 -6.875 C 4 -7.195312 3.039062 -7.695312 2.4375 -8.375 C 1.84375 -9.0625 1.546875 -9.910156 1.546875 -10.921875 C 1.546875 -11.710938 1.742188 -12.398438 2.140625 -12.984375 C 2.546875 -13.578125 3.128906 -14.03125 3.890625 -14.34375 C 4.648438 -14.65625 5.554688 -14.8125 6.609375 -14.8125 C 7.941406 -14.8125 8.992188 -14.625 9.765625 -14.25 C 10.535156 -13.882812 11.132812 -13.367188 11.5625 -12.703125 L 10.34375 -11.515625 L 10.078125 -11.515625 C 9.617188 -12.046875 9.113281 -12.429688 8.5625 -12.671875 C 8.007812 -12.910156 7.359375 -13.03125 6.609375 -13.03125 C 5.648438 -13.03125 4.914062 -12.859375 4.40625 -12.515625 C 3.894531 -12.171875 3.640625 -11.671875 3.640625 -11.015625 C 3.640625 -10.429688 3.816406 -9.957031 4.171875 -9.59375 C 4.535156 -9.238281 5.164062 -8.953125 6.0625 -8.734375 L 8.484375 -8.140625 C 9.742188 -7.847656 10.65625 -7.351562 11.21875 -6.65625 C 11.78125 -5.957031 12.0625 -5.085938 12.0625 -4.046875 C 12.0625 -3.191406 11.859375 -2.4375 11.453125 -1.78125 C 11.046875 -1.132812 10.429688 -0.628906 9.609375 -0.265625 C 8.796875 0.0976562 7.800781 0.28125 6.625 0.28125 Z M 6.625 0.28125 " />
            </g>
        </g>
        <g transform="translate(263.671473, 154.174217)">
            <g>
                <path d="M 9.828125 -2.3125 L 10.515625 -0.765625 C 10.171875 -0.421875 9.71875 -0.160156 9.15625 0.015625 C 8.601562 0.191406 8.003906 0.28125 7.359375 0.28125 C 4.578125 0.28125 3.1875 -1.125 3.1875 -3.9375 L 3.1875 -12.78125 L 0.65625 -12.78125 L 0.65625 -14.5625 L 3.1875 -14.5625 L 3.1875 -17.625 L 5.34375 -17.984375 L 5.34375 -14.5625 L 10.015625 -14.5625 L 10.015625 -12.78125 L 5.34375 -12.78125 L 5.34375 -4.15625 C 5.34375 -2.476562 6.066406 -1.640625 7.515625 -1.640625 C 8.304688 -1.640625 8.988281 -1.863281 9.5625 -2.3125 Z M 9.828125 -2.3125 " />
            </g>
        </g>
        <g transform="translate(274.745691, 154.174217)">
            <g />
        </g>
        <g transform="translate(281.363855, 154.174217)">
            <g>
                <path d="M 9.15625 -19.28125 C 11.101562 -19.28125 12.773438 -18.925781 14.171875 -18.21875 C 15.578125 -17.519531 16.660156 -16.453125 17.421875 -15.015625 C 18.179688 -13.585938 18.5625 -11.796875 18.5625 -9.640625 C 18.5625 -7.472656 18.179688 -5.671875 17.421875 -4.234375 C 16.660156 -2.804688 15.578125 -1.742188 14.171875 -1.046875 C 12.773438 -0.347656 11.101562 0 9.15625 0 L 2.90625 0 L 2.90625 -19.28125 Z M 8.921875 -1.921875 C 10.535156 -1.921875 11.867188 -2.171875 12.921875 -2.671875 C 13.972656 -3.171875 14.769531 -3.988281 15.3125 -5.125 C 15.863281 -6.257812 16.140625 -7.765625 16.140625 -9.640625 C 16.140625 -11.515625 15.863281 -13.015625 15.3125 -14.140625 C 14.769531 -15.273438 13.972656 -16.09375 12.921875 -16.59375 C 11.867188 -17.09375 10.535156 -17.34375 8.921875 -17.34375 L 5.1875 -17.34375 L 5.1875 -1.921875 Z M 8.921875 -1.921875 " />
            </g>
        </g>
        <g transform="translate(301.851158, 154.174217)">
            <g>
                <path d="M 7.1875 0.28125 C 5.539062 0.28125 4.316406 -0.148438 3.515625 -1.015625 C 2.710938 -1.890625 2.3125 -3.171875 2.3125 -4.859375 L 2.3125 -14.546875 L 4.453125 -14.546875 L 4.453125 -4.90625 C 4.453125 -2.695312 5.488281 -1.59375 7.5625 -1.59375 C 8.882812 -1.59375 9.925781 -2.019531 10.6875 -2.875 C 11.457031 -3.738281 11.84375 -5.140625 11.84375 -7.078125 L 11.84375 -14.546875 L 13.984375 -14.546875 L 13.984375 0 L 11.953125 0 L 11.953125 -2.28125 L 11.6875 -2.34375 C 11.175781 -1.457031 10.570312 -0.796875 9.875 -0.359375 C 9.175781 0.0664062 8.28125 0.28125 7.1875 0.28125 Z M 7.1875 0.28125 " />
            </g>
        </g>
        <g transform="translate(318.370201, 154.174217)">
            <g>
                <path d="M 2.53125 0 L 2.53125 -14.546875 L 4.578125 -14.546875 L 4.578125 -12.265625 L 4.859375 -12.1875 C 5.523438 -13.84375 6.796875 -14.671875 8.671875 -14.671875 C 9.671875 -14.671875 10.414062 -14.492188 10.90625 -14.140625 L 10.34375 -12.3125 L 10.078125 -12.265625 C 9.535156 -12.535156 8.941406 -12.671875 8.296875 -12.671875 C 7.128906 -12.671875 6.234375 -12.234375 5.609375 -11.359375 C 4.992188 -10.492188 4.6875 -9.082031 4.6875 -7.125 L 4.6875 0 Z M 2.53125 0 " />
            </g>
        </g>
        <g transform="translate(329.325766, 154.174217)">
            <g>
                <path d="M 6 0.28125 C 4.5625 0.28125 3.441406 -0.09375 2.640625 -0.84375 C 1.835938 -1.59375 1.4375 -2.660156 1.4375 -4.046875 C 1.4375 -4.910156 1.613281 -5.640625 1.96875 -6.234375 C 2.320312 -6.828125 2.875 -7.304688 3.625 -7.671875 C 4.375 -8.046875 5.347656 -8.335938 6.546875 -8.546875 C 7.609375 -8.722656 8.410156 -8.921875 8.953125 -9.140625 C 9.503906 -9.359375 9.875 -9.601562 10.0625 -9.875 C 10.25 -10.144531 10.34375 -10.488281 10.34375 -10.90625 C 10.34375 -11.5625 10.113281 -12.066406 9.65625 -12.421875 C 9.207031 -12.773438 8.484375 -12.953125 7.484375 -12.953125 C 6.546875 -12.953125 5.738281 -12.769531 5.0625 -12.40625 C 4.394531 -12.039062 3.78125 -11.492188 3.21875 -10.765625 L 2.953125 -10.765625 L 1.90625 -12.265625 C 2.519531 -13.046875 3.300781 -13.664062 4.25 -14.125 C 5.195312 -14.582031 6.273438 -14.8125 7.484375 -14.8125 C 9.203125 -14.8125 10.46875 -14.4375 11.28125 -13.6875 C 12.09375 -12.9375 12.5 -11.898438 12.5 -10.578125 L 12.5 -2.859375 C 12.5 -2.046875 12.84375 -1.640625 13.53125 -1.640625 C 13.757812 -1.640625 13.976562 -1.679688 14.1875 -1.765625 L 14.375 -1.71875 L 14.625 -0.21875 C 14.46875 -0.113281 14.257812 -0.0351562 14 0.015625 C 13.738281 0.078125 13.472656 0.109375 13.203125 0.109375 C 12.398438 0.109375 11.789062 -0.0664062 11.375 -0.421875 C 10.96875 -0.773438 10.707031 -1.296875 10.59375 -1.984375 L 10.328125 -2 C 9.910156 -1.238281 9.347656 -0.664062 8.640625 -0.28125 C 7.941406 0.09375 7.0625 0.28125 6 0.28125 Z M 6.46875 -1.4375 C 7.28125 -1.4375 7.984375 -1.625 8.578125 -2 C 9.171875 -2.375 9.625 -2.898438 9.9375 -3.578125 C 10.257812 -4.253906 10.421875 -5.035156 10.421875 -5.921875 L 10.421875 -7.765625 L 10.171875 -7.8125 C 9.835938 -7.582031 9.4375 -7.390625 8.96875 -7.234375 C 8.507812 -7.085938 7.863281 -6.953125 7.03125 -6.828125 C 6.1875 -6.710938 5.515625 -6.535156 5.015625 -6.296875 C 4.515625 -6.066406 4.160156 -5.769531 3.953125 -5.40625 C 3.742188 -5.039062 3.640625 -4.585938 3.640625 -4.046875 C 3.640625 -3.191406 3.890625 -2.539062 4.390625 -2.09375 C 4.890625 -1.65625 5.582031 -1.4375 6.46875 -1.4375 Z M 6.46875 -1.4375 " />
            </g>
        </g>
        <g transform="translate(344.196859, 154.174217)">
            <g>
                <path d="M 9.828125 -2.3125 L 10.515625 -0.765625 C 10.171875 -0.421875 9.71875 -0.160156 9.15625 0.015625 C 8.601562 0.191406 8.003906 0.28125 7.359375 0.28125 C 4.578125 0.28125 3.1875 -1.125 3.1875 -3.9375 L 3.1875 -12.78125 L 0.65625 -12.78125 L 0.65625 -14.5625 L 3.1875 -14.5625 L 3.1875 -17.625 L 5.34375 -17.984375 L 5.34375 -14.5625 L 10.015625 -14.5625 L 10.015625 -12.78125 L 5.34375 -12.78125 L 5.34375 -4.15625 C 5.34375 -2.476562 6.066406 -1.640625 7.515625 -1.640625 C 8.304688 -1.640625 8.988281 -1.863281 9.5625 -2.3125 Z M 9.828125 -2.3125 " />
            </g>
        </g>
        <g transform="translate(355.271077, 154.174217)">
            <g>
                <path d="M 3.609375 -17.34375 C 3.148438 -17.34375 2.773438 -17.484375 2.484375 -17.765625 C 2.203125 -18.054688 2.0625 -18.421875 2.0625 -18.859375 C 2.0625 -19.304688 2.203125 -19.671875 2.484375 -19.953125 C 2.773438 -20.234375 3.148438 -20.375 3.609375 -20.375 C 4.066406 -20.375 4.4375 -20.234375 4.71875 -19.953125 C 5.007812 -19.671875 5.15625 -19.304688 5.15625 -18.859375 C 5.15625 -18.421875 5.007812 -18.054688 4.71875 -17.765625 C 4.4375 -17.484375 4.066406 -17.34375 3.609375 -17.34375 Z M 2.53125 0 L 2.53125 -14.546875 L 4.6875 -14.546875 L 4.6875 0 Z M 2.53125 0 " />
            </g>
        </g>
        <g transform="translate(362.482502, 154.174217)">
            <g>
                <path d="M 8.34375 0.28125 C 6.96875 0.28125 5.773438 -0.0078125 4.765625 -0.59375 C 3.753906 -1.175781 2.972656 -2.03125 2.421875 -3.15625 C 1.867188 -4.289062 1.59375 -5.660156 1.59375 -7.265625 C 1.59375 -8.867188 1.867188 -10.238281 2.421875 -11.375 C 2.972656 -12.507812 3.753906 -13.363281 4.765625 -13.9375 C 5.773438 -14.519531 6.96875 -14.8125 8.34375 -14.8125 C 9.71875 -14.8125 10.910156 -14.519531 11.921875 -13.9375 C 12.941406 -13.363281 13.722656 -12.507812 14.265625 -11.375 C 14.816406 -10.238281 15.09375 -8.867188 15.09375 -7.265625 C 15.09375 -5.660156 14.816406 -4.289062 14.265625 -3.15625 C 13.722656 -2.03125 12.941406 -1.175781 11.921875 -0.59375 C 10.910156 -0.0078125 9.71875 0.28125 8.34375 0.28125 Z M 8.34375 -1.640625 C 9.789062 -1.640625 10.898438 -2.097656 11.671875 -3.015625 C 12.441406 -3.929688 12.828125 -5.347656 12.828125 -7.265625 C 12.828125 -9.191406 12.441406 -10.609375 11.671875 -11.515625 C 10.898438 -12.429688 9.789062 -12.890625 8.34375 -12.890625 C 6.894531 -12.890625 5.78125 -12.429688 5 -11.515625 C 4.226562 -10.597656 3.84375 -9.179688 3.84375 -7.265625 C 3.84375 -5.347656 4.226562 -3.929688 5 -3.015625 C 5.78125 -2.097656 6.894531 -1.640625 8.34375 -1.640625 Z M 8.34375 -1.640625 " />
            </g>
        </g>
        <g transform="translate(379.172931, 154.174217)">
            <g>
                <path d="M 2.53125 0 L 2.53125 -14.546875 L 4.578125 -14.546875 L 4.578125 -12.265625 L 4.859375 -12.1875 C 5.335938 -13.039062 5.953125 -13.691406 6.703125 -14.140625 C 7.453125 -14.585938 8.367188 -14.8125 9.453125 -14.8125 C 11.203125 -14.8125 12.46875 -14.363281 13.25 -13.46875 C 14.039062 -12.582031 14.4375 -11.210938 14.4375 -9.359375 L 14.4375 0 L 12.28125 0 L 12.28125 -9.3125 C 12.28125 -10.1875 12.164062 -10.890625 11.9375 -11.421875 C 11.71875 -11.953125 11.375 -12.335938 10.90625 -12.578125 C 10.4375 -12.828125 9.820312 -12.953125 9.0625 -12.953125 C 7.75 -12.953125 6.691406 -12.515625 5.890625 -11.640625 C 5.085938 -10.773438 4.6875 -9.382812 4.6875 -7.46875 L 4.6875 0 Z M 2.53125 0 " />
            </g>
        </g>
    </g>
    
    <path stroke-linecap="butt" transform="matrix(0.75, 0, 0, 0.75, 152.349212, 111.973666)" fill="none" stroke-linejoin="miter" d="M 6.747926 4.498654 L 1183.175068 4.498654 " stroke="#c3ccdf" stroke-width="9" stroke-opacity="1" stroke-miterlimit="4" />
    <path stroke-linecap="round" transform="matrix(0.75, 0, 0, 0.75, 152.349212, 111.973666)" fill="none" stroke-linejoin="round" d="M 4.497925 -9.001346 L 4.497925 17.998655 " stroke="#c3ccdf" stroke-width="9" stroke-opacity="1" stroke-miterlimit="4" />
    <path stroke-linecap="round" transform="matrix(0.75, 0, 0, 0.75, 152.349212, 111.973666)" fill="none" stroke-linejoin="round" d="M 1185.425068 -9.001346 L 1185.425068 17.998655 " stroke="#c3ccdf" stroke-width="9" stroke-opacity="1" stroke-miterlimit="4" />
    
    <g fill="#FFFF00" fill-opacity="1">
        <g transform="translate(437.806233, 104.857172)">
            <g>
                <path d="M 1.375 0 L 1.375 -1.875 L 6.625 -1.875 L 6.625 -16.609375 L 6.328125 -16.6875 C 5.472656 -16.269531 4.722656 -15.945312 4.078125 -15.71875 C 3.441406 -15.5 2.625 -15.28125 1.625 -15.0625 L 1.625 -17.15625 C 2.613281 -17.363281 3.59375 -17.644531 4.5625 -18 C 5.539062 -18.363281 6.425781 -18.789062 7.21875 -19.28125 L 8.84375 -19.28125 L 8.84375 -1.875 L 13.546875 -1.875 L 13.546875 0 Z M 1.375 0 " />
            </g>
        </g>
        <g transform="translate(452.176349, 104.857172)">
            <g />
        </g>
        <g transform="translate(458.794513, 104.857172)">
            <g>
                <path d="M 2.40625 2.75 L 0.328125 2.75 L 7.515625 -20.375 L 9.578125 -20.375 Z M 2.40625 2.75 " />
            </g>
        </g>
        <g transform="translate(469.222735, 104.857172)">
            <g />
        </g>
        <g transform="translate(475.840899, 104.857172)">
            <g>
                <path d="M 2.90625 0 L 2.90625 -19.28125 L 10.21875 -19.28125 C 11.40625 -19.28125 12.410156 -19.085938 13.234375 -18.703125 C 14.054688 -18.328125 14.675781 -17.789062 15.09375 -17.09375 C 15.519531 -16.394531 15.734375 -15.5625 15.734375 -14.59375 C 15.734375 -13.757812 15.503906 -13.003906 15.046875 -12.328125 C 14.597656 -11.648438 13.953125 -11.125 13.109375 -10.75 L 13.109375 -10.46875 C 14.390625 -10.15625 15.359375 -9.578125 16.015625 -8.734375 C 16.679688 -7.898438 17.015625 -6.851562 17.015625 -5.59375 C 17.015625 -3.800781 16.488281 -2.421875 15.4375 -1.453125 C 14.394531 -0.484375 12.835938 0 10.765625 0 Z M 10.109375 -11.1875 C 11.171875 -11.1875 11.992188 -11.460938 12.578125 -12.015625 C 13.171875 -12.578125 13.46875 -13.34375 13.46875 -14.3125 C 13.46875 -15.34375 13.179688 -16.113281 12.609375 -16.625 C 12.046875 -17.144531 11.210938 -17.40625 10.109375 -17.40625 L 5.1875 -17.40625 L 5.1875 -11.1875 Z M 10.59375 -1.875 C 13.34375 -1.875 14.71875 -3.113281 14.71875 -5.59375 C 14.71875 -8.070312 13.34375 -9.3125 10.59375 -9.3125 L 5.1875 -9.3125 L 5.1875 -1.875 Z M 10.59375 -1.875 " />
            </g>
        </g>
        <g transform="translate(494.390215, 104.857172)">
            <g>
                <path d="M 7.1875 0.28125 C 5.539062 0.28125 4.316406 -0.148438 3.515625 -1.015625 C 2.710938 -1.890625 2.3125 -3.171875 2.3125 -4.859375 L 2.3125 -14.546875 L 4.453125 -14.546875 L 4.453125 -4.90625 C 4.453125 -2.695312 5.488281 -1.59375 7.5625 -1.59375 C 8.882812 -1.59375 9.925781 -2.019531 10.6875 -2.875 C 11.457031 -3.738281 11.84375 -5.140625 11.84375 -7.078125 L 11.84375 -14.546875 L 13.984375 -14.546875 L 13.984375 0 L 11.953125 0 L 11.953125 -2.28125 L 11.6875 -2.34375 C 11.175781 -1.457031 10.570312 -0.796875 9.875 -0.359375 C 9.175781 0.0664062 8.28125 0.28125 7.1875 0.28125 Z M 7.1875 0.28125 " />
            </g>
        </g>
        <g transform="translate(510.909257, 104.857172)">
            <g>
                <path d="M 2.53125 0 L 2.53125 -14.546875 L 4.578125 -14.546875 L 4.578125 -12.265625 L 4.859375 -12.1875 C 5.523438 -13.84375 6.796875 -14.671875 8.671875 -14.671875 C 9.671875 -14.671875 10.414062 -14.492188 10.90625 -14.140625 L 10.34375 -12.3125 L 10.078125 -12.265625 C 9.535156 -12.535156 8.941406 -12.671875 8.296875 -12.671875 C 7.128906 -12.671875 6.234375 -12.234375 5.609375 -11.359375 C 4.992188 -10.492188 4.6875 -9.082031 4.6875 -7.125 L 4.6875 0 Z M 2.53125 0 " />
            </g>
        </g>
        <g transform="translate(522.141678, 104.857172)">
            <g>
                <path d="M 6.625 0.28125 C 5.71875 0.28125 4.875 0.160156 4.09375 -0.078125 C 3.3125 -0.328125 2.648438 -0.660156 2.109375 -1.078125 C 1.578125 -1.503906 1.203125 -1.976562 0.984375 -2.5 L 2.25 -3.828125 L 2.53125 -3.828125 C 3.007812 -3.109375 3.582031 -2.5625 4.25 -2.1875 C 4.914062 -1.820312 5.707031 -1.640625 6.625 -1.640625 C 7.695312 -1.640625 8.515625 -1.847656 9.078125 -2.265625 C 9.640625 -2.691406 9.921875 -3.273438 9.921875 -4.015625 C 9.921875 -4.585938 9.75 -5.0625 9.40625 -5.4375 C 9.070312 -5.8125 8.523438 -6.09375 7.765625 -6.28125 L 5.3125 -6.875 C 4 -7.195312 3.039062 -7.695312 2.4375 -8.375 C 1.84375 -9.0625 1.546875 -9.910156 1.546875 -10.921875 C 1.546875 -11.710938 1.742188 -12.398438 2.140625 -12.984375 C 2.546875 -13.578125 3.128906 -14.03125 3.890625 -14.34375 C 4.648438 -14.65625 5.554688 -14.8125 6.609375 -14.8125 C 7.941406 -14.8125 8.992188 -14.625 9.765625 -14.25 C 10.535156 -13.882812 11.132812 -13.367188 11.5625 -12.703125 L 10.34375 -11.515625 L 10.078125 -11.515625 C 9.617188 -12.046875 9.113281 -12.429688 8.5625 -12.671875 C 8.007812 -12.910156 7.359375 -13.03125 6.609375 -13.03125 C 5.648438 -13.03125 4.914062 -12.859375 4.40625 -12.515625 C 3.894531 -12.171875 3.640625 -11.671875 3.640625 -11.015625 C 3.640625 -10.429688 3.816406 -9.957031 4.171875 -9.59375 C 4.535156 -9.238281 5.164062 -8.953125 6.0625 -8.734375 L 8.484375 -8.140625 C 9.742188 -7.847656 10.65625 -7.351562 11.21875 -6.65625 C 11.78125 -5.957031 12.0625 -5.085938 12.0625 -4.046875 C 12.0625 -3.191406 11.859375 -2.4375 11.453125 -1.78125 C 11.046875 -1.132812 10.429688 -0.628906 9.609375 -0.265625 C 8.796875 0.0976562 7.800781 0.28125 6.625 0.28125 Z M 6.625 0.28125 " />
            </g>
        </g>
        <g transform="translate(535.588943, 104.857172)">
            <g>
                <path d="M 9.828125 -2.3125 L 10.515625 -0.765625 C 10.171875 -0.421875 9.71875 -0.160156 9.15625 0.015625 C 8.601562 0.191406 8.003906 0.28125 7.359375 0.28125 C 4.578125 0.28125 3.1875 -1.125 3.1875 -3.9375 L 3.1875 -12.78125 L 0.65625 -12.78125 L 0.65625 -14.5625 L 3.1875 -14.5625 L 3.1875 -17.625 L 5.34375 -17.984375 L 5.34375 -14.5625 L 10.015625 -14.5625 L 10.015625 -12.78125 L 5.34375 -12.78125 L 5.34375 -4.15625 C 5.34375 -2.476562 6.066406 -1.640625 7.515625 -1.640625 C 8.304688 -1.640625 8.988281 -1.863281 9.5625 -2.3125 Z M 9.828125 -2.3125 " />
            </g>
        </g>
        <g transform="translate(546.663162, 104.857172)">
            <g />
        </g>
        <g transform="translate(553.281325, 104.857172)">
            <g>
                <path d="M 14.234375 -19.28125 L 14.234375 -17.40625 L 5.1875 -17.40625 L 5.1875 -10.390625 L 13.328125 -10.390625 L 13.328125 -8.5 L 5.1875 -8.5 L 5.1875 0 L 2.90625 0 L 2.90625 -19.28125 Z M 14.234375 -19.28125 " />
            </g>
        </g>
        <g transform="translate(568.231519, 104.857172)">
            <g>
                <path d="M 2.53125 0 L 2.53125 -14.546875 L 4.578125 -14.546875 L 4.578125 -12.265625 L 4.859375 -12.1875 C 5.523438 -13.84375 6.796875 -14.671875 8.671875 -14.671875 C 9.671875 -14.671875 10.414062 -14.492188 10.90625 -14.140625 L 10.34375 -12.3125 L 10.078125 -12.265625 C 9.535156 -12.535156 8.941406 -12.671875 8.296875 -12.671875 C 7.128906 -12.671875 6.234375 -12.234375 5.609375 -11.359375 C 4.992188 -10.492188 4.6875 -9.082031 4.6875 -7.125 L 4.6875 0 Z M 2.53125 0 " />
            </g>
        </g>
        <g transform="translate(579.081616, 104.857172)">
            <g>
                <path d="M 13.859375 -6.78125 L 3.859375 -6.78125 C 3.921875 -5.007812 4.34375 -3.707031 5.125 -2.875 C 5.914062 -2.050781 7 -1.640625 8.375 -1.640625 C 9.40625 -1.640625 10.238281 -1.820312 10.875 -2.1875 C 11.507812 -2.5625 12.003906 -3.144531 12.359375 -3.9375 L 12.640625 -3.9375 L 14.046875 -3.109375 C 13.617188 -2.054688 12.941406 -1.226562 12.015625 -0.625 C 11.085938 -0.0195312 9.875 0.28125 8.375 0.28125 C 6.96875 0.28125 5.757812 0.00390625 4.75 -0.546875 C 3.738281 -1.109375 2.957031 -1.953125 2.40625 -3.078125 C 1.863281 -4.203125 1.59375 -5.597656 1.59375 -7.265625 C 1.59375 -8.921875 1.878906 -10.3125 2.453125 -11.4375 C 3.035156 -12.570312 3.820312 -13.414062 4.8125 -13.96875 C 5.8125 -14.53125 6.953125 -14.8125 8.234375 -14.8125 C 10.097656 -14.8125 11.550781 -14.285156 12.59375 -13.234375 C 13.644531 -12.191406 14.175781 -10.632812 14.1875 -8.5625 C 14.1875 -7.757812 14.171875 -7.21875 14.140625 -6.9375 Z M 12.0625 -8.5625 C 12.03125 -10.113281 11.6875 -11.238281 11.03125 -11.9375 C 10.382812 -12.644531 9.453125 -13 8.234375 -13 C 6.960938 -13 5.960938 -12.644531 5.234375 -11.9375 C 4.515625 -11.226562 4.078125 -10.101562 3.921875 -8.5625 Z M 12.0625 -8.5625 " />
            </g>
        </g>
        <g transform="translate(594.585522, 104.857172)">
            <g>
                <path d="M 12.671875 5.890625 L 12.671875 -2.046875 L 12.390625 -2.09375 C 11.816406 -1.28125 11.125 -0.679688 10.3125 -0.296875 C 9.5 0.0859375 8.566406 0.28125 7.515625 0.28125 C 6.359375 0.28125 5.332031 0.00390625 4.4375 -0.546875 C 3.539062 -1.109375 2.84375 -1.941406 2.34375 -3.046875 C 1.84375 -4.160156 1.59375 -5.53125 1.59375 -7.15625 C 1.59375 -8.851562 1.851562 -10.269531 2.375 -11.40625 C 2.90625 -12.550781 3.632812 -13.40625 4.5625 -13.96875 C 5.488281 -14.53125 6.566406 -14.8125 7.796875 -14.8125 C 8.753906 -14.8125 9.625 -14.628906 10.40625 -14.265625 C 11.1875 -13.910156 11.847656 -13.3125 12.390625 -12.46875 L 12.671875 -12.53125 L 12.671875 -14.546875 L 14.8125 -14.546875 L 14.8125 5.890625 Z M 8.21875 -1.640625 C 9.09375 -1.640625 9.863281 -1.835938 10.53125 -2.234375 C 11.195312 -2.628906 11.71875 -3.238281 12.09375 -4.0625 C 12.476562 -4.882812 12.671875 -5.914062 12.671875 -7.15625 C 12.671875 -9.101562 12.265625 -10.546875 11.453125 -11.484375 C 10.648438 -12.421875 9.570312 -12.890625 8.21875 -12.890625 C 5.300781 -12.890625 3.84375 -10.976562 3.84375 -7.15625 C 3.84375 -5.269531 4.222656 -3.878906 4.984375 -2.984375 C 5.742188 -2.085938 6.820312 -1.640625 8.21875 -1.640625 Z M 8.21875 -1.640625 " />
            </g>
        </g>
        <g transform="translate(611.948314, 104.857172)">
            <g>
                <path d="M 7.1875 0.28125 C 5.539062 0.28125 4.316406 -0.148438 3.515625 -1.015625 C 2.710938 -1.890625 2.3125 -3.171875 2.3125 -4.859375 L 2.3125 -14.546875 L 4.453125 -14.546875 L 4.453125 -4.90625 C 4.453125 -2.695312 5.488281 -1.59375 7.5625 -1.59375 C 8.882812 -1.59375 9.925781 -2.019531 10.6875 -2.875 C 11.457031 -3.738281 11.84375 -5.140625 11.84375 -7.078125 L 11.84375 -14.546875 L 13.984375 -14.546875 L 13.984375 0 L 11.953125 0 L 11.953125 -2.28125 L 11.6875 -2.34375 C 11.175781 -1.457031 10.570312 -0.796875 9.875 -0.359375 C 9.175781 0.0664062 8.28125 0.28125 7.1875 0.28125 Z M 7.1875 0.28125 " />
            </g>
        </g>
        <g transform="translate(628.467356, 104.857172)">
            <g>
                <path d="M 13.859375 -6.78125 L 3.859375 -6.78125 C 3.921875 -5.007812 4.34375 -3.707031 5.125 -2.875 C 5.914062 -2.050781 7 -1.640625 8.375 -1.640625 C 9.40625 -1.640625 10.238281 -1.820312 10.875 -2.1875 C 11.507812 -2.5625 12.003906 -3.144531 12.359375 -3.9375 L 12.640625 -3.9375 L 14.046875 -3.109375 C 13.617188 -2.054688 12.941406 -1.226562 12.015625 -0.625 C 11.085938 -0.0195312 9.875 0.28125 8.375 0.28125 C 6.96875 0.28125 5.757812 0.00390625 4.75 -0.546875 C 3.738281 -1.109375 2.957031 -1.953125 2.40625 -3.078125 C 1.863281 -4.203125 1.59375 -5.597656 1.59375 -7.265625 C 1.59375 -8.921875 1.878906 -10.3125 2.453125 -11.4375 C 3.035156 -12.570312 3.820312 -13.414062 4.8125 -13.96875 C 5.8125 -14.53125 6.953125 -14.8125 8.234375 -14.8125 C 10.097656 -14.8125 11.550781 -14.285156 12.59375 -13.234375 C 13.644531 -12.191406 14.175781 -10.632812 14.1875 -8.5625 C 14.1875 -7.757812 14.171875 -7.21875 14.140625 -6.9375 Z M 12.0625 -8.5625 C 12.03125 -10.113281 11.6875 -11.238281 11.03125 -11.9375 C 10.382812 -12.644531 9.453125 -13 8.234375 -13 C 6.960938 -13 5.960938 -12.644531 5.234375 -11.9375 C 4.515625 -11.226562 4.078125 -10.101562 3.921875 -8.5625 Z M 12.0625 -8.5625 " />
            </g>
        </g>
        <g transform="translate(643.971261, 104.857172)">
            <g>
                <path d="M 2.53125 0 L 2.53125 -14.546875 L 4.578125 -14.546875 L 4.578125 -12.265625 L 4.859375 -12.1875 C 5.335938 -13.039062 5.953125 -13.691406 6.703125 -14.140625 C 7.453125 -14.585938 8.367188 -14.8125 9.453125 -14.8125 C 11.203125 -14.8125 12.46875 -14.363281 13.25 -13.46875 C 14.039062 -12.582031 14.4375 -11.210938 14.4375 -9.359375 L 14.4375 0 L 12.28125 0 L 12.28125 -9.3125 C 12.28125 -10.1875 12.164062 -10.890625 11.9375 -11.421875 C 11.71875 -11.953125 11.375 -12.335938 10.90625 -12.578125 C 10.4375 -12.828125 9.820312 -12.953125 9.0625 -12.953125 C 7.75 -12.953125 6.691406 -12.515625 5.890625 -11.640625 C 5.085938 -10.773438 4.6875 -9.382812 4.6875 -7.46875 L 4.6875 0 Z M 2.53125 0 " />
            </g>
        </g>
        <g transform="translate(660.714425, 104.857172)">
            <g>
                <path d="M 8.34375 0.28125 C 7.0625 0.28125 5.910156 -0.0078125 4.890625 -0.59375 C 3.867188 -1.1875 3.0625 -2.050781 2.46875 -3.1875 C 1.882812 -4.320312 1.59375 -5.679688 1.59375 -7.265625 C 1.59375 -8.859375 1.882812 -10.222656 2.46875 -11.359375 C 3.0625 -12.492188 3.867188 -13.351562 4.890625 -13.9375 C 5.910156 -14.519531 7.0625 -14.8125 8.34375 -14.8125 C 9.882812 -14.8125 11.109375 -14.519531 12.015625 -13.9375 C 12.921875 -13.363281 13.578125 -12.59375 13.984375 -11.625 L 12.53125 -10.578125 L 12.265625 -10.578125 C 11.867188 -11.367188 11.359375 -11.953125 10.734375 -12.328125 C 10.117188 -12.703125 9.320312 -12.890625 8.34375 -12.890625 C 7.445312 -12.890625 6.660156 -12.675781 5.984375 -12.25 C 5.304688 -11.832031 4.78125 -11.203125 4.40625 -10.359375 C 4.03125 -9.515625 3.84375 -8.484375 3.84375 -7.265625 C 3.84375 -6.046875 4.03125 -5.015625 4.40625 -4.171875 C 4.789062 -3.335938 5.316406 -2.707031 5.984375 -2.28125 C 6.660156 -1.851562 7.445312 -1.640625 8.34375 -1.640625 C 9.351562 -1.640625 10.191406 -1.867188 10.859375 -2.328125 C 11.523438 -2.785156 12.046875 -3.507812 12.421875 -4.5 L 12.703125 -4.5 L 14.109375 -3.671875 C 13.734375 -2.441406 13.054688 -1.472656 12.078125 -0.765625 C 11.109375 -0.0664062 9.863281 0.28125 8.34375 0.28125 Z M 8.34375 0.28125 " />
            </g>
        </g>
        <g transform="translate(675.70417, 104.857172)">
            <g>
                <path d="M 2.90625 6.171875 C 2.414062 6.171875 1.957031 6.128906 1.53125 6.046875 C 1.101562 5.960938 0.738281 5.847656 0.4375 5.703125 L 0.828125 4 L 1.0625 3.921875 C 1.28125 4.023438 1.546875 4.113281 1.859375 4.1875 C 2.171875 4.257812 2.492188 4.296875 2.828125 4.296875 C 3.421875 4.296875 3.910156 4.21875 4.296875 4.0625 C 4.679688 3.90625 5.007812 3.644531 5.28125 3.28125 C 5.5625 2.914062 5.820312 2.410156 6.0625 1.765625 L 6.578125 0.34375 L 0.734375 -14.546875 L 3.0625 -14.546875 L 7.640625 -2.671875 L 7.890625 -2.671875 L 12.3125 -14.546875 L 14.515625 -14.546875 L 8.015625 2.28125 C 7.648438 3.207031 7.238281 3.953125 6.78125 4.515625 C 6.320312 5.085938 5.78125 5.503906 5.15625 5.765625 C 4.53125 6.035156 3.78125 6.171875 2.90625 6.171875 Z M 2.90625 6.171875 " />
            </g>
        </g>
        <g transform="translate(691.036689, 104.857172)">
            <g />
        </g>
        <g transform="translate(697.654852, 104.857172)">
            <g>
                <path d="M 6.171875 2.75 C 5.015625 1.289062 4.082031 -0.347656 3.375 -2.171875 C 2.664062 -3.992188 2.3125 -6.207031 2.3125 -8.8125 C 2.3125 -11.414062 2.664062 -13.628906 3.375 -15.453125 C 4.082031 -17.273438 5.015625 -18.914062 6.171875 -20.375 L 7.640625 -20.375 L 7.6875 -20.109375 C 7.03125 -19.046875 6.476562 -17.984375 6.03125 -16.921875 C 5.582031 -15.859375 5.21875 -14.648438 4.9375 -13.296875 C 4.65625 -11.953125 4.515625 -10.457031 4.515625 -8.8125 C 4.515625 -7.15625 4.65625 -5.65625 4.9375 -4.3125 C 5.21875 -2.96875 5.582031 -1.765625 6.03125 -0.703125 C 6.476562 0.359375 7.03125 1.421875 7.6875 2.484375 L 7.640625 2.75 Z M 6.171875 2.75 " />
            </g>
        </g>
        <g transform="translate(706.435125, 104.857172)">
            <g>
                <path d="M 15.046875 -19.28125 L 15.046875 -17.34375 L 9 -17.34375 L 9 0 L 6.75 0 L 6.75 -17.34375 L 0.71875 -17.34375 L 0.71875 -19.28125 Z M 15.046875 -19.28125 " />
            </g>
        </g>
        <g transform="translate(722.176335, 104.857172)">
            <g>
                <path d="M 12.0625 0 L 9.921875 0 L 9.921875 -4.59375 L 0.890625 -4.59375 L 0.890625 -6.421875 L 9.390625 -19.28125 L 12.0625 -19.28125 L 12.0625 -6.421875 L 15.40625 -6.421875 L 15.40625 -4.59375 L 12.0625 -4.59375 Z M 3.546875 -6.703125 L 3.671875 -6.421875 L 9.921875 -6.421875 L 9.921875 -16.140625 L 9.609375 -16.1875 Z M 3.546875 -6.703125 " />
            </g>
        </g>
        <g transform="translate(737.798896, 104.857172)">
            <g>
                <path d="M 6.28125 -12.671875 L 4.15625 -8.953125 L 2.375 -10.296875 L 5.203125 -13.40625 L 5.125 -13.65625 L 0.9375 -14.515625 L 1.71875 -16.640625 L 5.515625 -14.921875 L 5.734375 -15.0625 L 5.265625 -19.28125 L 7.515625 -19.28125 L 7.046875 -15.0625 L 7.265625 -14.921875 L 11.125 -16.671875 L 11.8125 -14.515625 L 7.6875 -13.65625 L 7.609375 -13.40625 L 10.4375 -10.265625 L 8.59375 -8.984375 L 6.5 -12.671875 Z M 6.28125 -12.671875 " />
            </g>
        </g>
        <g transform="translate(750.54743, 104.857172)">
            <g>
                <path d="M 1.09375 2.484375 C 1.738281 1.421875 2.285156 0.359375 2.734375 -0.703125 C 3.191406 -1.765625 3.5625 -2.96875 3.84375 -4.3125 C 4.125 -5.664062 4.265625 -7.164062 4.265625 -8.8125 C 4.265625 -10.457031 4.125 -11.953125 3.84375 -13.296875 C 3.5625 -14.640625 3.191406 -15.84375 2.734375 -16.90625 C 2.285156 -17.976562 1.738281 -19.046875 1.09375 -20.109375 L 1.140625 -20.375 L 2.59375 -20.375 C 3.757812 -18.914062 4.691406 -17.273438 5.390625 -15.453125 C 6.097656 -13.628906 6.453125 -11.414062 6.453125 -8.8125 C 6.453125 -6.207031 6.097656 -3.992188 5.390625 -2.171875 C 4.691406 -0.347656 3.757812 1.289062 2.59375 2.75 L 1.140625 2.75 Z M 1.09375 2.484375 " />
            </g>
        </g>
    </g>
    
    <path stroke-linecap="butt" transform="matrix(0.75, 0, 0, 0.75, 630.398303, 161.290721)" fill="none" stroke-linejoin="miter" d="M 6.75018 4.497789 L 387.771033 4.497789 " stroke="#c3ccdf" stroke-width="9" stroke-opacity="1" stroke-miterlimit="4" />
    <path stroke-linecap="round" transform="matrix(0.75, 0, 0, 0.75, 630.398303, 161.290721)" fill="none" stroke-linejoin="round" d="M 4.50018 -9.002211 L 4.50018 17.99779 " stroke="#c3ccdf" stroke-width="9" stroke-opacity="1" stroke-miterlimit="4" />
    <path stroke-linecap="round" transform="matrix(0.75, 0, 0, 0.75, 630.398303, 161.290721)" fill="none" stroke-linejoin="round" d="M 390.021033 -9.002211 L 390.021033 17.99779 " stroke="#c3ccdf" stroke-width="9" stroke-opacity="1" stroke-miterlimit="4" />
    
    <g fill="#ffffff" fill-opacity="1">
        <g transform="translate(641.95299, 154.174217)">
            <g>
                <path d="M 1.375 0 L 1.375 -1.875 L 6.625 -1.875 L 6.625 -16.609375 L 6.328125 -16.6875 C 5.472656 -16.269531 4.722656 -15.945312 4.078125 -15.71875 C 3.441406 -15.5 2.625 -15.28125 1.625 -15.0625 L 1.625 -17.15625 C 2.613281 -17.363281 3.59375 -17.644531 4.5625 -18 C 5.539062 -18.363281 6.425781 -18.789062 7.21875 -19.28125 L 8.84375 -19.28125 L 8.84375 -1.875 L 13.546875 -1.875 L 13.546875 0 Z M 1.375 0 " />
            </g>
        </g>
        <g transform="translate(656.323106, 154.174217)">
            <g />
        </g>
        <g transform="translate(662.94127, 154.174217)">
            <g>
                <path d="M 2.40625 2.75 L 0.328125 2.75 L 7.515625 -20.375 L 9.578125 -20.375 Z M 2.40625 2.75 " />
            </g>
        </g>
        <g transform="translate(673.369492, 154.174217)">
            <g />
        </g>
        <g transform="translate(679.987656, 154.174217)">
            <g>
                <path d="M 10.65625 0.28125 C 8.96875 0.28125 7.460938 -0.101562 6.140625 -0.875 C 4.828125 -1.65625 3.796875 -2.789062 3.046875 -4.28125 C 2.296875 -5.769531 1.921875 -7.554688 1.921875 -9.640625 C 1.921875 -11.722656 2.296875 -13.507812 3.046875 -15 C 3.796875 -16.488281 4.828125 -17.617188 6.140625 -18.390625 C 7.460938 -19.160156 8.96875 -19.546875 10.65625 -19.546875 C 12.457031 -19.546875 13.953125 -19.207031 15.140625 -18.53125 C 16.335938 -17.851562 17.203125 -16.828125 17.734375 -15.453125 L 16.28125 -14.484375 L 15.953125 -14.484375 C 15.421875 -15.585938 14.734375 -16.367188 13.890625 -16.828125 C 13.046875 -17.285156 11.96875 -17.515625 10.65625 -17.515625 C 9.4375 -17.515625 8.359375 -17.242188 7.421875 -16.703125 C 6.484375 -16.171875 5.734375 -15.316406 5.171875 -14.140625 C 4.617188 -12.960938 4.34375 -11.460938 4.34375 -9.640625 C 4.34375 -7.804688 4.617188 -6.304688 5.171875 -5.140625 C 5.734375 -3.972656 6.484375 -3.117188 7.421875 -2.578125 C 8.359375 -2.035156 9.4375 -1.765625 10.65625 -1.765625 C 12.050781 -1.765625 13.191406 -2.078125 14.078125 -2.703125 C 14.960938 -3.335938 15.625 -4.359375 16.0625 -5.765625 L 16.390625 -5.765625 L 17.90625 -5.015625 C 17.445312 -3.304688 16.597656 -1.992188 15.359375 -1.078125 C 14.128906 -0.171875 12.5625 0.28125 10.65625 0.28125 Z M 10.65625 0.28125 " />
            </g>
        </g>
        <g transform="translate(698.892928, 154.174217)">
            <g>
                <path d="M 6 0.28125 C 4.5625 0.28125 3.441406 -0.09375 2.640625 -0.84375 C 1.835938 -1.59375 1.4375 -2.660156 1.4375 -4.046875 C 1.4375 -4.910156 1.613281 -5.640625 1.96875 -6.234375 C 2.320312 -6.828125 2.875 -7.304688 3.625 -7.671875 C 4.375 -8.046875 5.347656 -8.335938 6.546875 -8.546875 C 7.609375 -8.722656 8.410156 -8.921875 8.953125 -9.140625 C 9.503906 -9.359375 9.875 -9.601562 10.0625 -9.875 C 10.25 -10.144531 10.34375 -10.488281 10.34375 -10.90625 C 10.34375 -11.5625 10.113281 -12.066406 9.65625 -12.421875 C 9.207031 -12.773438 8.484375 -12.953125 7.484375 -12.953125 C 6.546875 -12.953125 5.738281 -12.769531 5.0625 -12.40625 C 4.394531 -12.039062 3.78125 -11.492188 3.21875 -10.765625 L 2.953125 -10.765625 L 1.90625 -12.265625 C 2.519531 -13.046875 3.300781 -13.664062 4.25 -14.125 C 5.195312 -14.582031 6.273438 -14.8125 7.484375 -14.8125 C 9.203125 -14.8125 10.46875 -14.4375 11.28125 -13.6875 C 12.09375 -12.9375 12.5 -11.898438 12.5 -10.578125 L 12.5 -2.859375 C 12.5 -2.046875 12.84375 -1.640625 13.53125 -1.640625 C 13.757812 -1.640625 13.976562 -1.679688 14.1875 -1.765625 L 14.375 -1.71875 L 14.625 -0.21875 C 14.46875 -0.113281 14.257812 -0.0351562 14 0.015625 C 13.738281 0.078125 13.472656 0.109375 13.203125 0.109375 C 12.398438 0.109375 11.789062 -0.0664062 11.375 -0.421875 C 10.96875 -0.773438 10.707031 -1.296875 10.59375 -1.984375 L 10.328125 -2 C 9.910156 -1.238281 9.347656 -0.664062 8.640625 -0.28125 C 7.941406 0.09375 7.0625 0.28125 6 0.28125 Z M 6.46875 -1.4375 C 7.28125 -1.4375 7.984375 -1.625 8.578125 -2 C 9.171875 -2.375 9.625 -2.898438 9.9375 -3.578125 C 10.257812 -4.253906 10.421875 -5.035156 10.421875 -5.921875 L 10.421875 -7.765625 L 10.171875 -7.8125 C 9.835938 -7.582031 9.4375 -7.390625 8.96875 -7.234375 C 8.507812 -7.085938 7.863281 -6.953125 7.03125 -6.828125 C 6.1875 -6.710938 5.515625 -6.535156 5.015625 -6.296875 C 4.515625 -6.066406 4.160156 -5.769531 3.953125 -5.40625 C 3.742188 -5.039062 3.640625 -4.585938 3.640625 -4.046875 C 3.640625 -3.191406 3.890625 -2.539062 4.390625 -2.09375 C 4.890625 -1.65625 5.582031 -1.4375 6.46875 -1.4375 Z M 6.46875 -1.4375 " />
            </g>
        </g>
        <g transform="translate(713.935408, 154.174217)">
            <g>
                <path d="M 2.53125 0 L 2.53125 -14.546875 L 4.578125 -14.546875 L 4.578125 -12.265625 L 4.859375 -12.1875 C 5.523438 -13.84375 6.796875 -14.671875 8.671875 -14.671875 C 9.671875 -14.671875 10.414062 -14.492188 10.90625 -14.140625 L 10.34375 -12.3125 L 10.078125 -12.265625 C 9.535156 -12.535156 8.941406 -12.671875 8.296875 -12.671875 C 7.128906 -12.671875 6.234375 -12.234375 5.609375 -11.359375 C 4.992188 -10.492188 4.6875 -9.082031 4.6875 -7.125 L 4.6875 0 Z M 2.53125 0 " />
            </g>
        </g>
        <g transform="translate(725.167829, 154.174217)">
            <g>
                <path d="M 2.53125 0 L 2.53125 -14.546875 L 4.578125 -14.546875 L 4.578125 -12.265625 L 4.859375 -12.1875 C 5.523438 -13.84375 6.796875 -14.671875 8.671875 -14.671875 C 9.671875 -14.671875 10.414062 -14.492188 10.90625 -14.140625 L 10.34375 -12.3125 L 10.078125 -12.265625 C 9.535156 -12.535156 8.941406 -12.671875 8.296875 -12.671875 C 7.128906 -12.671875 6.234375 -12.234375 5.609375 -11.359375 C 4.992188 -10.492188 4.6875 -9.082031 4.6875 -7.125 L 4.6875 0 Z M 2.53125 0 " />
            </g>
        </g>
        <g transform="translate(736.400251, 154.174217)">
            <g>
                <path d="M 3.609375 -17.34375 C 3.148438 -17.34375 2.773438 -17.484375 2.484375 -17.765625 C 2.203125 -18.054688 2.0625 -18.421875 2.0625 -18.859375 C 2.0625 -19.304688 2.203125 -19.671875 2.484375 -19.953125 C 2.773438 -20.234375 3.148438 -20.375 3.609375 -20.375 C 4.066406 -20.375 4.4375 -20.234375 4.71875 -19.953125 C 5.007812 -19.671875 5.15625 -19.304688 5.15625 -18.859375 C 5.15625 -18.421875 5.007812 -18.054688 4.71875 -17.765625 C 4.4375 -17.484375 4.066406 -17.34375 3.609375 -17.34375 Z M 2.53125 0 L 2.53125 -14.546875 L 4.6875 -14.546875 L 4.6875 0 Z M 2.53125 0 " />
            </g>
        </g>
        <g transform="translate(743.611676, 154.174217)">
            <g>
                <path d="M 13.859375 -6.78125 L 3.859375 -6.78125 C 3.921875 -5.007812 4.34375 -3.707031 5.125 -2.875 C 5.914062 -2.050781 7 -1.640625 8.375 -1.640625 C 9.40625 -1.640625 10.238281 -1.820312 10.875 -2.1875 C 11.507812 -2.5625 12.003906 -3.144531 12.359375 -3.9375 L 12.640625 -3.9375 L 14.046875 -3.109375 C 13.617188 -2.054688 12.941406 -1.226562 12.015625 -0.625 C 11.085938 -0.0195312 9.875 0.28125 8.375 0.28125 C 6.96875 0.28125 5.757812 0.00390625 4.75 -0.546875 C 3.738281 -1.109375 2.957031 -1.953125 2.40625 -3.078125 C 1.863281 -4.203125 1.59375 -5.597656 1.59375 -7.265625 C 1.59375 -8.921875 1.878906 -10.3125 2.453125 -11.4375 C 3.035156 -12.570312 3.820312 -13.414062 4.8125 -13.96875 C 5.8125 -14.53125 6.953125 -14.8125 8.234375 -14.8125 C 10.097656 -14.8125 11.550781 -14.285156 12.59375 -13.234375 C 13.644531 -12.191406 14.175781 -10.632812 14.1875 -8.5625 C 14.1875 -7.757812 14.171875 -7.21875 14.140625 -6.9375 Z M 12.0625 -8.5625 C 12.03125 -10.113281 11.6875 -11.238281 11.03125 -11.9375 C 10.382812 -12.644531 9.453125 -13 8.234375 -13 C 6.960938 -13 5.960938 -12.644531 5.234375 -11.9375 C 4.515625 -11.226562 4.078125 -10.101562 3.921875 -8.5625 Z M 12.0625 -8.5625 " />
            </g>
        </g>
        <g transform="translate(759.115582, 154.174217)">
            <g>
                <path d="M 2.53125 0 L 2.53125 -14.546875 L 4.578125 -14.546875 L 4.578125 -12.265625 L 4.859375 -12.1875 C 5.523438 -13.84375 6.796875 -14.671875 8.671875 -14.671875 C 9.671875 -14.671875 10.414062 -14.492188 10.90625 -14.140625 L 10.34375 -12.3125 L 10.078125 -12.265625 C 9.535156 -12.535156 8.941406 -12.671875 8.296875 -12.671875 C 7.128906 -12.671875 6.234375 -12.234375 5.609375 -11.359375 C 4.992188 -10.492188 4.6875 -9.082031 4.6875 -7.125 L 4.6875 0 Z M 2.53125 0 " />
            </g>
        </g>
        <g transform="translate(770.348003, 154.174217)">
            <g />
        </g>
        <g transform="translate(776.966167, 154.174217)">
            <g>
                <path d="M 14.234375 -19.28125 L 14.234375 -17.40625 L 5.1875 -17.40625 L 5.1875 -10.390625 L 13.328125 -10.390625 L 13.328125 -8.5 L 5.1875 -8.5 L 5.1875 0 L 2.90625 0 L 2.90625 -19.28125 Z M 14.234375 -19.28125 " />
            </g>
        </g>
        <g transform="translate(791.91636, 154.174217)">
            <g>
                <path d="M 2.53125 0 L 2.53125 -14.546875 L 4.578125 -14.546875 L 4.578125 -12.265625 L 4.859375 -12.1875 C 5.523438 -13.84375 6.796875 -14.671875 8.671875 -14.671875 C 9.671875 -14.671875 10.414062 -14.492188 10.90625 -14.140625 L 10.34375 -12.3125 L 10.078125 -12.265625 C 9.535156 -12.535156 8.941406 -12.671875 8.296875 -12.671875 C 7.128906 -12.671875 6.234375 -12.234375 5.609375 -11.359375 C 4.992188 -10.492188 4.6875 -9.082031 4.6875 -7.125 L 4.6875 0 Z M 2.53125 0 " />
            </g>
        </g>
        <g transform="translate(802.766457, 154.174217)">
            <g>
                <path d="M 13.859375 -6.78125 L 3.859375 -6.78125 C 3.921875 -5.007812 4.34375 -3.707031 5.125 -2.875 C 5.914062 -2.050781 7 -1.640625 8.375 -1.640625 C 9.40625 -1.640625 10.238281 -1.820312 10.875 -2.1875 C 11.507812 -2.5625 12.003906 -3.144531 12.359375 -3.9375 L 12.640625 -3.9375 L 14.046875 -3.109375 C 13.617188 -2.054688 12.941406 -1.226562 12.015625 -0.625 C 11.085938 -0.0195312 9.875 0.28125 8.375 0.28125 C 6.96875 0.28125 5.757812 0.00390625 4.75 -0.546875 C 3.738281 -1.109375 2.957031 -1.953125 2.40625 -3.078125 C 1.863281 -4.203125 1.59375 -5.597656 1.59375 -7.265625 C 1.59375 -8.921875 1.878906 -10.3125 2.453125 -11.4375 C 3.035156 -12.570312 3.820312 -13.414062 4.8125 -13.96875 C 5.8125 -14.53125 6.953125 -14.8125 8.234375 -14.8125 C 10.097656 -14.8125 11.550781 -14.285156 12.59375 -13.234375 C 13.644531 -12.191406 14.175781 -10.632812 14.1875 -8.5625 C 14.1875 -7.757812 14.171875 -7.21875 14.140625 -6.9375 Z M 12.0625 -8.5625 C 12.03125 -10.113281 11.6875 -11.238281 11.03125 -11.9375 C 10.382812 -12.644531 9.453125 -13 8.234375 -13 C 6.960938 -13 5.960938 -12.644531 5.234375 -11.9375 C 4.515625 -11.226562 4.078125 -10.101562 3.921875 -8.5625 Z M 12.0625 -8.5625 " />
            </g>
        </g>
        <g transform="translate(818.270362, 154.174217)">
            <g>
                <path d="M 12.671875 5.890625 L 12.671875 -2.046875 L 12.390625 -2.09375 C 11.816406 -1.28125 11.125 -0.679688 10.3125 -0.296875 C 9.5 0.0859375 8.566406 0.28125 7.515625 0.28125 C 6.359375 0.28125 5.332031 0.00390625 4.4375 -0.546875 C 3.539062 -1.109375 2.84375 -1.941406 2.34375 -3.046875 C 1.84375 -4.160156 1.59375 -5.53125 1.59375 -7.15625 C 1.59375 -8.851562 1.851562 -10.269531 2.375 -11.40625 C 2.90625 -12.550781 3.632812 -13.40625 4.5625 -13.96875 C 5.488281 -14.53125 6.566406 -14.8125 7.796875 -14.8125 C 8.753906 -14.8125 9.625 -14.628906 10.40625 -14.265625 C 11.1875 -13.910156 11.847656 -13.3125 12.390625 -12.46875 L 12.671875 -12.53125 L 12.671875 -14.546875 L 14.8125 -14.546875 L 14.8125 5.890625 Z M 8.21875 -1.640625 C 9.09375 -1.640625 9.863281 -1.835938 10.53125 -2.234375 C 11.195312 -2.628906 11.71875 -3.238281 12.09375 -4.0625 C 12.476562 -4.882812 12.671875 -5.914062 12.671875 -7.15625 C 12.671875 -9.101562 12.265625 -10.546875 11.453125 -11.484375 C 10.648438 -12.421875 9.570312 -12.890625 8.21875 -12.890625 C 5.300781 -12.890625 3.84375 -10.976562 3.84375 -7.15625 C 3.84375 -5.269531 4.222656 -3.878906 4.984375 -2.984375 C 5.742188 -2.085938 6.820312 -1.640625 8.21875 -1.640625 Z M 8.21875 -1.640625 " />
            </g>
        </g>
        <g transform="translate(835.633154, 154.174217)">
            <g>
                <path d="M 7.1875 0.28125 C 5.539062 0.28125 4.316406 -0.148438 3.515625 -1.015625 C 2.710938 -1.890625 2.3125 -3.171875 2.3125 -4.859375 L 2.3125 -14.546875 L 4.453125 -14.546875 L 4.453125 -4.90625 C 4.453125 -2.695312 5.488281 -1.59375 7.5625 -1.59375 C 8.882812 -1.59375 9.925781 -2.019531 10.6875 -2.875 C 11.457031 -3.738281 11.84375 -5.140625 11.84375 -7.078125 L 11.84375 -14.546875 L 13.984375 -14.546875 L 13.984375 0 L 11.953125 0 L 11.953125 -2.28125 L 11.6875 -2.34375 C 11.175781 -1.457031 10.570312 -0.796875 9.875 -0.359375 C 9.175781 0.0664062 8.28125 0.28125 7.1875 0.28125 Z M 7.1875 0.28125 " />
            </g>
        </g>
        <g transform="translate(852.152197, 154.174217)">
            <g>
                <path d="M 13.859375 -6.78125 L 3.859375 -6.78125 C 3.921875 -5.007812 4.34375 -3.707031 5.125 -2.875 C 5.914062 -2.050781 7 -1.640625 8.375 -1.640625 C 9.40625 -1.640625 10.238281 -1.820312 10.875 -2.1875 C 11.507812 -2.5625 12.003906 -3.144531 12.359375 -3.9375 L 12.640625 -3.9375 L 14.046875 -3.109375 C 13.617188 -2.054688 12.941406 -1.226562 12.015625 -0.625 C 11.085938 -0.0195312 9.875 0.28125 8.375 0.28125 C 6.96875 0.28125 5.757812 0.00390625 4.75 -0.546875 C 3.738281 -1.109375 2.957031 -1.953125 2.40625 -3.078125 C 1.863281 -4.203125 1.59375 -5.597656 1.59375 -7.265625 C 1.59375 -8.921875 1.878906 -10.3125 2.453125 -11.4375 C 3.035156 -12.570312 3.820312 -13.414062 4.8125 -13.96875 C 5.8125 -14.53125 6.953125 -14.8125 8.234375 -14.8125 C 10.097656 -14.8125 11.550781 -14.285156 12.59375 -13.234375 C 13.644531 -12.191406 14.175781 -10.632812 14.1875 -8.5625 C 14.1875 -7.757812 14.171875 -7.21875 14.140625 -6.9375 Z M 12.0625 -8.5625 C 12.03125 -10.113281 11.6875 -11.238281 11.03125 -11.9375 C 10.382812 -12.644531 9.453125 -13 8.234375 -13 C 6.960938 -13 5.960938 -12.644531 5.234375 -11.9375 C 4.515625 -11.226562 4.078125 -10.101562 3.921875 -8.5625 Z M 12.0625 -8.5625 " />
            </g>
        </g>
        <g transform="translate(867.656102, 154.174217)">
            <g>
                <path d="M 2.53125 0 L 2.53125 -14.546875 L 4.578125 -14.546875 L 4.578125 -12.265625 L 4.859375 -12.1875 C 5.335938 -13.039062 5.953125 -13.691406 6.703125 -14.140625 C 7.453125 -14.585938 8.367188 -14.8125 9.453125 -14.8125 C 11.203125 -14.8125 12.46875 -14.363281 13.25 -13.46875 C 14.039062 -12.582031 14.4375 -11.210938 14.4375 -9.359375 L 14.4375 0 L 12.28125 0 L 12.28125 -9.3125 C 12.28125 -10.1875 12.164062 -10.890625 11.9375 -11.421875 C 11.71875 -11.953125 11.375 -12.335938 10.90625 -12.578125 C 10.4375 -12.828125 9.820312 -12.953125 9.0625 -12.953125 C 7.75 -12.953125 6.691406 -12.515625 5.890625 -11.640625 C 5.085938 -10.773438 4.6875 -9.382812 4.6875 -7.46875 L 4.6875 0 Z M 2.53125 0 " />
            </g>
        </g>
        <g transform="translate(884.399265, 154.174217)">
            <g>
                <path d="M 8.34375 0.28125 C 7.0625 0.28125 5.910156 -0.0078125 4.890625 -0.59375 C 3.867188 -1.1875 3.0625 -2.050781 2.46875 -3.1875 C 1.882812 -4.320312 1.59375 -5.679688 1.59375 -7.265625 C 1.59375 -8.859375 1.882812 -10.222656 2.46875 -11.359375 C 3.0625 -12.492188 3.867188 -13.351562 4.890625 -13.9375 C 5.910156 -14.519531 7.0625 -14.8125 8.34375 -14.8125 C 9.882812 -14.8125 11.109375 -14.519531 12.015625 -13.9375 C 12.921875 -13.363281 13.578125 -12.59375 13.984375 -11.625 L 12.53125 -10.578125 L 12.265625 -10.578125 C 11.867188 -11.367188 11.359375 -11.953125 10.734375 -12.328125 C 10.117188 -12.703125 9.320312 -12.890625 8.34375 -12.890625 C 7.445312 -12.890625 6.660156 -12.675781 5.984375 -12.25 C 5.304688 -11.832031 4.78125 -11.203125 4.40625 -10.359375 C 4.03125 -9.515625 3.84375 -8.484375 3.84375 -7.265625 C 3.84375 -6.046875 4.03125 -5.015625 4.40625 -4.171875 C 4.789062 -3.335938 5.316406 -2.707031 5.984375 -2.28125 C 6.660156 -1.851562 7.445312 -1.640625 8.34375 -1.640625 C 9.351562 -1.640625 10.191406 -1.867188 10.859375 -2.328125 C 11.523438 -2.785156 12.046875 -3.507812 12.421875 -4.5 L 12.703125 -4.5 L 14.109375 -3.671875 C 13.734375 -2.441406 13.054688 -1.472656 12.078125 -0.765625 C 11.109375 -0.0664062 9.863281 0.28125 8.34375 0.28125 Z M 8.34375 0.28125 " />
            </g>
        </g>
        <g transform="translate(899.389011, 154.174217)">
            <g>
                <path d="M 2.90625 6.171875 C 2.414062 6.171875 1.957031 6.128906 1.53125 6.046875 C 1.101562 5.960938 0.738281 5.847656 0.4375 5.703125 L 0.828125 4 L 1.0625 3.921875 C 1.28125 4.023438 1.546875 4.113281 1.859375 4.1875 C 2.171875 4.257812 2.492188 4.296875 2.828125 4.296875 C 3.421875 4.296875 3.910156 4.21875 4.296875 4.0625 C 4.679688 3.90625 5.007812 3.644531 5.28125 3.28125 C 5.5625 2.914062 5.820312 2.410156 6.0625 1.765625 L 6.578125 0.34375 L 0.734375 -14.546875 L 3.0625 -14.546875 L 7.640625 -2.671875 L 7.890625 -2.671875 L 12.3125 -14.546875 L 14.515625 -14.546875 L 8.015625 2.28125 C 7.648438 3.207031 7.238281 3.953125 6.78125 4.515625 C 6.320312 5.085938 5.78125 5.503906 5.15625 5.765625 C 4.53125 6.035156 3.78125 6.171875 2.90625 6.171875 Z M 2.90625 6.171875 " />
            </g>
        </g>
    </g>
</svg>