<svg xmlns="http://www.w3.org/2000/svg" width="20" zoomAndPan="magnify" viewBox="0 0 810 809.999993" height="20" preserveAspectRatio="xMidYMid meet" version="1.0">
    <defs>
        <clipPath id="e115e92dbf">
            <path d="M 405 0 C 181.324219 0 0 181.324219 0 405 C 0 628.675781 181.324219 810 405 810 C 628.675781 810 810 628.675781 810 405 C 810 181.324219 628.675781 0 405 0 Z M 405 0 " clip-rule="nonzero" />
        </clipPath>
        <clipPath id="82b1fccee2">
            <path d="M 405 210.660156 C 297.667969 210.660156 210.660156 297.667969 210.660156 405 C 210.660156 512.332031 297.667969 599.34375 405 599.34375 C 512.332031 599.34375 599.339844 512.332031 599.339844 405 C 599.339844 297.667969 512.332031 210.660156 405 210.660156 Z M 405 210.660156 " clip-rule="nonzero" />
        </clipPath>
    </defs>
    <g clip-path="url(#e115e92dbf)">
        <circle cx="405" cy="405" r="405" fill="#568af2" fill-opacity="1" />
    </g>
    <g clip-path="url(#82b1fccee2)">
        <circle cx="405" cy="405" r="195" fill="#272c36" fill-opacity="1" fill-rule="nonzero" />
    </g>
</svg>